<svg width="39" height="39" viewBox="0 0 39 39" fill="none" xmlns="http://www.w3.org/2000/svg">
<path d="M19.3635 38.7297C8.68577 38.7297 0 30.0439 0 19.3662C0 8.68577 8.68577 0 19.3635 0C30.0413 0 38.7297 8.68577 38.7297 19.3662C38.7297 30.0439 30.0439 38.7297 19.3635 38.7297ZM19.3635 1.05956C9.27118 1.05956 1.05956 9.27118 1.05956 19.3662C1.05956 29.4585 9.27118 37.6701 19.3635 37.6701C29.4558 37.6701 37.6701 29.4585 37.6701 19.3662C37.6701 9.27118 29.4585 1.05956 19.3635 1.05956Z" fill="#2D2D82"/>
<path d="M19.5831 10.5947C20.2497 10.5947 20.8597 10.6947 21.4131 10.8947C21.9664 11.0881 22.4397 11.3647 22.8331 11.7247C23.2264 12.0847 23.5331 12.5181 23.7531 13.0247C23.9731 13.5314 24.0831 14.0947 24.0831 14.7147C24.0831 15.2481 24.0031 15.7414 23.8431 16.1947C23.6897 16.6481 23.4797 17.0814 23.2131 17.4947C22.9531 17.9081 22.6464 18.3081 22.2931 18.6947C21.9397 19.0814 21.5697 19.4747 21.1831 19.8747L17.9231 23.2047C18.2431 23.1114 18.5564 23.0414 18.8631 22.9947C19.1697 22.9414 19.4631 22.9147 19.7431 22.9147H23.4531C23.7197 22.9147 23.9297 22.9914 24.0831 23.1447C24.2431 23.2914 24.3231 23.4881 24.3231 23.7347V25.2147H14.4031V24.3947C14.4031 24.2281 14.4364 24.0547 14.5031 23.8747C14.5764 23.6947 14.6897 23.5281 14.8431 23.3747L19.2331 18.9747C19.5997 18.6014 19.9264 18.2447 20.2131 17.9047C20.5064 17.5647 20.7497 17.2281 20.9431 16.8947C21.1431 16.5614 21.2931 16.2247 21.3931 15.8847C21.4997 15.5381 21.5531 15.1747 21.5531 14.7947C21.5531 14.4481 21.5031 14.1447 21.4031 13.8847C21.3031 13.6181 21.1597 13.3947 20.9731 13.2147C20.7864 13.0347 20.5631 12.9014 20.3031 12.8147C20.0497 12.7214 19.7631 12.6747 19.4431 12.6747C18.8497 12.6747 18.3597 12.8247 17.9731 13.1247C17.5931 13.4247 17.3264 13.8281 17.1731 14.3347C17.0997 14.5881 16.9897 14.7714 16.8431 14.8847C16.6964 14.9914 16.5097 15.0447 16.2831 15.0447C16.1831 15.0447 16.0731 15.0347 15.9531 15.0147L14.6531 14.7847C14.7531 14.0914 14.9464 13.4847 15.2331 12.9647C15.5197 12.4381 15.8764 12.0014 16.3031 11.6547C16.7364 11.3014 17.2297 11.0381 17.7831 10.8647C18.3431 10.6847 18.9431 10.5947 19.5831 10.5947Z" fill="#2D2D82"/>
</svg>
