<svg width="39" height="39" viewBox="0 0 39 39" fill="none" xmlns="http://www.w3.org/2000/svg">
<path d="M19.3635 38.7297C8.68577 38.7297 0 30.0439 0 19.3662C0 8.68577 8.68577 0 19.3635 0C30.0413 0 38.7297 8.68577 38.7297 19.3662C38.7297 30.0439 30.0439 38.7297 19.3635 38.7297ZM19.3635 1.05956C9.27118 1.05956 1.05956 9.27118 1.05956 19.3662C1.05956 29.4585 9.27118 37.6701 19.3635 37.6701C29.4558 37.6701 37.6701 29.4585 37.6701 19.3662C37.6701 9.27118 29.4585 1.05956 19.3635 1.05956Z" fill="#2D2D82"/>
<path d="M19.816 10.5941C20.4827 10.5941 21.0827 10.6908 21.616 10.8841C22.156 11.0708 22.616 11.3341 22.996 11.6741C23.376 12.0074 23.666 12.4008 23.866 12.8541C24.0727 13.3074 24.176 13.7974 24.176 14.3241C24.176 14.7841 24.1227 15.1908 24.016 15.5441C23.916 15.8908 23.766 16.1941 23.566 16.4541C23.3727 16.7141 23.1327 16.9341 22.846 17.1141C22.566 17.2941 22.246 17.4441 21.886 17.5641C22.7527 17.8374 23.3993 18.2541 23.826 18.8141C24.2527 19.3741 24.466 20.0774 24.466 20.9241C24.466 21.6441 24.3327 22.2808 24.066 22.8341C23.7993 23.3874 23.4393 23.8541 22.986 24.2341C22.5327 24.6074 22.006 24.8908 21.406 25.0841C20.8127 25.2774 20.1827 25.3741 19.516 25.3741C18.7893 25.3741 18.156 25.2908 17.616 25.1241C17.076 24.9574 16.606 24.7108 16.206 24.3841C15.806 24.0574 15.466 23.6574 15.186 23.1841C14.906 22.7108 14.666 22.1641 14.466 21.5441L15.556 21.0941C15.7427 21.0141 15.9327 20.9741 16.126 20.9741C16.2993 20.9741 16.4527 21.0108 16.586 21.0841C16.726 21.1574 16.8327 21.2641 16.906 21.4041C17.026 21.6374 17.156 21.8674 17.296 22.0941C17.4427 22.3208 17.616 22.5241 17.816 22.7041C18.016 22.8774 18.2493 23.0208 18.516 23.1341C18.7893 23.2408 19.1127 23.2941 19.486 23.2941C19.906 23.2941 20.2727 23.2274 20.586 23.0941C20.8993 22.9541 21.1593 22.7741 21.366 22.5541C21.5793 22.3341 21.736 22.0908 21.836 21.8241C21.9427 21.5508 21.996 21.2774 21.996 21.0041C21.996 20.6574 21.9593 20.3441 21.886 20.0641C21.8127 19.7774 21.6593 19.5341 21.426 19.3341C21.1927 19.1341 20.856 18.9774 20.416 18.8641C19.9827 18.7508 19.3993 18.6941 18.666 18.6941V16.9341C19.2727 16.9274 19.776 16.8708 20.176 16.7641C20.576 16.6574 20.8927 16.5108 21.126 16.3241C21.366 16.1308 21.5327 15.9008 21.626 15.6341C21.7193 15.3674 21.766 15.0741 21.766 14.7541C21.766 14.0674 21.5793 13.5508 21.206 13.2041C20.8327 12.8508 20.3227 12.6741 19.676 12.6741C19.0893 12.6741 18.6027 12.8308 18.216 13.1441C17.8293 13.4508 17.5593 13.8474 17.406 14.3341C17.326 14.5874 17.216 14.7708 17.076 14.8841C16.936 14.9908 16.7527 15.0441 16.526 15.0441C16.4193 15.0441 16.306 15.0341 16.186 15.0141L14.886 14.7841C14.986 14.0908 15.1793 13.4841 15.466 12.9641C15.7527 12.4374 16.1093 12.0008 16.536 11.6541C16.9693 11.3008 17.4627 11.0374 18.016 10.8641C18.576 10.6841 19.176 10.5941 19.816 10.5941Z" fill="#2D2D82"/>
</svg>
