<svg width="39" height="39" viewBox="0 0 39 39" fill="none" xmlns="http://www.w3.org/2000/svg">
<path d="M19.3635 38.7297C8.68577 38.7297 0 30.0439 0 19.3662C0 8.68577 8.68577 0 19.3635 0C30.0413 0 38.7297 8.68577 38.7297 19.3662C38.7297 30.0439 30.0439 38.7297 19.3635 38.7297ZM19.3635 1.05956C9.27118 1.05956 1.05956 9.27118 1.05956 19.3662C1.05956 29.4585 9.27118 37.6701 19.3635 37.6701C29.4558 37.6701 37.6701 29.4585 37.6701 19.3662C37.6701 9.27118 29.4585 1.05956 19.3635 1.05956Z" fill="#2D2D82"/>
<path d="M22.9821 19.7647H24.8021V21.1947C24.8021 21.3281 24.7588 21.4447 24.6721 21.5447C24.5854 21.6381 24.4588 21.6847 24.2921 21.6847H22.9821V25.2147H20.8221V21.6847H14.7221C14.5554 21.6847 14.4088 21.6347 14.2821 21.5347C14.1554 21.4281 14.0754 21.2981 14.0421 21.1447L13.7921 19.8947L20.6421 10.7447H22.9821V19.7647ZM20.8221 15.0347C20.8221 14.8214 20.8288 14.5914 20.8421 14.3447C20.8554 14.0981 20.8788 13.8414 20.9121 13.5747L16.4221 19.7647H20.8221V15.0347Z" fill="#2D2D82"/>
</svg>
