<svg width="39" height="39" viewBox="0 0 39 39" fill="none" xmlns="http://www.w3.org/2000/svg">
<path d="M19.3635 38.7297C8.68577 38.7297 0 30.0439 0 19.3662C0 8.68577 8.68577 0 19.3635 0C30.0413 0 38.7297 8.68577 38.7297 19.3662C38.7297 30.0439 30.0439 38.7297 19.3635 38.7297ZM19.3635 1.05956C9.27118 1.05956 1.05956 9.27118 1.05956 19.3662C1.05956 29.4585 9.27118 37.6701 19.3635 37.6701C29.4558 37.6701 37.6701 29.4585 37.6701 19.3662C37.6701 9.27118 29.4585 1.05956 19.3635 1.05956Z" fill="#2D2D82"/>
<path d="M23.456 11.8047C23.456 12.1581 23.3427 12.4447 23.116 12.6647C22.896 12.8847 22.526 12.9947 22.006 12.9947H18.026L17.506 16.0147C18.1593 15.8814 18.756 15.8147 19.296 15.8147C20.056 15.8147 20.7227 15.9281 21.296 16.1547C21.876 16.3814 22.3627 16.6947 22.756 17.0947C23.1493 17.4947 23.446 17.9647 23.646 18.5047C23.846 19.0381 23.946 19.6147 23.946 20.2347C23.946 21.0014 23.8093 21.7014 23.536 22.3347C23.2693 22.9681 22.896 23.5114 22.416 23.9647C21.936 24.4114 21.366 24.7581 20.706 25.0047C20.0527 25.2514 19.3393 25.3747 18.566 25.3747C18.1127 25.3747 17.6827 25.3281 17.276 25.2347C16.8693 25.1414 16.486 25.0181 16.126 24.8647C15.7727 24.7047 15.4427 24.5247 15.136 24.3247C14.836 24.1181 14.566 23.9014 14.326 23.6747L15.086 22.6247C15.246 22.3981 15.4593 22.2847 15.726 22.2847C15.8927 22.2847 16.0593 22.3381 16.226 22.4447C16.3993 22.5514 16.5993 22.6681 16.826 22.7947C17.0527 22.9214 17.316 23.0381 17.616 23.1447C17.916 23.2514 18.2793 23.3047 18.706 23.3047C19.1593 23.3047 19.5593 23.2314 19.906 23.0847C20.2527 22.9381 20.5393 22.7347 20.766 22.4747C20.9993 22.2081 21.1727 21.8947 21.286 21.5347C21.406 21.1681 21.466 20.7714 21.466 20.3447C21.466 19.5581 21.236 18.9447 20.776 18.5047C20.3227 18.0581 19.6527 17.8347 18.766 17.8347C18.066 17.8347 17.3627 17.9614 16.656 18.2147L15.116 17.7747L16.316 10.7547H23.456V11.8047Z" fill="#2D2D82"/>
</svg>
