<svg width="39" height="39" viewBox="0 0 39 39" fill="none" xmlns="http://www.w3.org/2000/svg">
<path d="M19.3635 38.7297C8.68577 38.7297 0 30.0439 0 19.3662C0 8.68577 8.68577 0 19.3635 0C30.0413 0 38.7297 8.68577 38.7297 19.3662C38.7297 30.0439 30.0439 38.7297 19.3635 38.7297ZM19.3635 1.05956C9.27118 1.05956 1.05956 9.27118 1.05956 19.3662C1.05956 29.4585 9.27118 37.6701 19.3635 37.6701C29.4558 37.6701 37.6701 29.4585 37.6701 19.3662C37.6701 9.27118 29.4585 1.05956 19.3635 1.05956Z" fill="#2D2D82"/>
<path d="M20.2641 16.1837C20.8107 16.1837 21.3407 16.2737 21.8541 16.4537C22.3741 16.6337 22.8307 16.907 23.2241 17.2737C23.6174 17.6337 23.9341 18.0837 24.1741 18.6237C24.4141 19.1637 24.5341 19.7937 24.5341 20.5137C24.5341 21.187 24.4107 21.8204 24.1641 22.4137C23.9174 23.0004 23.5707 23.5137 23.1241 23.9537C22.6774 24.3937 22.1374 24.7404 21.5041 24.9937C20.8774 25.247 20.1841 25.3737 19.4241 25.3737C18.6507 25.3737 17.9574 25.2504 17.3441 25.0037C16.7307 24.757 16.2074 24.4137 15.7741 23.9737C15.3407 23.527 15.0074 22.9937 14.7741 22.3737C14.5474 21.747 14.4341 21.0537 14.4341 20.2937C14.4341 19.6137 14.5707 18.917 14.8441 18.2037C15.1241 17.4837 15.5541 16.737 16.1341 15.9637L19.5841 11.3337C19.7041 11.1737 19.8774 11.037 20.1041 10.9237C20.3374 10.8104 20.6041 10.7537 20.9041 10.7537H23.1041L18.8141 16.0037C18.7207 16.117 18.6307 16.2237 18.5441 16.3237C18.4641 16.4237 18.3841 16.527 18.3041 16.6337C18.5841 16.4937 18.8841 16.3837 19.2041 16.3037C19.5307 16.2237 19.8841 16.1837 20.2641 16.1837ZM16.8041 20.6737C16.8041 21.0737 16.8574 21.4404 16.9641 21.7737C17.0774 22.1004 17.2407 22.3804 17.4541 22.6137C17.6741 22.847 17.9441 23.0304 18.2641 23.1637C18.5841 23.2904 18.9541 23.3537 19.3741 23.3537C19.7674 23.3537 20.1274 23.287 20.4541 23.1537C20.7874 23.0204 21.0707 22.8337 21.3041 22.5937C21.5441 22.3537 21.7307 22.0737 21.8641 21.7537C21.9974 21.427 22.0641 21.0737 22.0641 20.6937C22.0641 20.2804 22.0007 19.9104 21.8741 19.5837C21.7474 19.2504 21.5674 18.9704 21.3341 18.7437C21.1007 18.5104 20.8207 18.3337 20.4941 18.2137C20.1674 18.0937 19.8074 18.0337 19.4141 18.0337C19.0207 18.0337 18.6641 18.1004 18.3441 18.2337C18.0241 18.367 17.7474 18.5537 17.5141 18.7937C17.2874 19.027 17.1107 19.307 16.9841 19.6337C16.8641 19.9537 16.8041 20.3004 16.8041 20.6737Z" fill="#2D2D82"/>
</svg>
