<svg width="126" height="126" viewBox="0 0 126 126" fill="none" xmlns="http://www.w3.org/2000/svg">
<path d="M37.5187 125.447C29.2088 125.447 21.3621 122.75 14.8277 117.642C5.75682 110.55 0.551392 99.8813 0.551392 88.3669C0.551392 79.4838 3.73861 70.8881 9.52303 64.1663C16.5757 55.9963 26.777 51.3087 37.5187 51.3087C38.0867 51.3087 38.5444 51.7675 38.5444 52.3369C38.5444 52.9063 38.0867 53.3651 37.5187 53.3651C27.3726 53.3651 17.7337 57.7928 11.0725 65.5096C5.61345 71.861 2.60268 79.9813 2.60268 88.3669C2.60268 99.24 7.52137 109.317 16.0905 116.017C22.2609 120.837 29.672 123.385 37.5187 123.385C46.6944 123.385 55.3573 119.848 61.9081 113.419C68.6962 106.769 72.4348 97.8692 72.4348 88.3614C72.4348 78.9531 69.6281 71.4188 63.8547 65.3382C63.5293 64.9955 63.1819 64.6472 62.8235 64.3045C55.5337 57.2456 51.5194 47.771 51.5194 37.622C51.5194 28.7333 54.7011 20.1321 60.4745 13.4048C67.5327 5.2403 77.734 0.55275 88.4757 0.55275C108.862 0.55275 125.449 17.1858 125.449 37.6275C125.449 48.0805 121.01 58.1024 113.273 65.1171C106.452 71.2861 97.6458 74.6857 88.4757 74.6857C87.9077 74.6857 87.45 74.2269 87.45 73.6575C87.45 73.0882 87.9077 72.6293 88.4757 72.6293C97.1385 72.6293 105.459 69.4177 111.895 63.5914C119.201 56.9636 123.392 47.5001 123.392 37.6275C123.392 18.319 107.726 2.60908 88.4702 2.60908C78.324 2.60908 68.6851 7.03682 62.024 14.7536C56.5704 21.1105 53.5651 29.2308 53.5651 37.6275C53.5651 47.2127 57.3534 56.1677 64.2407 62.8286C64.6211 63.1934 64.9851 63.5583 65.3325 63.9231C71.4864 70.4072 74.4806 78.4003 74.4806 88.3614C74.4806 98.4275 70.5214 107.847 63.3363 114.884C56.4105 121.699 47.2348 125.447 37.5187 125.447Z" fill="#F9A01B"/>
<path d="M37.5188 126C29.0875 126 21.125 123.258 14.4914 118.079C5.28263 110.882 0 100.053 0 88.3669C0 79.3511 3.23133 70.6283 9.10398 63.8015C16.2614 55.5099 26.6172 50.756 37.5188 50.756C38.39 50.756 39.0958 51.4635 39.0958 52.3369C39.0958 53.2103 38.39 53.9179 37.5188 53.9179C27.5325 53.9179 18.0481 58.2738 11.4916 65.8689C6.11527 72.1208 3.15414 80.1085 3.15414 88.3669C3.15414 99.0687 7.99562 108.991 16.4324 115.58C22.5035 120.323 29.7989 122.833 37.5188 122.833C46.5511 122.833 55.0761 119.35 61.5222 113.021C68.2054 106.476 71.8834 97.7199 71.8834 88.3614C71.8834 79.1024 69.1263 71.6952 63.4577 65.7197C63.1379 65.3825 62.796 65.0397 62.4431 64.7026C55.043 57.5386 50.968 47.9202 50.968 37.622C50.968 28.6007 54.1938 19.8723 60.0554 13.04C67.2184 4.75388 77.5741 0 88.4757 0C109.165 0 126 16.8818 126 37.6275C126 48.2353 121.495 58.4064 113.643 65.5262C106.722 71.7892 97.7837 75.2385 88.4757 75.2385C87.6045 75.2385 86.8986 74.5309 86.8986 73.6575C86.8986 72.7842 87.6045 72.0766 88.4757 72.0766C97.0007 72.0766 105.189 68.9147 111.525 63.1769C118.716 56.6541 122.84 47.3398 122.84 37.622C122.84 18.6175 107.423 3.15636 88.4702 3.15636C78.4839 3.15636 68.9995 7.51224 62.4431 15.1074C57.0777 21.3593 54.1221 29.358 54.1221 37.622C54.1221 47.0579 57.8552 55.8692 64.6267 62.4306C65.0127 62.801 65.3821 63.1714 65.7351 63.5417C71.9937 70.1364 75.032 78.2511 75.032 88.3614C75.032 98.5767 71.0177 108.134 63.7224 115.282C56.6917 122.197 47.3837 126 37.5188 126ZM37.5188 51.8615C26.937 51.8615 16.8846 56.4772 9.93663 64.5257C4.24044 71.1535 1.10284 79.622 1.10284 88.3669C1.10284 99.7099 6.23107 110.218 15.1696 117.205C21.6047 122.236 29.3357 124.894 37.5188 124.894C47.0915 124.894 56.1238 121.202 62.9559 114.497C70.0361 107.559 73.9347 98.2838 73.9347 88.3669C73.9347 78.5551 70.9901 70.6836 64.941 64.3046C64.5991 63.9453 64.2407 63.5859 63.8657 63.2266C56.8737 56.4551 53.0193 47.3675 53.0193 37.622C53.0193 29.0927 56.0686 20.8397 61.6104 14.3833C68.3764 6.54488 78.1696 2.04528 88.4757 2.04528C108.035 2.04528 123.949 18.004 123.949 37.6165C123.949 47.6439 119.692 57.2566 112.27 63.995C105.73 69.9152 97.2764 73.1766 88.4757 73.1766C88.2165 73.1766 88.0015 73.3922 88.0015 73.652C88.0015 73.9118 88.2165 74.1274 88.4757 74.1274C97.508 74.1274 106.187 70.7776 112.904 64.697C120.524 57.7818 124.897 47.9147 124.897 37.6165C124.897 17.4899 108.559 1.10555 88.4757 1.10555C77.8994 1.10555 67.8415 5.72124 60.8936 13.7697C55.2084 20.3975 52.0708 28.8715 52.0708 37.6275C52.0708 47.6273 56.0245 56.9637 63.204 63.9121C63.568 64.2603 63.9154 64.6141 64.2517 64.9624C70.1299 71.1535 72.9863 78.8094 72.9863 88.3669C72.9863 98.024 69.187 107.062 62.2942 113.817C55.6385 120.345 46.8378 123.944 37.5188 123.944C29.5452 123.944 22.0183 121.357 15.7541 116.454C7.04718 109.649 2.05129 99.4114 2.05129 88.3669C2.05129 79.8431 5.10617 71.5957 10.6535 65.1448C17.4194 57.3064 27.2127 52.8068 37.5188 52.8068C37.7779 52.8068 37.993 52.5912 37.993 52.3314C37.993 52.0716 37.7835 51.8615 37.5188 51.8615Z" fill="#F9A01B"/>
<path d="M62.3713 114.911C61.9302 114.911 61.5221 114.624 61.3898 114.181C59.7796 108.842 54.7893 105.116 49.253 105.116H45.2166C44.6486 105.116 44.1909 104.657 44.1909 104.088C44.1909 103.518 44.6486 103.06 45.2166 103.06H49.253C55.6881 103.06 61.489 107.388 63.3528 113.584C63.5183 114.126 63.2095 114.701 62.6691 114.867C62.5643 114.895 62.4651 114.911 62.3713 114.911Z" fill="#2D2D82"/>
<path d="M62.3714 115.464C61.6711 115.464 61.0645 115.011 60.8605 114.342C59.322 109.234 54.5467 105.669 49.2475 105.669H45.2111C44.3399 105.669 43.634 104.961 43.634 104.088C43.634 103.214 44.3399 102.507 45.2111 102.507H49.2475C55.9252 102.507 61.9413 106.995 63.8767 113.43C63.9981 113.833 63.954 114.264 63.7554 114.635C63.5569 115.005 63.2261 115.282 62.8235 115.403C62.6746 115.442 62.5203 115.464 62.3714 115.464ZM45.2111 103.612C44.9519 103.612 44.7369 103.828 44.7369 104.088C44.7369 104.348 44.9519 104.563 45.2111 104.563H49.2475C55.0264 104.563 60.2374 108.455 61.9137 114.021C61.9854 114.264 62.2501 114.414 62.5037 114.336C62.7574 114.259 62.8952 113.994 62.8235 113.745C61.0259 107.78 55.4455 103.612 49.253 103.612H45.2111Z" fill="#2D2D82"/>
<path d="M15.8369 117.393C15.7983 117.393 15.7652 117.393 15.7266 117.388C15.1642 117.327 14.7561 116.818 14.8168 116.255C15.5777 109.085 21.5772 103.419 28.7678 103.071C28.9773 103.054 29.2365 103.054 29.4791 103.054H33.5045C34.0724 103.054 34.5301 103.513 34.5301 104.082C34.5301 104.652 34.0724 105.111 33.5045 105.111H29.4791C29.2971 105.111 29.0821 105.111 28.8946 105.122C22.68 105.42 17.5187 110.301 16.8625 116.47C16.7964 117.001 16.3552 117.393 15.8369 117.393Z" fill="#2D2D82"/>
<path d="M15.8369 117.946C15.7818 117.946 15.7266 117.946 15.6715 117.935C14.8057 117.841 14.1771 117.062 14.2709 116.194C15.0594 108.759 21.2849 102.877 28.7402 102.518C28.9497 102.502 29.2254 102.502 29.4791 102.502H33.5045C34.3757 102.502 35.0815 103.209 35.0815 104.083C35.0815 104.956 34.3757 105.663 33.5045 105.663H29.4791C29.2861 105.663 29.0986 105.663 28.9332 105.675C22.9833 105.962 18.0371 110.627 17.4085 116.531C17.3147 117.338 16.642 117.946 15.8369 117.946ZM29.4736 103.613C29.2475 103.613 29.0049 103.613 28.8008 103.629C21.8639 103.966 16.0961 109.422 15.3627 116.321C15.3351 116.581 15.5226 116.819 15.7818 116.846H15.8314C16.074 116.846 16.2725 116.664 16.3001 116.421C16.9839 109.981 22.3823 104.89 28.856 104.58C29.0379 104.569 29.2309 104.569 29.4405 104.569H33.4934C33.7526 104.569 33.9677 104.353 33.9677 104.094C33.9677 103.834 33.7526 103.618 33.4934 103.618H29.4736V103.613Z" fill="#2D2D82"/>
<path d="M39.355 116.979C38.9635 116.979 38.6106 116.758 38.4341 116.409L32.5891 104.558C32.3354 104.049 32.5449 103.436 33.0522 103.181C33.5596 102.933 34.1772 103.137 34.4253 103.646L39.3495 113.634L44.2296 103.723C44.2461 103.679 44.2627 103.635 44.2847 103.59C44.5494 103.087 45.178 102.877 45.6798 103.143C46.143 103.386 46.3526 103.928 46.1651 104.409C46.1485 104.453 46.132 104.497 46.1154 104.536L40.2704 116.404C40.0994 116.758 39.741 116.979 39.355 116.979Z" fill="#2D2D82"/>
<path d="M39.355 117.532C38.7595 117.532 38.2026 117.189 37.9434 116.653L32.0983 104.801C31.9108 104.425 31.8833 103.994 32.0156 103.596C32.1535 103.198 32.4347 102.872 32.8097 102.684C33.5927 102.297 34.5356 102.618 34.9216 103.397L39.3495 112.38L43.7223 103.496C43.7444 103.436 43.7719 103.38 43.7995 103.325C43.9925 102.955 44.3399 102.667 44.7424 102.54C45.145 102.413 45.5696 102.452 45.939 102.651C46.6448 103.027 46.9647 103.867 46.6835 104.602C46.6669 104.646 46.6393 104.713 46.6118 104.779L40.7667 116.647C40.4965 117.194 39.9561 117.532 39.355 117.532ZM33.51 103.624C33.4383 103.624 33.3666 103.64 33.3004 103.673C33.1846 103.729 33.1019 103.828 33.0633 103.944C33.0247 104.066 33.0302 104.193 33.0854 104.309L38.9305 116.161C39.0904 116.481 39.6197 116.487 39.7796 116.161L45.6247 104.292C45.6357 104.27 45.6413 104.254 45.6468 104.232C45.7405 103.988 45.6413 103.745 45.4262 103.629C45.3159 103.574 45.1946 103.563 45.0733 103.596C44.9465 103.635 44.8417 103.723 44.781 103.839C44.77 103.861 44.759 103.883 44.7535 103.906L44.7314 103.961L39.355 114.878L33.9401 103.889C33.8519 103.723 33.6864 103.624 33.51 103.624Z" fill="#2D2D82"/>
<path d="M39.355 99.6602C31.7619 99.6602 25.5859 93.4691 25.5859 85.8518C25.5859 78.2346 31.7619 72.0435 39.355 72.0435C46.948 72.0435 53.1295 78.2346 53.1295 85.8518C53.1295 93.4691 46.948 99.6602 39.355 99.6602ZM39.355 74.0998C32.8923 74.0998 27.6372 79.3733 27.6372 85.8518C27.6372 92.3304 32.8923 97.6039 39.355 97.6039C45.8176 97.6039 51.0782 92.3304 51.0782 85.8518C51.0727 79.3733 45.8176 74.0998 39.355 74.0998Z" fill="#2D2D82"/>
<path d="M39.355 100.213C31.4586 100.213 25.0345 93.7732 25.0345 85.8519C25.0345 77.9306 31.4586 71.4907 39.355 71.4907C47.2514 71.4907 53.6809 77.9306 53.6809 85.8519C53.6809 93.7732 47.2514 100.213 39.355 100.213ZM39.355 72.5963C32.0652 72.5963 26.1374 78.5442 26.1374 85.8519C26.1374 93.1596 32.0652 99.1075 39.355 99.1075C46.6448 99.1075 52.5781 93.1596 52.5781 85.8519C52.5781 78.5442 46.6448 72.5963 39.355 72.5963ZM39.355 98.1567C32.589 98.1567 27.0858 92.64 27.0858 85.8519C27.0858 79.0638 32.589 73.5471 39.355 73.5471C46.1209 73.5471 51.6296 79.0638 51.6296 85.8519C51.6296 92.64 46.1209 98.1567 39.355 98.1567ZM39.355 74.6526C33.1956 74.6526 28.1887 79.6773 28.1887 85.8519C28.1887 92.0264 33.2011 97.0511 39.355 97.0511C45.5144 97.0511 50.5268 92.0264 50.5268 85.8519C50.5268 79.6773 45.5144 74.6526 39.355 74.6526Z" fill="#2D2D82"/>
<path d="M112.396 65.1722C111.828 65.1722 111.371 64.7134 111.371 64.1441V63.2154C111.371 56.1288 105.619 50.3689 98.5502 50.3689H94.4807C93.9128 50.3689 93.4551 49.9101 93.4551 49.3407C93.4551 48.7713 93.9128 48.3125 94.4807 48.3125H98.5502C106.75 48.3125 113.422 54.9956 113.422 63.2154V64.1441C113.422 64.7079 112.964 65.1722 112.396 65.1722Z" fill="#F9A01B"/>
<path d="M112.396 65.725C111.525 65.725 110.819 65.0175 110.819 64.1441V63.2154C110.819 56.4329 105.316 50.9217 98.5503 50.9217H94.4808C93.6095 50.9217 92.9037 50.2141 92.9037 49.3407C92.9037 48.4674 93.6095 47.7598 94.4808 47.7598H98.5503C107.053 47.7598 113.974 54.6916 113.974 63.2154V64.1441C113.974 65.012 113.268 65.725 112.396 65.725ZM94.4863 48.8653C94.2271 48.8653 94.0121 49.0809 94.0121 49.3407C94.0121 49.6005 94.2271 49.8161 94.4863 49.8161H98.5558C105.928 49.8161 111.928 55.8303 111.928 63.2154V64.1441C111.928 64.4039 112.143 64.6195 112.402 64.6195C112.661 64.6195 112.876 64.4039 112.876 64.1441V63.2154C112.876 55.2997 106.452 48.8653 98.5558 48.8653H94.4863Z" fill="#F9A01B"/>
<path d="M64.7369 65.526C64.169 65.526 63.7113 65.0672 63.7113 64.4979V63.2154C63.7113 55.272 69.9093 48.7271 77.8167 48.3291C78.0538 48.3125 78.324 48.3125 78.5776 48.3125H82.6471C83.2151 48.3125 83.6728 48.7713 83.6728 49.3407C83.6728 49.9101 83.2151 50.3689 82.6471 50.3689H78.5776C78.3736 50.3744 78.1475 50.3689 77.938 50.3799C71.1059 50.7282 65.7626 56.3665 65.7626 63.2154V64.4979C65.7626 65.0672 65.3049 65.526 64.7369 65.526Z" fill="#F9A01B"/>
<path d="M64.737 66.0788C63.8657 66.0788 63.1599 65.3713 63.1599 64.4979V63.2154C63.1599 54.9735 69.584 48.191 77.7892 47.7764C78.0318 47.7598 78.313 47.7598 78.5777 47.7598H82.6472C83.5184 47.7598 84.2243 48.4674 84.2243 49.3407C84.2243 50.2141 83.5184 50.9217 82.6472 50.9217L78.3516 50.9272C78.2248 50.9272 78.0979 50.9272 77.9766 50.9383C71.4368 51.2699 66.3196 56.665 66.3196 63.221V64.5034C66.314 65.3713 65.6082 66.0788 64.737 66.0788ZM78.5777 48.8654C78.3351 48.8654 78.0814 48.8653 77.8553 48.8819C70.2291 49.2689 64.2628 55.565 64.2628 63.2154V64.4979C64.2628 64.7577 64.4778 64.9733 64.737 64.9733C64.9961 64.9733 65.2112 64.7577 65.2112 64.4979V63.2154C65.2112 56.068 70.7861 50.192 77.9049 49.8272C78.0428 49.8161 78.1917 49.8161 78.3351 49.8161H78.5556H82.6417C82.9008 49.8161 83.1159 49.6005 83.1159 49.3407C83.1159 49.0809 82.9008 48.8654 82.6417 48.8654H78.5777Z" fill="#F9A01B"/>
<path d="M88.5695 62.3588C88.178 62.3588 87.825 62.1377 87.6486 61.7894L81.7429 49.8107C81.4892 49.3022 81.6987 48.6886 82.2061 48.4343C82.7189 48.18 83.331 48.3956 83.5791 48.8987L88.564 59.0089L93.5543 48.8821C93.7969 48.3901 94.398 48.1579 94.8998 48.3846C95.4016 48.6112 95.6442 49.175 95.4402 49.6891L89.4903 61.7839C89.3194 62.1377 88.961 62.3588 88.5695 62.3588Z" fill="#F9A01B"/>
<path d="M88.5694 62.9116C87.9684 62.9116 87.4225 62.5744 87.1523 62.0327L81.2466 50.054C80.8606 49.2746 81.1804 48.3238 81.9634 47.9369C82.7464 47.5499 83.6949 47.8761 84.0753 48.6555L88.5639 57.7597L93.058 48.6389C93.433 47.8816 94.3594 47.5389 95.1203 47.8816C95.8978 48.2299 96.2563 49.1143 95.9475 49.8937L89.9811 62.0272C89.7164 62.5744 89.176 62.9116 88.5694 62.9116ZM82.6637 48.8821C82.592 48.8821 82.5203 48.8987 82.4487 48.9319C82.2171 49.048 82.1178 49.3299 82.2336 49.5676L88.1393 61.5462C88.222 61.7066 88.382 61.8116 88.5639 61.8116C88.7459 61.8116 88.9058 61.7121 88.9885 61.5462L94.9384 49.4515C95.0156 49.258 94.9053 49.0037 94.6682 48.8987C94.4366 48.7937 94.1609 48.9042 94.0451 49.1364L88.5639 60.2638L83.0828 49.153C83.0056 48.9761 82.8402 48.8821 82.6637 48.8821Z" fill="#F9A01B"/>
<path d="M88.5804 41.9335C80.9708 41.9335 74.7783 35.7424 74.7783 28.1251C74.7783 20.5079 80.9708 14.3167 88.5804 14.3167C96.1735 14.3167 102.355 20.5079 102.355 28.1251C102.355 35.7424 96.179 41.9335 88.5804 41.9335ZM88.5804 16.3731C82.1012 16.3731 76.8296 21.6466 76.8296 28.1251C76.8296 34.6037 82.1012 39.8772 88.5804 39.8772C95.0431 39.8772 100.304 34.6037 100.304 28.1251C100.304 21.6466 95.0486 16.3731 88.5804 16.3731Z" fill="#F9A01B"/>
<path d="M88.5805 42.4863C80.6675 42.4863 74.2269 36.0464 74.2269 28.1251C74.2269 20.2038 80.6675 13.764 88.5805 13.764C96.4768 13.764 102.906 20.2038 102.906 28.1251C102.906 36.0464 96.4823 42.4863 88.5805 42.4863ZM88.5805 14.8751C81.2741 14.8751 75.3298 20.823 75.3298 28.1307C75.3298 35.4384 81.2741 41.3863 88.5805 41.3863C95.8703 41.3863 101.804 35.4384 101.804 28.1307C101.804 20.823 95.8758 14.8751 88.5805 14.8751ZM88.5805 40.43C81.798 40.43 76.2782 34.9132 76.2782 28.1251C76.2782 21.337 81.798 15.8203 88.5805 15.8203C95.3464 15.8203 100.855 21.337 100.855 28.1251C100.855 34.9132 95.3519 40.43 88.5805 40.43ZM88.5805 16.9259C82.4045 16.9259 77.3811 21.9506 77.3811 28.1251C77.3811 34.2997 82.4045 39.3244 88.5805 39.3244C94.7398 39.3244 99.7523 34.2997 99.7523 28.1251C99.7523 21.9506 94.7398 16.9259 88.5805 16.9259Z" fill="#F9A01B"/>
<path d="M37.5187 53.365H5.64649C5.07853 53.365 4.62085 52.9062 4.62085 52.3368C4.62085 51.7674 5.07853 51.3086 5.64649 51.3086H37.5187C38.0867 51.3086 38.5444 51.7674 38.5444 52.3368C38.5444 52.9062 38.0867 53.365 37.5187 53.365Z" fill="#2D2D82"/>
<path d="M37.5187 53.9178H5.64653C4.77528 53.9178 4.06946 53.2102 4.06946 52.3368C4.06946 51.4634 4.77528 50.7559 5.64653 50.7559H37.5187C38.39 50.7559 39.0958 51.4634 39.0958 52.3368C39.0958 53.2102 38.39 53.9178 37.5187 53.9178ZM5.64653 51.8614C5.38736 51.8614 5.1723 52.077 5.1723 52.3368C5.1723 52.5966 5.38736 52.8122 5.64653 52.8122H37.5187C37.7779 52.8122 37.993 52.5966 37.993 52.3368C37.993 52.077 37.7779 51.8614 37.5187 51.8614H5.64653Z" fill="#2D2D82"/>
<path d="M9.88142 59.2356C9.58917 59.2356 9.30243 59.114 9.09841 58.8708L4.13561 53.0003C3.81027 52.6189 3.81027 52.055 4.13561 51.6681L9.09841 45.8142C9.46234 45.3775 10.113 45.3333 10.5431 45.6981C10.9732 46.0629 11.0284 46.7152 10.6589 47.1464L6.2641 52.3369L10.6644 57.5441C11.0284 57.9753 10.9788 58.6275 10.5431 58.9924C10.3501 59.1582 10.1185 59.2356 9.88142 59.2356Z" fill="#2D2D82"/>
<path d="M9.88146 59.7884C9.41826 59.7884 8.97712 59.5839 8.67936 59.2301L3.71656 53.3596C3.21476 52.7682 3.21476 51.9058 3.71656 51.3144L8.67936 45.4605C8.94955 45.1398 9.32452 44.9464 9.74912 44.9077C10.1737 44.8745 10.5818 45.0017 10.9016 45.278C11.5633 45.8419 11.646 46.8424 11.0836 47.5057L6.98649 52.337L11.0836 57.1849C11.646 57.8482 11.5633 58.8487 10.9016 59.4126C10.6204 59.6558 10.2564 59.7884 9.88146 59.7884ZM9.88146 46.0077C9.86491 46.0077 9.85389 46.0077 9.83734 46.0077C9.71052 46.0188 9.60023 46.074 9.51752 46.1735L4.55472 52.033C4.41135 52.2099 4.41135 52.4697 4.56023 52.6466L9.52303 58.5171C9.61677 58.6276 9.7436 58.6829 9.88697 58.6829C9.96417 58.6829 10.0855 58.6608 10.1903 58.5723C10.3888 58.401 10.4163 58.1025 10.2454 57.9035L5.54176 52.3425L10.2454 46.7927C10.4163 46.5937 10.3888 46.2896 10.1903 46.1238C10.102 46.0464 9.99174 46.0077 9.88146 46.0077Z" fill="#2D2D82"/>
<path d="M120.37 74.6911H88.4757C87.9078 74.6911 87.4501 74.2323 87.4501 73.6629C87.4501 73.0936 87.9078 72.6348 88.4757 72.6348H120.37C120.938 72.6348 121.396 73.0936 121.396 73.6629C121.396 74.2268 120.932 74.6911 120.37 74.6911Z" fill="#F9A01B"/>
<path d="M120.37 75.2439H88.4757C87.6045 75.2439 86.8987 74.5364 86.8987 73.663C86.8987 72.7896 87.6045 72.082 88.4757 72.082H120.37C121.241 72.082 121.947 72.7896 121.947 73.663C121.947 74.5364 121.236 75.2439 120.37 75.2439ZM88.4757 73.1876C88.2166 73.1876 88.0015 73.4032 88.0015 73.663C88.0015 73.9228 88.2166 74.1384 88.4757 74.1384H120.37C120.629 74.1384 120.844 73.9228 120.844 73.663C120.844 73.4032 120.629 73.1876 120.37 73.1876H88.4757Z" fill="#F9A01B"/>
<path d="M116.543 80.5454C116.306 80.5454 116.074 80.4624 115.876 80.3021C115.446 79.9318 115.396 79.285 115.76 78.8539L120.171 73.6633L115.76 68.4561C115.396 68.0249 115.446 67.3727 115.876 67.0078C116.306 66.643 116.957 66.6928 117.321 67.1239L122.3 72.9944C122.625 73.3814 122.625 73.9452 122.3 74.3266L117.321 80.1805C117.122 80.4237 116.835 80.5454 116.543 80.5454Z" fill="#F9A01B"/>
<path d="M116.543 81.098C116.168 81.098 115.804 80.9654 115.523 80.7221C114.861 80.1583 114.784 79.1578 115.341 78.4944L119.449 73.6632L115.341 68.8153C114.779 68.152 114.861 67.1515 115.523 66.5876C115.843 66.3112 116.251 66.1841 116.675 66.2173C117.094 66.2504 117.475 66.4494 117.745 66.77L122.724 72.6405C123.226 73.232 123.226 74.0943 122.724 74.6913L117.745 80.5452C117.442 80.8935 117.006 81.098 116.543 81.098ZM116.543 67.3173C116.433 67.3173 116.322 67.356 116.234 67.4278C116.036 67.5992 116.008 67.8977 116.179 68.0967L120.894 73.6632L116.174 79.2075C116.003 79.4065 116.03 79.705 116.229 79.8764C116.339 79.9704 116.455 79.9925 116.538 79.9925C116.675 79.9925 116.808 79.9317 116.901 79.8266L121.881 73.9727C122.03 73.7958 122.03 73.536 121.881 73.3591L116.901 67.4886C116.819 67.3891 116.703 67.3339 116.582 67.3228C116.571 67.3173 116.56 67.3173 116.543 67.3173Z" fill="#F9A01B"/>
</svg>
