<svg width="154" height="124" viewBox="0 0 154 124" fill="none" xmlns="http://www.w3.org/2000/svg">
<path d="M31 75H123V72.0408H117.568C115.527 72.0408 113.864 70.3872 113.864 68.3491V52.6612C113.864 51.9577 114.43 51.392 115.135 51.392H118.454V48.7737C118.454 45.5752 120.211 42.645 123 41.0856V10.6744C123 5.89478 119.107 2 114.314 2H39.6858C34.8999 2 31 5.88753 31 10.6744V11.2039C33.658 13.1912 37.3836 13.8149 42.3366 13.1041C42.6997 13.0534 43.0701 13.1621 43.3461 13.4015C43.622 13.6408 43.7818 13.989 43.7818 14.3589C43.7818 17.0642 43.8254 19.3198 43.8544 21.2418C44.0578 32.462 43.898 32.8246 35.1686 40.5634C33.9631 41.6369 32.5759 42.8626 31 44.2914V75Z" fill="white"/>
<path d="M124.021 77.3653H29.9793C29.2786 77.3653 28.7151 76.8047 28.7151 76.1076V43.8679C28.7151 43.5157 28.8668 43.1779 29.1269 42.9408C30.8823 41.3525 32.3993 40.0086 33.7141 38.8515C41.6893 31.8085 41.6893 31.8085 41.5087 21.6321C41.4798 20.0654 41.4509 18.2687 41.4365 16.1845C36.1846 16.6948 32.1103 15.6887 29.163 13.202C28.8812 12.9649 28.7151 12.6127 28.7151 12.239V11.1107C28.7151 4.9876 33.7285 0 39.8833 0H114.117C120.279 0 125.285 4.9876 125.285 11.1107V42.0281C125.285 42.5239 124.989 42.9767 124.533 43.1779C122.243 44.1841 120.763 46.4192 120.763 48.8626V52.7147C120.763 53.4118 120.199 53.9724 119.498 53.9724H116.197V68.2597C116.197 68.8921 116.717 69.4024 117.346 69.4024H124.013C124.714 69.4024 125.278 69.9629 125.278 70.66V76.1076C125.285 76.8047 124.721 77.3653 124.021 77.3653ZM31.2435 74.8499H122.756V71.9177H117.353C115.323 71.9177 113.669 70.2791 113.669 68.2597V52.7147C113.669 52.0176 114.232 51.4571 114.933 51.4571H118.234V48.8626C118.234 45.6933 119.982 42.7898 122.756 41.2447V11.1107C122.756 6.37464 118.884 2.51536 114.117 2.51536H39.8833C35.1155 2.51536 31.2435 6.36745 31.2435 11.1107V11.6353C33.8874 13.6045 37.5933 14.2226 42.52 13.5183C42.8812 13.468 43.2497 13.5758 43.5242 13.8129C43.7987 14.0501 43.9576 14.395 43.9576 14.7616C43.9576 17.4422 44.0009 19.6773 44.0298 21.5818C44.2321 32.6997 44.0732 33.059 35.39 40.7273C34.1908 41.7909 32.8111 43.0055 31.2435 44.4212V74.8499Z" fill="#2D2D82"/>
<path d="M136.496 71.9178H117.353C115.323 71.9178 113.669 70.2792 113.669 68.2598V52.7148C113.669 52.0177 114.232 51.4572 114.933 51.4572H139.068C139.769 51.4572 140.332 52.0177 140.332 52.7148V68.1016C140.34 70.2074 138.613 71.9178 136.496 71.9178ZM116.204 53.9725V68.2598C116.204 68.8922 116.724 69.4024 117.353 69.4024H136.496C137.219 69.4024 137.811 68.8203 137.811 68.1016V53.9725H116.204Z" fill="#B91E73"/>
<path d="M134.503 53.9724H119.499C118.798 53.9724 118.234 53.4118 118.234 52.7147V48.8626C118.234 44.0619 122.164 40.1523 126.997 40.1523C131.83 40.1523 135.767 44.0619 135.767 48.8626V52.7147C135.767 53.4118 135.203 53.9724 134.503 53.9724ZM120.763 51.457H133.238V48.8626C133.238 45.4489 130.443 42.6676 127.004 42.6676C123.566 42.6676 120.77 45.4417 120.77 48.8626V51.457H120.763Z" fill="#B91E73"/>
<path d="M123.06 66.8152C122.735 66.8152 122.41 66.6858 122.157 66.4415C121.666 65.9456 121.673 65.1479 122.171 64.6663L130.06 56.9262C130.551 56.4375 131.36 56.4447 131.844 56.9406C132.335 57.4365 132.328 58.2342 131.83 58.7157L123.941 66.4558C123.703 66.693 123.378 66.8152 123.06 66.8152Z" fill="#B91E73"/>
<path d="M130.941 66.8151C130.623 66.8151 130.298 66.6929 130.053 66.4558L122.179 58.7156C121.68 58.2269 121.68 57.4292 122.164 56.9333C122.655 56.4375 123.457 56.4303 123.956 56.919L131.83 64.6591C132.328 65.1478 132.328 65.9455 131.844 66.4414C131.591 66.6929 131.266 66.8151 130.941 66.8151Z" fill="#B91E73"/>
<path d="M29.9938 45.1256C29.6904 45.1256 29.387 45.0178 29.1414 44.8022C27.256 43.0989 25.6378 41.7047 24.2652 40.5045C15.9433 33.2746 15.7916 32.9009 15.9071 20.3457C15.9216 18.7143 15.936 16.8673 15.936 14.7616C15.936 14.3879 16.1022 14.0357 16.3911 13.7986C16.6801 13.5614 17.063 13.468 17.4314 13.5255C21.8236 14.3304 25.7028 13.5614 29.2931 11.1898C29.7627 10.8807 30.3839 10.9167 30.8101 11.276C33.4758 13.5255 37.3117 14.2585 42.5201 13.5183C42.8813 13.468 43.2498 13.5758 43.5243 13.8129C43.7988 14.0501 43.9577 14.3951 43.9577 14.7616C43.9577 17.4422 44.0011 19.6845 44.03 21.5818C44.2322 32.7069 44.0733 33.059 35.3973 40.7273C34.0898 41.8843 32.5872 43.2139 30.8463 44.795C30.6006 45.0178 30.2972 45.1256 29.9938 45.1256ZM18.4644 16.2205C18.4572 17.7441 18.45 19.1239 18.4355 20.3744C18.3272 32.0026 18.3272 32.0026 25.934 38.6072C27.1115 39.6277 28.4551 40.792 29.9938 42.1718C31.3881 40.9141 32.6306 39.8146 33.7286 38.8515C41.7038 31.8085 41.7038 31.8085 41.516 21.6321C41.4871 20.0654 41.4582 18.2687 41.4438 16.1846C36.6182 16.6589 32.8039 15.8396 29.9216 13.777C26.4252 15.8612 22.6037 16.6804 18.4644 16.2205Z" fill="#B91E73"/>
<path d="M76.7543 35.2942C70.9896 35.2942 66.3013 30.63 66.3013 24.9021C66.3013 19.1671 70.9896 14.4957 76.7543 14.4957C82.519 14.4957 87.2146 19.1671 87.2146 24.9021C87.2146 30.63 82.519 35.2942 76.7543 35.2942ZM76.7543 17.0111C72.3838 17.0111 68.8296 20.547 68.8296 24.9021C68.8296 29.2429 72.3838 32.7788 76.7543 32.7788C81.1248 32.7788 84.6862 29.2429 84.6862 24.9021C84.679 20.547 81.1248 17.0111 76.7543 17.0111Z" fill="#2D2D82"/>
<path d="M93.8679 62.8624C93.1672 62.8624 92.6037 62.3018 92.6037 61.6047V48.0433C92.6037 43.3647 88.775 39.5629 84.0722 39.5629H69.9422C65.2394 39.5629 61.4107 43.3647 61.4107 48.0433V61.6047C61.4107 62.3018 60.8472 62.8624 60.1465 62.8624C59.4458 62.8624 58.8823 62.3018 58.8823 61.6047V48.0433C58.8823 41.9777 63.8452 37.0404 69.9422 37.0404H84.0722C90.1692 37.0404 95.1321 41.9777 95.1321 48.0433V61.6047C95.1321 62.2946 94.5686 62.8624 93.8679 62.8624ZM87.742 62.8624C87.0413 62.8624 86.4778 62.3018 86.4778 61.6047V54.1808C86.4778 53.4837 87.0413 52.9231 87.742 52.9231C88.4427 52.9231 89.0062 53.4837 89.0062 54.1808V61.5975C89.0062 62.2946 88.4427 62.8624 87.742 62.8624ZM66.258 62.8624C65.5572 62.8624 64.9938 62.3018 64.9938 61.6047V54.1808C64.9938 53.4837 65.5572 52.9231 66.258 52.9231C66.9587 52.9231 67.5222 53.4837 67.5222 54.1808V61.5975C67.5222 62.2946 66.9587 62.8624 66.258 62.8624Z" fill="#2D2D82"/>
<path d="M77.0071 57.8102C76.3064 57.8102 75.7429 57.2497 75.7429 56.5526V44.2129H73.5252C72.8245 44.2129 72.261 43.6524 72.261 42.9553C72.261 42.2581 72.8245 41.6976 73.5252 41.6976H80.4818C81.1826 41.6976 81.746 42.2581 81.746 42.9553C81.746 43.6524 81.1826 44.2129 80.4818 44.2129H78.2713V56.5454C78.2713 57.2425 77.7006 57.8102 77.0071 57.8102Z" fill="#2D2D82"/>
<path d="M93.8679 62.8625H60.1465C59.4458 62.8625 58.8823 62.3019 58.8823 61.6048C58.8823 60.9077 59.4458 60.3471 60.1465 60.3471H93.8679C94.5686 60.3471 95.1321 60.9077 95.1321 61.6048C95.1321 62.2947 94.5686 62.8625 93.8679 62.8625Z" fill="#2D2D82"/>
<path d="M152.736 77.3652H1.26419C0.563468 77.3652 0 76.8046 0 76.1075C0 75.4104 0.563468 74.8499 1.26419 74.8499H152.736C153.437 74.8499 154 75.4104 154 76.1075C154 76.8046 153.437 77.3652 152.736 77.3652Z" fill="#2D2D82"/>
<path d="M152.736 86.6435H1.26419C0.563468 86.6435 0 86.0829 0 85.3858C0 84.6887 0.563468 84.1281 1.26419 84.1281H152.736C153.437 84.1281 154 84.6887 154 85.3858C154 86.0829 153.437 86.6435 152.736 86.6435Z" fill="#2D2D82"/>
<path d="M29.9793 120.838C29.2786 120.838 28.7151 120.277 28.7151 119.58V100.413C28.7151 99.716 29.2786 99.1555 29.9793 99.1555C30.68 99.1555 31.2435 99.716 31.2435 100.413V119.58C31.2435 120.27 30.68 120.838 29.9793 120.838Z" fill="#B91E73"/>
<path d="M41.74 124C41.0393 124 40.4758 123.439 40.4758 122.742V91.365C40.4758 90.6679 41.0393 90.1073 41.74 90.1073C42.4407 90.1073 43.0042 90.6679 43.0042 91.365V122.742C43.0042 123.439 42.4335 124 41.74 124Z" fill="#B91E73"/>
<path d="M53.4932 104.014C52.7925 104.014 52.229 103.453 52.229 102.756V91.365C52.229 90.6679 52.7925 90.1073 53.4932 90.1073C54.1939 90.1073 54.7574 90.6679 54.7574 91.365V102.756C54.7574 103.453 54.1939 104.014 53.4932 104.014Z" fill="#B91E73"/>
<path d="M65.2539 124C64.5532 124 63.9897 123.439 63.9897 122.742V91.365C63.9897 90.6679 64.5532 90.1073 65.2539 90.1073C65.9547 90.1073 66.5181 90.6679 66.5181 91.365V122.742C66.5181 123.439 65.9474 124 65.2539 124Z" fill="#B91E73"/>
<path d="M77.0071 120.838C76.3064 120.838 75.7429 120.277 75.7429 119.58V100.413C75.7429 99.716 76.3064 99.1555 77.0071 99.1555C77.7078 99.1555 78.2713 99.716 78.2713 100.413V119.58C78.2713 120.27 77.7006 120.838 77.0071 120.838Z" fill="#B91E73"/>
<path d="M88.7605 124C88.0598 124 87.4963 123.439 87.4963 122.742V91.365C87.4963 90.6679 88.0598 90.1073 88.7605 90.1073C89.4613 90.1073 90.0247 90.6679 90.0247 91.365V122.742C90.0247 123.439 89.4613 124 88.7605 124Z" fill="#B91E73"/>
<path d="M100.507 111.768C99.8059 111.768 99.2424 111.208 99.2424 110.51V91.365C99.2424 90.6679 99.8059 90.1073 100.507 90.1073C101.207 90.1073 101.771 90.6679 101.771 91.365V110.51C101.771 111.208 101.207 111.768 100.507 111.768Z" fill="#B91E73"/>
<path d="M112.267 124C111.567 124 111.003 123.439 111.003 122.742V106.083C111.003 105.386 111.567 104.826 112.267 104.826C112.968 104.826 113.532 105.386 113.532 106.083V122.742C113.532 123.439 112.968 124 112.267 124Z" fill="#B91E73"/>
<path d="M124.021 115.548C123.32 115.548 122.756 114.988 122.756 114.291V91.365C122.756 90.6679 123.32 90.1073 124.021 90.1073C124.721 90.1073 125.285 90.6679 125.285 91.365V114.291C125.285 114.988 124.721 115.548 124.021 115.548Z" fill="#B91E73"/>
<path d="M29.9793 98.947C29.2786 98.947 28.7151 98.3864 28.7151 97.6893V91.365C28.7151 90.6679 29.2786 90.1073 29.9793 90.1073C30.68 90.1073 31.2435 90.6679 31.2435 91.365V97.6893C31.2435 98.3864 30.68 98.947 29.9793 98.947Z" fill="#2D2D82"/>
<path d="M53.4932 120.838C52.7925 120.838 52.229 120.277 52.229 119.58V113.234C52.229 112.537 52.7925 111.977 53.4932 111.977C54.1939 111.977 54.7574 112.537 54.7574 113.234V119.58C54.7574 120.27 54.1939 120.838 53.4932 120.838Z" fill="#B91E73"/>
<path d="M77.0071 98.947C76.3064 98.947 75.7429 98.3864 75.7429 97.6893V91.365C75.7429 90.6679 76.3064 90.1073 77.0071 90.1073C77.7078 90.1073 78.2713 90.6679 78.2713 91.365V97.6893C78.2713 98.3864 77.7006 98.947 77.0071 98.947Z" fill="#2D2D82"/>
<path d="M100.507 120.838C99.8059 120.838 99.2424 120.277 99.2424 119.58V113.234C99.2424 112.537 99.8059 111.977 100.507 111.977C101.207 111.977 101.771 112.537 101.771 113.234V119.58C101.771 120.27 101.207 120.838 100.507 120.838Z" fill="#B91E73"/>
<path d="M25.7245 31.4276C25.58 31.4276 25.4356 31.3988 25.2911 31.3485C24.9588 31.2263 24.6915 30.9748 24.5542 30.6442L22.0909 24.7367C21.8236 24.0971 22.127 23.3569 22.7772 23.0909C23.4201 22.825 24.1642 23.1269 24.4314 23.7737L26.3675 28.4091L37.644 22.5304C38.2653 22.2142 39.031 22.4441 39.3489 23.0622C39.674 23.6803 39.4356 24.4349 38.8143 24.7583L26.3097 31.2766C26.1291 31.3773 25.9268 31.4276 25.7245 31.4276Z" fill="#B91E73"/>
<path d="M53.4932 111.129C52.7925 111.129 52.229 110.568 52.229 109.871V106.256C52.229 105.559 52.7925 104.998 53.4932 104.998C54.1939 104.998 54.7574 105.559 54.7574 106.256V109.871C54.7574 110.561 54.1939 111.129 53.4932 111.129Z" fill="#B91E73"/>
<path d="M112.267 104.927C111.567 104.927 111.003 104.366 111.003 103.669V97.3301C111.003 96.633 111.567 96.0724 112.267 96.0724C112.968 96.0724 113.532 96.633 113.532 97.3301V103.669C113.532 104.366 112.968 104.927 112.267 104.927Z" fill="#B91E73"/>
<path d="M112.267 95.8494C111.567 95.8494 111.003 95.2889 111.003 94.5917V91.293C111.003 90.5959 111.567 90.0353 112.267 90.0353C112.968 90.0353 113.532 90.5959 113.532 91.293V94.5917C113.532 95.2817 112.968 95.8494 112.267 95.8494Z" fill="#2D2D82"/>
</svg>
