<svg width="130" height="120" viewBox="0 0 130 120" fill="none" xmlns="http://www.w3.org/2000/svg">
<path d="M129 23.6218H50.8871L40.732 16H1V96.3273H34.3144L31.9793 98.1673L33.6388 101.018L42.6191 97.5127C43.1404 97.3018 43.7205 97.4618 44.073 97.8909C45.3212 99.4036 46.6797 100.756 48.1189 101.905C48.5594 102.255 48.7136 102.836 48.508 103.353L44.9761 112.247L47.8545 113.891L53.8609 106.422C54.2061 105.985 54.7935 105.833 55.3148 106.029C57.1138 106.713 58.9715 107.207 60.8293 107.484C61.3873 107.571 61.8132 107.993 61.9013 108.545L63.3405 117.993H66.6595L68.0987 108.538C68.1794 107.985 68.6127 107.564 69.1634 107.476C71.0358 107.193 72.8935 106.705 74.6705 106.022C75.1845 105.825 75.7866 105.985 76.1244 106.415L82.1308 113.884L85.0092 112.24L81.4773 103.345C81.2717 102.829 81.4259 102.247 81.8664 101.898C83.3056 100.749 84.6714 99.3964 85.9197 97.8836C86.2648 97.4545 86.8669 97.3018 87.3736 97.5054L96.3538 101.011L98.0133 98.16L95.6783 96.32H128.993V23.6218H129Z" fill="white"/>
<path d="M128.752 98.2876H98.8822C98.2942 98.2876 97.8137 97.8107 97.8137 97.211C97.8137 96.6185 98.287 96.1344 98.8822 96.1344H127.683V2.32659H2.30917V96.1416H31.0961C31.6841 96.1416 32.1646 96.6185 32.1646 97.2182C32.1646 97.8107 31.6913 98.2948 31.0961 98.2948H1.24777C0.659698 98.2948 0.179199 97.8179 0.179199 97.2182V1.25722C0.179199 0.664738 0.659698 0.180634 1.24777 0.180634H128.752C129.34 0.180634 129.821 0.657512 129.821 1.25722V97.2182C129.821 97.8107 129.34 98.2876 128.752 98.2876Z" fill="#2D2D82"/>
<path d="M128.752 98.4682H98.8823C98.1939 98.4682 97.6345 97.9046 97.6345 97.211C97.6345 96.5173 98.1939 95.9538 98.8823 95.9538H127.504V2.50723H2.48855V95.961H31.0962C31.7846 95.961 32.3368 96.5246 32.3368 97.2182C32.3368 97.9118 31.7775 98.4754 31.0962 98.4754H1.24786C0.559387 98.4754 0 97.9118 0 97.2182V1.25723C0 0.563584 0.559387 0 1.24786 0H128.752C129.441 0 130 0.563584 130 1.25723V97.2182C130 97.9046 129.441 98.4682 128.752 98.4682ZM98.8823 96.3223C98.3947 96.3223 97.993 96.7197 97.993 97.2182C97.993 97.7168 98.3875 98.1142 98.8823 98.1142H128.752C129.24 98.1142 129.641 97.7168 129.641 97.2182V1.25723C129.641 0.765896 129.247 0.361272 128.752 0.361272H1.24786C0.75302 0.361272 0.358581 0.758671 0.358581 1.25723V97.2182C0.358581 97.7095 0.75302 98.1142 1.24786 98.1142H31.1033C31.591 98.1142 31.9854 97.7168 31.9854 97.2182C31.9854 96.7197 31.591 96.3223 31.1033 96.3223H2.12997V2.14595H127.863V96.3223H98.8823Z" fill="#2D2D82"/>
<path d="M127.877 23.5478H51.2126C51.0046 23.5478 50.8109 23.49 50.6316 23.3744L41.3516 17.3412H2.33078C1.74271 17.3412 1.26221 16.8643 1.26221 16.2646C1.26221 15.6721 1.73553 15.188 2.33078 15.188H41.66C41.8679 15.188 42.0616 15.2458 42.2337 15.3614L51.5209 21.3946H127.87C128.458 21.3946 128.939 21.8715 128.939 22.4712C128.939 23.0637 128.465 23.5478 127.877 23.5478Z" fill="#2D2D82"/>
<path d="M127.877 23.7285H51.2198C50.9831 23.7285 50.7465 23.6562 50.5457 23.5261L41.3015 17.5218H2.33087C1.64239 17.5218 1.08301 16.9582 1.08301 16.2646C1.08301 15.5709 1.64239 15.0074 2.33087 15.0074H41.66C41.8967 15.0074 42.1334 15.0796 42.3342 15.2097L51.5784 21.214H127.87C128.559 21.214 129.118 21.7776 129.118 22.4712C129.118 23.1649 128.559 23.7285 127.877 23.7285ZM2.33087 15.3759C1.8432 15.3759 1.44159 15.7733 1.44159 16.2718C1.44159 16.7704 1.83603 17.1678 2.33087 17.1678H41.4019L41.4449 17.1967L50.7321 23.2299C50.8756 23.3238 51.0405 23.3744 51.2126 23.3744H127.87C128.358 23.3744 128.759 22.977 128.759 22.4785C128.759 21.9799 128.365 21.5825 127.87 21.5825H51.478L51.435 21.5536L42.1477 15.5204C42.0043 15.4264 41.8393 15.3759 41.6672 15.3759H2.33087Z" fill="#2D2D82"/>
<path d="M106.097 13.5694H101.866C101.278 13.5694 100.797 13.0925 100.797 12.4928C100.797 11.8931 101.27 11.4162 101.866 11.4162H106.097C106.685 11.4162 107.166 11.8931 107.166 12.4928C107.166 13.0925 106.685 13.5694 106.097 13.5694Z" fill="#2D2D82"/>
<path d="M106.097 13.7501H101.866C101.177 13.7501 100.618 13.1865 100.618 12.4928C100.618 11.7992 101.177 11.2356 101.866 11.2356H106.097C106.786 11.2356 107.345 11.7992 107.345 12.4928C107.338 13.1865 106.786 13.7501 106.097 13.7501ZM101.866 11.6041C101.378 11.6041 100.977 12.0015 100.977 12.5001C100.977 12.9986 101.371 13.396 101.866 13.396H106.097C106.585 13.396 106.986 12.9986 106.986 12.5001C106.986 12.0015 106.592 11.6041 106.097 11.6041H101.866Z" fill="#2D2D82"/>
<path d="M114.595 13.5694H110.385C109.797 13.5694 109.317 13.0925 109.317 12.4928C109.317 11.8931 109.797 11.4162 110.385 11.4162H114.595C115.183 11.4162 115.664 11.8931 115.664 12.4928C115.664 13.0925 115.183 13.5694 114.595 13.5694Z" fill="#2D2D82"/>
<path d="M114.595 13.7501H110.386C109.697 13.7501 109.138 13.1865 109.138 12.4928C109.138 11.7992 109.697 11.2356 110.386 11.2356H114.595C115.284 11.2356 115.843 11.7992 115.843 12.4928C115.836 13.1865 115.284 13.7501 114.595 13.7501ZM110.386 11.6041C109.898 11.6041 109.496 12.0015 109.496 12.5001C109.496 12.9986 109.891 13.396 110.386 13.396H114.595C115.083 13.396 115.485 12.9986 115.485 12.5001C115.485 12.0015 115.09 11.6041 114.595 11.6041H110.386Z" fill="#2D2D82"/>
<path d="M123.094 13.5694H118.884C118.296 13.5694 117.815 13.0925 117.815 12.4928C117.815 11.8931 118.289 11.4162 118.884 11.4162H123.094C123.682 11.4162 124.162 11.8931 124.162 12.4928C124.162 13.0925 123.682 13.5694 123.094 13.5694Z" fill="#2D2D82"/>
<path d="M123.094 13.7501H118.884C118.196 13.7501 117.636 13.1865 117.636 12.4928C117.636 11.7992 118.196 11.2356 118.884 11.2356H123.094C123.782 11.2356 124.342 11.7992 124.342 12.4928C124.335 13.1865 123.775 13.7501 123.094 13.7501ZM118.884 11.6041C118.396 11.6041 117.995 12.0015 117.995 12.5001C117.995 12.9986 118.389 13.396 118.884 13.396H123.094C123.582 13.396 123.983 12.9986 123.983 12.5001C123.983 12.0015 123.589 11.6041 123.094 11.6041H118.884Z" fill="#2D2D82"/>
<path d="M67.6856 119.819H62.3068C61.7833 119.819 61.3315 119.429 61.2526 118.902L59.7968 109.212C58.3266 108.945 56.8708 108.555 55.4436 108.042L49.3908 115.701C49.0609 116.113 48.48 116.228 48.0281 115.961L43.3594 113.251C42.9004 112.984 42.7068 112.42 42.9004 111.929L46.4647 102.811C45.346 101.85 44.2774 100.766 43.2734 99.588L34.2156 103.179C33.7279 103.381 33.1685 103.179 32.9032 102.717L30.2138 98.0057C29.9485 97.5432 30.0632 96.958 30.472 96.6328L38.0739 90.549C37.5647 89.0967 37.1775 87.6227 36.9121 86.1487L27.295 84.6819C26.7715 84.6025 26.3914 84.1545 26.3914 83.6198V80.9103C26.3914 80.3178 26.8647 79.8337 27.4599 79.8337C28.048 79.8337 28.5285 80.3106 28.5285 80.9103V82.695L38.0022 84.14C38.4612 84.2123 38.827 84.5736 38.8987 85.0432C39.1784 86.8713 39.6589 88.721 40.3402 90.5201C40.5051 90.9536 40.3689 91.4522 40.0103 91.7412L32.5303 97.7311L34.3017 100.838L43.216 97.2976C43.6463 97.1242 44.1411 97.2542 44.4352 97.6155C45.6615 99.1328 46.9954 100.484 48.4154 101.633C48.7812 101.929 48.9103 102.428 48.7381 102.861L45.2312 111.842L48.315 113.627L54.2746 106.084C54.5615 105.715 55.0563 105.585 55.4938 105.751C57.2652 106.438 59.0868 106.929 60.9156 107.204C61.3745 107.276 61.7403 107.637 61.812 108.107L63.2463 117.652H66.7891L68.2234 108.107C68.2952 107.644 68.6537 107.276 69.1127 107.204C70.9558 106.922 72.7774 106.431 74.5345 105.751C74.9648 105.585 75.4596 105.715 75.7536 106.084L81.7204 113.627L84.7971 111.842L81.2901 102.861C81.118 102.428 81.2471 101.929 81.6129 101.633C83.0257 100.484 84.3668 99.1328 85.6003 97.6155C85.8943 97.2542 86.3892 97.1169 86.8195 97.2976L95.7338 100.838L97.5052 97.7311L90.0037 91.7195C89.6379 91.4233 89.5016 90.9247 89.6738 90.484C90.3622 88.7282 90.8499 86.8929 91.1296 85.036C91.2013 84.5736 91.5599 84.2051 92.0261 84.1328L101.5 82.6877V80.9031C101.5 80.3106 101.973 79.8265 102.568 79.8265C103.156 79.8265 103.637 80.3033 103.637 80.9031V83.6126C103.637 84.14 103.25 84.5952 102.733 84.6747L93.1161 86.1415C92.8508 87.6299 92.4564 89.1039 91.9472 90.5273L99.5563 96.6256C99.9722 96.958 100.08 97.5432 99.8144 97.9984L97.1251 102.709C96.8597 103.172 96.3003 103.367 95.8127 103.172L86.7549 99.5808C85.7509 100.759 84.6823 101.842 83.5635 102.803L87.1207 111.922C87.3143 112.42 87.1207 112.977 86.6617 113.244L81.993 115.954C81.5411 116.221 80.9602 116.105 80.6303 115.694L74.5775 108.035C73.1575 108.54 71.7017 108.938 70.2243 109.205L68.7685 118.894C68.6609 119.429 68.2163 119.819 67.6856 119.819ZM64.9962 95.8742C56.8134 95.8742 50.1509 89.1617 50.1509 80.9103C50.1509 80.3178 50.6243 79.8337 51.2195 79.8337C51.8148 79.8337 52.2881 80.3106 52.2881 80.9103C52.2881 87.9768 57.9895 93.721 65.0034 93.721C72.0172 93.721 77.7187 87.9768 77.7187 80.9103C77.7187 80.3178 78.192 79.8337 78.7872 79.8337C79.3825 79.8337 79.8558 80.3106 79.8558 80.9103C79.8415 89.1617 73.1862 95.8742 64.9962 95.8742Z" fill="#B91E73"/>
<path d="M67.6856 120H62.3069C61.683 120 61.1666 119.552 61.0806 118.931L59.6463 109.371C58.255 109.111 56.8637 108.735 55.5082 108.259L49.5343 115.816C49.1542 116.293 48.4657 116.431 47.9422 116.12L43.2663 113.41C42.7284 113.1 42.5061 112.449 42.7284 111.864L46.2425 102.861C45.1883 101.944 44.1699 100.91 43.2161 99.7976L34.2802 103.345C33.7137 103.576 33.0539 103.345 32.7455 102.803L30.0561 98.0924C29.7549 97.5577 29.884 96.864 30.3645 96.4883L37.866 90.484C37.3927 89.1039 37.0198 87.7022 36.7616 86.3077L27.2736 84.8626C26.6711 84.7687 26.2122 84.2412 26.2122 83.6198V80.9103C26.2122 80.2166 26.7715 79.653 27.46 79.653C28.1485 79.653 28.7079 80.2166 28.7079 80.9103V82.5432L38.031 83.9666C38.576 84.0461 38.992 84.4724 39.0781 85.0143C39.3577 86.8351 39.8382 88.6704 40.5124 90.4551C40.706 90.9681 40.5482 91.5389 40.1251 91.8857L32.767 97.7817L34.3878 100.614L43.1587 97.1314C43.6679 96.9218 44.2344 97.0808 44.5787 97.5071C45.7979 99.01 47.1246 100.354 48.5302 101.496C48.9605 101.842 49.1111 102.42 48.9103 102.933L45.4608 111.77L48.2721 113.403L54.1385 105.983C54.4755 105.549 55.0493 105.397 55.5584 105.592C57.3155 106.272 59.1299 106.763 60.9443 107.037C61.4894 107.124 61.9053 107.543 61.9914 108.092L63.397 117.478H66.6386L68.0442 108.085C68.1231 107.536 68.5462 107.117 69.0841 107.03C70.9129 106.748 72.7273 106.264 74.4628 105.585C74.9648 105.39 75.5529 105.549 75.8828 105.975L81.7492 113.396L84.5605 111.763L81.1109 102.926C80.9101 102.413 81.0607 101.835 81.491 101.488C82.8967 100.347 84.2306 99.0028 85.4498 97.4999C85.7868 97.0736 86.3749 96.9218 86.8697 97.1241L95.6406 100.607L97.2614 97.7744L89.8818 91.864C89.4587 91.5244 89.3009 90.932 89.5017 90.4262C90.183 88.6776 90.6707 86.8568 90.9504 85.0143C91.0293 84.4652 91.4524 84.0461 91.9903 83.9594L101.313 82.536V80.9031C101.313 80.2094 101.873 79.6458 102.561 79.6458C103.25 79.6458 103.809 80.2094 103.809 80.9031V83.6126C103.809 84.2268 103.357 84.7614 102.748 84.8554L93.2597 86.3005C93.0015 87.7094 92.6286 89.1111 92.1481 90.4695L99.6567 96.4883C100.137 96.8713 100.266 97.5649 99.958 98.0924L97.2686 102.803C96.9602 103.338 96.3004 103.569 95.7339 103.345L86.798 99.7976C85.8442 100.91 84.8258 101.936 83.7644 102.861L87.2785 111.864C87.508 112.449 87.2785 113.1 86.7406 113.41L82.0719 116.12C81.5341 116.431 80.8671 116.3 80.4798 115.816L74.5059 108.259C73.1576 108.735 71.7735 109.104 70.375 109.371L68.9407 118.931C68.8259 119.537 68.3024 120 67.6856 120ZM55.3863 107.832L55.5082 107.876C56.921 108.381 58.3769 108.772 59.8399 109.039L59.969 109.061L61.4392 118.873C61.5037 119.313 61.8766 119.631 62.3141 119.631H67.6928C68.1303 119.631 68.5032 119.306 68.5678 118.873L70.0379 109.061L70.167 109.039C71.63 108.772 73.0859 108.381 74.4915 107.876L74.6134 107.832L80.7452 115.592C81.0249 115.939 81.4982 116.033 81.8783 115.809L86.547 113.1C86.9343 112.876 87.0921 112.413 86.9271 112.001L83.3198 102.76L83.4202 102.673C84.5318 101.72 85.6004 100.643 86.5972 99.4724L86.6833 99.3713L95.8558 103.013C96.2646 103.172 96.7307 103.006 96.9459 102.63L99.6352 97.9189C99.8504 97.536 99.7571 97.0447 99.4201 96.7773L91.7106 90.5996L91.7536 90.4768C92.2628 89.0606 92.6501 87.5938 92.9154 86.1198L92.9369 85.9898L102.683 84.5013C103.113 84.4363 103.436 84.0533 103.436 83.6198V80.9103C103.436 80.4189 103.042 80.0143 102.547 80.0143C102.052 80.0143 101.658 80.4117 101.658 80.9103V82.8539L92.0261 84.3207C91.6389 84.3785 91.3377 84.682 91.2803 85.0721C91.0006 86.9363 90.5058 88.786 89.8173 90.5635C89.6738 90.9247 89.7886 91.3438 90.0898 91.5895L97.7132 97.695L95.7841 101.069L86.7263 97.471C86.3749 97.3265 85.9589 97.4348 85.7151 97.7383C84.4816 99.2629 83.1262 100.628 81.7062 101.785C81.405 102.03 81.2974 102.442 81.4408 102.811L85.0051 111.936L81.656 113.88L75.596 106.214C75.3593 105.917 74.9433 105.802 74.5848 105.939C72.8205 106.626 70.9846 107.117 69.1271 107.406C68.7399 107.464 68.4458 107.767 68.3885 108.157L66.9326 117.854H63.0743L61.6185 108.157C61.5611 107.767 61.2599 107.464 60.8726 107.406C59.0295 107.124 57.1936 106.633 55.4078 105.939C55.0493 105.802 54.6333 105.91 54.3966 106.214L48.3366 113.88L44.9875 111.936L48.5518 102.811C48.6952 102.442 48.5876 102.03 48.2792 101.785C46.8521 100.628 45.5038 99.2701 44.2703 97.7455C44.0265 97.4421 43.6177 97.3337 43.2591 97.4782L34.2013 101.076L32.2722 97.7022L39.8741 91.6111C40.1753 91.3655 40.2901 90.9609 40.1538 90.5924C39.4725 88.7788 38.9776 86.9218 38.698 85.0721C38.6406 84.682 38.3394 84.3785 37.9521 84.3207L28.3278 82.8539V80.9103C28.3278 80.4189 27.9333 80.0143 27.4385 80.0143C26.9437 80.0143 26.5492 80.4117 26.5492 80.9103V83.6198C26.5492 84.0606 26.8719 84.4363 27.3022 84.5013L37.0485 85.9825L37.07 86.1126C37.3353 87.5721 37.7226 89.0461 38.2246 90.484L38.2677 90.6068L30.5653 96.7701C30.2283 97.0447 30.135 97.536 30.3502 97.9117L33.0395 102.623C33.2619 103.006 33.728 103.172 34.1296 103.006L43.3021 99.364L43.3882 99.4652C44.385 100.636 45.4536 101.712 46.5581 102.666L46.6585 102.753L43.0511 111.994C42.8934 112.406 43.0511 112.876 43.4312 113.092L48.1 115.802C48.4729 116.019 48.9677 115.925 49.2331 115.585L55.3863 107.832ZM64.9963 96.0548C56.7131 96.0548 49.9717 89.2629 49.9717 80.9103C49.9717 80.2166 50.5311 79.653 51.2196 79.653C51.9081 79.653 52.4675 80.2166 52.4675 80.9103C52.4675 87.8756 58.09 93.5403 65.0035 93.5403C71.9169 93.5403 77.5395 87.8756 77.5395 80.9103C77.5395 80.2166 78.0988 79.653 78.7873 79.653C79.4758 79.653 80.0352 80.2166 80.0352 80.9103C80.0208 89.2629 73.2795 96.0548 64.9963 96.0548ZM51.2196 80.0215C50.7319 80.0215 50.3303 80.4189 50.3303 80.9175C50.3303 89.0678 56.9067 95.7007 64.9963 95.7007C73.0859 95.7007 79.6623 89.0678 79.6623 80.9175C79.6623 80.4262 79.2678 80.0215 78.773 80.0215C78.2781 80.0215 77.8837 80.4189 77.8837 80.9175C77.8837 88.0851 72.0962 93.9088 64.9891 93.9088C57.882 93.9088 52.0945 88.0779 52.0945 80.9175C52.1017 80.4262 51.7073 80.0215 51.2196 80.0215Z" fill="#B91E73"/>
<path d="M114.23 81.9869H15.7632C15.1751 81.9869 14.6946 81.51 14.6946 80.9103C14.6946 80.3106 15.1679 79.8337 15.7632 79.8337H114.222C114.81 79.8337 115.291 80.3106 115.291 80.9103C115.291 81.51 114.818 81.9869 114.23 81.9869Z" fill="#2D2D82"/>
<path d="M114.23 82.1676H15.7632C15.0747 82.1676 14.5225 81.604 14.5225 80.9103C14.5225 80.2167 15.0818 79.6531 15.7632 79.6531H114.222C114.911 79.6531 115.47 80.2167 115.47 80.9103C115.47 81.604 114.911 82.1676 114.23 82.1676ZM15.7632 80.0216C15.2755 80.0216 14.881 80.419 14.881 80.9176C14.881 81.4161 15.2755 81.8135 15.7632 81.8135H114.222C114.71 81.8135 115.112 81.4161 115.112 80.9176C115.112 80.419 114.717 80.0216 114.222 80.0216H15.7632Z" fill="#2D2D82"/>
<path d="M83.5636 36.4956H31.4904C30.9024 36.4956 30.4219 36.0187 30.4219 35.419C30.4219 34.8193 30.8952 34.3424 31.4904 34.3424H83.5636C84.1517 34.3424 84.6322 34.8193 84.6322 35.419C84.6322 36.0187 84.1517 36.4956 83.5636 36.4956Z" fill="#2D2D82"/>
<path d="M83.5637 36.6762H31.4905C30.8021 36.6762 30.2427 36.1126 30.2427 35.419C30.2427 34.7254 30.8021 34.1618 31.4905 34.1618H83.5637C84.2522 34.1618 84.8116 34.7254 84.8116 35.419C84.8116 36.1126 84.2522 36.6762 83.5637 36.6762ZM31.4905 34.5303C31.0029 34.5303 30.6013 34.9277 30.6013 35.4262C30.6013 35.9248 30.9957 36.3222 31.4905 36.3222H83.5637C84.0514 36.3222 84.453 35.9248 84.453 35.4262C84.453 34.9277 84.0585 34.5303 83.5637 34.5303H31.4905Z" fill="#2D2D82"/>
<path d="M98.4806 36.4956H90.011C89.4229 36.4956 88.9424 36.0187 88.9424 35.419C88.9424 34.8193 89.4157 34.3424 90.011 34.3424H98.4806C99.0687 34.3424 99.5492 34.8193 99.5492 35.419C99.5492 36.0187 99.0687 36.4956 98.4806 36.4956Z" fill="#2D2D82"/>
<path d="M98.4808 36.6762H90.0111C89.3226 36.6762 88.7632 36.1126 88.7632 35.419C88.7632 34.7254 89.3226 34.1618 90.0111 34.1618H98.4808C99.1692 34.1618 99.7286 34.7254 99.7286 35.419C99.7286 36.1126 99.1692 36.6762 98.4808 36.6762ZM90.0182 34.5303C89.5305 34.5303 89.1289 34.9277 89.1289 35.4262C89.1289 35.9248 89.5234 36.3222 90.0182 36.3222H98.4879C98.9756 36.3222 99.3772 35.9248 99.3772 35.4262C99.3772 34.9277 98.9828 34.5303 98.4879 34.5303H90.0182Z" fill="#2D2D82"/>
<path d="M72.5265 44.9277H31.4904C30.9024 44.9277 30.4219 44.4508 30.4219 43.8511C30.4219 43.2514 30.8952 42.7745 31.4904 42.7745H72.5193C73.1074 42.7745 73.5879 43.2514 73.5879 43.8511C73.5879 44.4508 73.1145 44.9277 72.5265 44.9277Z" fill="#2D2D82"/>
<path d="M72.5266 45.1083H31.4905C30.8021 45.1083 30.2427 44.5447 30.2427 43.8511C30.2427 43.1575 30.8021 42.5939 31.4905 42.5939H72.5194C73.2079 42.5939 73.7673 43.1575 73.7673 43.8511C73.7673 44.5447 73.2079 45.1083 72.5266 45.1083ZM31.4905 42.9624C31.0029 42.9624 30.6013 43.3598 30.6013 43.8583C30.6013 44.3569 30.9957 44.7543 31.4905 44.7543H72.5194C73.0071 44.7543 73.4087 44.3569 73.4087 43.8583C73.4087 43.3598 73.0142 42.9624 72.5194 42.9624H31.4905Z" fill="#2D2D82"/>
<path d="M98.4806 44.9277H90.011C89.4229 44.9277 88.9424 44.4508 88.9424 43.8511C88.9424 43.2514 89.4157 42.7745 90.011 42.7745H98.4806C99.0687 42.7745 99.5492 43.2514 99.5492 43.8511C99.5492 44.4508 99.0687 44.9277 98.4806 44.9277Z" fill="#2D2D82"/>
<path d="M98.4808 45.1083H90.0111C89.3226 45.1083 88.7632 44.5447 88.7632 43.8511C88.7632 43.1575 89.3226 42.5939 90.0111 42.5939H98.4808C99.1692 42.5939 99.7286 43.1575 99.7286 43.8511C99.7286 44.5447 99.1692 45.1083 98.4808 45.1083ZM90.0182 42.9624C89.5305 42.9624 89.1289 43.3598 89.1289 43.8583C89.1289 44.3569 89.5234 44.7543 90.0182 44.7543H98.4879C98.9756 44.7543 99.3772 44.3569 99.3772 43.8583C99.3772 43.3598 98.9828 42.9624 98.4879 42.9624H90.0182Z" fill="#2D2D82"/>
<path d="M83.7788 44.9277H77.8694C77.2813 44.9277 76.8008 44.4508 76.8008 43.8511C76.8008 43.2514 77.2741 42.7745 77.8694 42.7745H83.7788C84.3668 42.7745 84.8473 43.2514 84.8473 43.8511C84.8473 44.4508 84.3668 44.9277 83.7788 44.9277Z" fill="#2D2D82"/>
<path d="M83.7789 45.1083H77.8694C77.181 45.1083 76.6216 44.5447 76.6216 43.8511C76.6216 43.1575 77.181 42.5939 77.8694 42.5939H83.7789C84.4673 42.5939 85.0267 43.1575 85.0267 43.8511C85.0267 44.5447 84.4673 45.1083 83.7789 45.1083ZM77.8694 42.9624C77.3818 42.9624 76.9802 43.3598 76.9802 43.8583C76.9802 44.3569 77.3746 44.7543 77.8694 44.7543H83.7789C84.2665 44.7543 84.6681 44.3569 84.6681 43.8583C84.6681 43.3598 84.2737 42.9624 83.7789 42.9624H77.8694Z" fill="#2D2D82"/>
<path d="M98.4806 52.5795H57.459C56.8709 52.5795 56.3904 52.1026 56.3904 51.5029C56.3904 50.9104 56.8637 50.4263 57.459 50.4263H98.4878C99.0759 50.4263 99.5564 50.9032 99.5564 51.5029C99.5492 52.0954 99.0687 52.5795 98.4806 52.5795Z" fill="#2D2D82"/>
<path d="M98.4807 52.7601H57.459C56.7706 52.7601 56.2112 52.1965 56.2112 51.5029C56.2112 50.8092 56.7706 50.2457 57.459 50.2457H98.4879C99.1764 50.2457 99.7358 50.8092 99.7358 51.5029C99.7286 52.1965 99.1692 52.7601 98.4807 52.7601ZM57.459 50.6069C56.9714 50.6069 56.5698 51.0043 56.5698 51.5029C56.5698 52.0014 56.9642 52.3988 57.459 52.3988H98.4879C98.9756 52.3988 99.3772 52.0014 99.3772 51.5029C99.3772 51.0043 98.9827 50.6069 98.4879 50.6069H57.459Z" fill="#2D2D82"/>
<path d="M39.9601 52.5795H31.4904C30.9024 52.5795 30.4219 52.1026 30.4219 51.5029C30.4219 50.9104 30.8952 50.4263 31.4904 50.4263H39.9601C40.5482 50.4263 41.0287 50.9032 41.0287 51.5029C41.0287 52.0954 40.5482 52.5795 39.9601 52.5795Z" fill="#2D2D82"/>
<path d="M39.9602 52.7601H31.4905C30.8021 52.7601 30.2427 52.1965 30.2427 51.5029C30.2427 50.8092 30.8021 50.2457 31.4905 50.2457H39.9602C40.6487 50.2457 41.2081 50.8092 41.2081 51.5029C41.2081 52.1965 40.6487 52.7601 39.9602 52.7601ZM31.4905 50.6069C31.0029 50.6069 30.6013 51.0043 30.6013 51.5029C30.6013 52.0014 30.9957 52.3988 31.4905 52.3988H39.9602C40.4479 52.3988 40.8495 52.0014 40.8495 51.5029C40.8495 51.0043 40.4551 50.6069 39.9602 50.6069H31.4905Z" fill="#2D2D82"/>
<path d="M52.1089 52.5795H46.2138C45.6258 52.5795 45.1453 52.1026 45.1453 51.5029C45.1453 50.9104 45.6258 50.4263 46.2138 50.4263H52.1089C52.697 50.4263 53.1775 50.9032 53.1775 51.5029C53.1775 52.0954 52.697 52.5795 52.1089 52.5795Z" fill="#2D2D82"/>
<path d="M52.109 52.7601H46.2139C45.5255 52.7601 44.9661 52.1965 44.9661 51.5029C44.9661 50.8092 45.5255 50.2457 46.2139 50.2457H52.109C52.7975 50.2457 53.3569 50.8092 53.3569 51.5029C53.3569 52.1965 52.7975 52.7601 52.109 52.7601ZM46.2139 50.6069C45.7263 50.6069 45.3246 51.0043 45.3246 51.5029C45.3246 52.0014 45.7191 52.3988 46.2139 52.3988H52.109C52.5967 52.3988 52.9983 52.0014 52.9983 51.5029C52.9983 51.0043 52.6038 50.6069 52.109 50.6069H46.2139Z" fill="#2D2D82"/>
<path d="M98.4805 60.8744H47.1389C46.5508 60.8744 46.0703 60.3975 46.0703 59.7978C46.0703 59.1981 46.5436 58.7212 47.1389 58.7212H98.4805C99.0686 58.7212 99.5491 59.1981 99.5491 59.7978C99.5491 60.3975 99.0686 60.8744 98.4805 60.8744Z" fill="#2D2D82"/>
<path d="M98.4806 61.055H47.139C46.4505 61.055 45.8911 60.4915 45.8911 59.7978C45.8911 59.1042 46.4505 58.5406 47.139 58.5406H98.4806C99.1691 58.5406 99.7285 59.1042 99.7285 59.7978C99.7285 60.4915 99.1691 61.055 98.4806 61.055ZM47.139 58.9091C46.6513 58.9091 46.2497 59.3065 46.2497 59.805C46.2497 60.3036 46.6513 60.6938 47.139 60.6938H98.4806C98.9683 60.6938 99.3699 60.2964 99.3699 59.7978C99.3699 59.2993 98.9755 58.9019 98.4806 58.9019H47.139V58.9091Z" fill="#2D2D82"/>
<path d="M39.9601 60.8744H31.4904C30.9024 60.8744 30.4219 60.3975 30.4219 59.7978C30.4219 59.1981 30.8952 58.7212 31.4904 58.7212H39.9601C40.5482 58.7212 41.0287 59.1981 41.0287 59.7978C41.0287 60.3975 40.5482 60.8744 39.9601 60.8744Z" fill="#2D2D82"/>
<path d="M39.9602 61.055H31.4905C30.8021 61.055 30.2427 60.4915 30.2427 59.7978C30.2427 59.1042 30.8021 58.5406 31.4905 58.5406H39.9602C40.6487 58.5406 41.2081 59.1042 41.2081 59.7978C41.2081 60.4915 40.6487 61.055 39.9602 61.055ZM31.4905 58.9091C31.0029 58.9091 30.6013 59.3065 30.6013 59.805C30.6013 60.3036 31.0029 60.6938 31.4905 60.6938H39.9602C40.4479 60.6938 40.8495 60.2964 40.8495 59.7978C40.8495 59.2993 40.4551 58.9019 39.9602 58.9019H31.4905V58.9091Z" fill="#2D2D82"/>
<path d="M72.5267 69.003H31.5122C30.9241 69.003 30.4436 68.5261 30.4436 67.9264C30.4436 67.3339 30.9169 66.8498 31.5122 66.8498H72.5267C73.1147 66.8498 73.5953 67.3339 73.5953 67.9264C73.5881 68.5261 73.1147 69.003 72.5267 69.003Z" fill="#2D2D82"/>
<path d="M72.5267 69.1837H31.5122C30.8237 69.1837 30.2715 68.6201 30.2715 67.9264C30.2715 67.2328 30.8309 66.6692 31.5122 66.6692H72.5267C73.2152 66.6692 73.7746 67.2328 73.7746 67.9264C73.7674 68.6201 73.208 69.1837 72.5267 69.1837ZM31.5122 67.0377C31.0245 67.0377 30.6301 67.4351 30.6301 67.9337C30.6301 68.4322 31.0245 68.8296 31.5122 68.8296H72.5267C73.0144 68.8296 73.416 68.4322 73.416 67.9337C73.416 67.4351 73.0215 67.0377 72.5267 67.0377H31.5122Z" fill="#2D2D82"/>
<path d="M98.4806 69.003H90.011C89.4229 69.003 88.9424 68.5261 88.9424 67.9264C88.9424 67.3339 89.4157 66.8498 90.011 66.8498H98.4806C99.0687 66.8498 99.5492 67.3339 99.5492 67.9264C99.5492 68.5261 99.0687 69.003 98.4806 69.003Z" fill="#2D2D82"/>
<path d="M98.4808 69.1837H90.0111C89.3226 69.1837 88.7632 68.6201 88.7632 67.9264C88.7632 67.2328 89.3226 66.6692 90.0111 66.6692H98.4808C99.1692 66.6692 99.7286 67.2328 99.7286 67.9264C99.7286 68.6201 99.1692 69.1837 98.4808 69.1837ZM90.0182 67.0377C89.5305 67.0377 89.1289 67.4351 89.1289 67.9337C89.1289 68.4322 89.5234 68.8296 90.0182 68.8296H98.4879C98.9756 68.8296 99.3772 68.4322 99.3772 67.9337C99.3772 67.4351 98.9828 67.0377 98.4879 67.0377H90.0182Z" fill="#2D2D82"/>
<path d="M83.7788 69.003H77.8694C77.2813 69.003 76.8008 68.5261 76.8008 67.9264C76.8008 67.3339 77.2741 66.8498 77.8694 66.8498H83.7788C84.3668 66.8498 84.8473 67.3339 84.8473 67.9264C84.8473 68.5261 84.3668 69.003 83.7788 69.003Z" fill="#2D2D82"/>
<path d="M83.7789 69.1837H77.8694C77.181 69.1837 76.6216 68.6201 76.6216 67.9264C76.6216 67.2328 77.181 66.6692 77.8694 66.6692H83.7789C84.4673 66.6692 85.0267 67.2328 85.0267 67.9264C85.0267 68.6201 84.4673 69.1837 83.7789 69.1837ZM77.8694 67.0377C77.3818 67.0377 76.9802 67.4351 76.9802 67.9337C76.9802 68.4322 77.3746 68.8296 77.8694 68.8296H83.7789C84.2665 68.8296 84.6681 68.4322 84.6681 67.9337C84.6681 67.4351 84.2737 67.0377 83.7789 67.0377H77.8694Z" fill="#2D2D82"/>
</svg>
