<svg width="89" height="129" viewBox="0 0 89 129" fill="none" xmlns="http://www.w3.org/2000/svg">
<g clip-path="url(#clip0_1_1980)">
<path d="M81.8453 128.44H7.15476C3.51857 128.44 0.560303 125.481 0.560303 121.844V88.3589H2.48205V121.844C2.48205 124.422 4.57749 126.518 7.15476 126.518H81.8509C84.4226 126.518 86.5236 124.422 86.5236 121.844V26.3244C86.5236 23.7468 84.4282 21.6512 81.8509 21.6512H65.9222V19.7292H81.8509C85.4871 19.7292 88.4454 22.6878 88.4454 26.3244V121.844C88.4398 125.481 85.4815 128.44 81.8453 128.44ZM2.48205 88.6951H0.560303V26.3244C0.560303 22.6878 3.51857 19.7292 7.15476 19.7292H22.9098V21.6512H7.15476C4.57749 21.6512 2.48205 23.7468 2.48205 26.3244V88.6951Z" fill="#F9A01B"/>
<path d="M81.8453 129H7.15474C3.21039 129 0 125.789 0 121.844V26.3244C0 22.3797 3.21039 19.1689 7.15474 19.1689H23.47V22.2116H7.15474C4.88562 22.2116 3.0423 24.0551 3.0423 26.3188V121.839C3.0423 124.103 4.88562 125.946 7.15474 125.946H81.8509C84.1144 125.946 85.9577 124.103 85.9577 121.839V26.3244C85.9577 24.0607 84.1144 22.2172 81.8509 22.2172H65.3619V19.1745H81.8509C85.7952 19.1745 89.0056 22.3853 89.0056 26.33V121.85C89 125.789 85.7896 129 81.8453 129ZM1.12055 89.2555V121.844C1.12055 125.173 3.82669 127.879 7.15474 127.879H81.8509C85.1789 127.879 87.885 125.173 87.885 121.844V26.3244C87.885 22.996 85.1789 20.2896 81.8509 20.2896H66.4825V21.0909H81.8509C84.7363 21.0909 87.0782 23.4387 87.0782 26.3188V121.839C87.0782 124.725 84.7307 127.067 81.8509 127.067H7.15474C4.26931 127.067 1.92175 124.719 1.92175 121.839V89.2499H1.12055V89.2555ZM1.12055 87.7986H1.92175V26.3244C1.92175 23.4387 4.26931 21.0965 7.15474 21.0965H22.3494V20.2952H7.15474C3.82669 20.2896 1.12055 22.996 1.12055 26.3244V87.7986Z" fill="#F9A01B"/>
<path d="M56.8064 47.7011H13.413C12.8359 47.7011 12.3708 47.2361 12.3708 46.6589C12.3708 46.0818 12.8359 45.6167 13.413 45.6167H56.812C57.3891 45.6167 57.8541 46.0818 57.8541 46.6589C57.8541 47.2361 57.3835 47.7011 56.8064 47.7011Z" fill="#2D2D82"/>
<path d="M56.8064 48.2615H13.4129C12.5277 48.2615 11.8105 47.5443 11.8105 46.6589C11.8105 45.7736 12.5277 45.0564 13.4129 45.0564H56.812C57.6972 45.0564 58.4144 45.7736 58.4144 46.6589C58.4144 47.5443 57.6916 48.2615 56.8064 48.2615ZM13.4129 46.1771C13.1496 46.1771 12.9311 46.3956 12.9311 46.6589C12.9311 46.9223 13.1496 47.1408 13.4129 47.1408H56.812C57.0753 47.1408 57.2938 46.9223 57.2938 46.6589C57.2938 46.3956 57.0753 46.1771 56.812 46.1771H13.4129Z" fill="#2D2D82"/>
<path d="M75.5813 47.7011H65.1041C64.527 47.7011 64.062 47.2361 64.062 46.6589C64.062 46.0818 64.527 45.6167 65.1041 45.6167H75.5813C76.1584 45.6167 76.6234 46.0818 76.6234 46.6589C76.6234 47.2361 76.1584 47.7011 75.5813 47.7011Z" fill="#2D2D82"/>
<path d="M75.5813 48.2615H65.1041C64.2189 48.2615 63.5017 47.5443 63.5017 46.6589C63.5017 45.7736 64.2189 45.0564 65.1041 45.0564H75.5813C76.4665 45.0564 77.1837 45.7736 77.1837 46.6589C77.1837 47.5443 76.4609 48.2615 75.5813 48.2615ZM65.1041 46.1771C64.8408 46.1771 64.6223 46.3956 64.6223 46.6589C64.6223 46.9223 64.8408 47.1408 65.1041 47.1408H75.5813C75.8446 47.1408 76.0631 46.9223 76.0631 46.6589C76.0631 46.3956 75.8446 46.1771 75.5813 46.1771H65.1041Z" fill="#2D2D82"/>
<path d="M56.8065 56.8907H17.8224C17.2453 56.8907 16.7803 56.4256 16.7803 55.8485C16.7803 55.2714 17.2453 54.8063 17.8224 54.8063H56.8065C57.3836 54.8063 57.8486 55.2714 57.8486 55.8485C57.8542 56.4256 57.3836 56.8907 56.8065 56.8907Z" fill="#2D2D82"/>
<path d="M56.8064 57.4511H17.8224C16.9371 57.4511 16.22 56.7339 16.22 55.8485C16.22 54.9632 16.9371 54.246 17.8224 54.246H56.8064C57.6917 54.246 58.4088 54.9632 58.4088 55.8485C58.4088 56.7339 57.6917 57.4511 56.8064 57.4511ZM17.8224 55.3666C17.559 55.3666 17.3405 55.5852 17.3405 55.8485C17.3405 56.1119 17.559 56.3304 17.8224 56.3304H56.8064C57.0698 56.3304 57.2883 56.1119 57.2883 55.8485C57.2883 55.5852 57.0698 55.3666 56.8064 55.3666H17.8224Z" fill="#2D2D82"/>
<path d="M75.5813 56.8907H65.1041C64.527 56.8907 64.062 56.4256 64.062 55.8485C64.062 55.2714 64.527 54.8063 65.1041 54.8063H75.5813C76.1584 54.8063 76.6234 55.2714 76.6234 55.8485C76.6234 56.4256 76.1584 56.8907 75.5813 56.8907Z" fill="#2D2D82"/>
<path d="M75.5813 57.4511H65.1041C64.2189 57.4511 63.5017 56.7339 63.5017 55.8485C63.5017 54.9632 64.2189 54.246 65.1041 54.246H75.5813C76.4665 54.246 77.1837 54.9632 77.1837 55.8485C77.1837 56.7339 76.4609 57.4511 75.5813 57.4511ZM65.1041 55.3666C64.8408 55.3666 64.6223 55.5852 64.6223 55.8485C64.6223 56.1119 64.8408 56.3304 65.1041 56.3304H75.5813C75.8446 56.3304 76.0631 56.1119 76.0631 55.8485C76.0631 55.5852 75.8446 55.3666 75.5813 55.3666H65.1041Z" fill="#2D2D82"/>
<path d="M56.8065 66.0745H17.9569C17.3798 66.0745 16.9148 65.6094 16.9148 65.0322C16.9148 64.4551 17.3798 63.99 17.9569 63.99H56.8065C57.3836 63.99 57.8486 64.4551 57.8486 65.0322C57.8542 65.6094 57.3836 66.0745 56.8065 66.0745Z" fill="#2D2D82"/>
<path d="M56.8065 66.6348H17.9569C17.0716 66.6348 16.3545 65.9176 16.3545 65.0323C16.3545 64.1469 17.0716 63.4297 17.9569 63.4297H56.8065C57.6917 63.4297 58.4089 64.1469 58.4089 65.0323C58.4089 65.9176 57.6917 66.6348 56.8065 66.6348ZM17.9569 64.5504C17.6936 64.5504 17.475 64.7689 17.475 65.0323C17.475 65.2956 17.6936 65.5142 17.9569 65.5142H56.8065C57.0698 65.5142 57.2883 65.2956 57.2883 65.0323C57.2883 64.7689 57.0698 64.5504 56.8065 64.5504H17.9569Z" fill="#2D2D82"/>
<path d="M75.5813 66.0745H65.1041C64.527 66.0745 64.062 65.6094 64.062 65.0322C64.062 64.4551 64.527 63.99 65.1041 63.99H75.5813C76.1584 63.99 76.6234 64.4551 76.6234 65.0322C76.6234 65.6094 76.1584 66.0745 75.5813 66.0745Z" fill="#2D2D82"/>
<path d="M75.5813 66.6348H65.1041C64.2189 66.6348 63.5017 65.9176 63.5017 65.0323C63.5017 64.1469 64.2189 63.4297 65.1041 63.4297H75.5813C76.4665 63.4297 77.1837 64.1469 77.1837 65.0323C77.1837 65.9176 76.4609 66.6348 75.5813 66.6348ZM65.1041 64.5504C64.8408 64.5504 64.6223 64.7689 64.6223 65.0323C64.6223 65.2956 64.8408 65.5142 65.1041 65.5142H75.5813C75.8446 65.5142 76.0631 65.2956 76.0631 65.0323C76.0631 64.7689 75.8446 64.5504 75.5813 64.5504H65.1041Z" fill="#2D2D82"/>
<path d="M56.8064 75.2642H16.6906C16.1135 75.2642 15.6484 74.7991 15.6484 74.222C15.6484 73.6449 16.1135 73.1798 16.6906 73.1798H56.812C57.3891 73.1798 57.8541 73.6449 57.8541 74.222C57.8541 74.7935 57.3835 75.2642 56.8064 75.2642Z" fill="#2D2D82"/>
<path d="M56.8064 75.8187H16.6905C15.8053 75.8187 15.0881 75.1015 15.0881 74.2162C15.0881 73.3309 15.8053 72.6136 16.6905 72.6136H56.812C57.6972 72.6136 58.4144 73.3309 58.4144 74.2162C58.4144 75.1015 57.6916 75.8187 56.8064 75.8187ZM16.6905 73.7343C16.4272 73.7343 16.2087 73.9528 16.2087 74.2162C16.2087 74.4796 16.4272 74.6981 16.6905 74.6981H56.812C57.0753 74.6981 57.2938 74.4796 57.2938 74.2162C57.2938 73.9528 57.0753 73.7343 56.812 73.7343H16.6905Z" fill="#2D2D82"/>
<path d="M75.5813 75.2642H65.1041C64.527 75.2642 64.062 74.7991 64.062 74.222C64.062 73.6449 64.527 73.1798 65.1041 73.1798H75.5813C76.1584 73.1798 76.6234 73.6449 76.6234 74.222C76.6234 74.7935 76.1584 75.2642 75.5813 75.2642Z" fill="#2D2D82"/>
<path d="M75.5813 75.8187H65.1041C64.2189 75.8187 63.5017 75.1015 63.5017 74.2162C63.5017 73.3309 64.2189 72.6136 65.1041 72.6136H75.5813C76.4665 72.6136 77.1837 73.3309 77.1837 74.2162C77.1837 75.1015 76.4609 75.8187 75.5813 75.8187ZM65.1041 73.7343C64.8408 73.7343 64.6223 73.9528 64.6223 74.2162C64.6223 74.4796 64.8408 74.6981 65.1041 74.6981H75.5813C75.8446 74.6981 76.0631 74.4796 76.0631 74.2162C76.0631 73.9528 75.8446 73.7343 75.5813 73.7343H65.1041Z" fill="#2D2D82"/>
<path d="M56.8064 84.4478H13.413C12.8359 84.4478 12.3708 83.9827 12.3708 83.4056C12.3708 82.8284 12.8359 82.3633 13.413 82.3633H56.812C57.3891 82.3633 57.8541 82.8284 57.8541 83.4056C57.8541 83.9827 57.3835 84.4478 56.8064 84.4478Z" fill="#2D2D82"/>
<path d="M56.8064 85.0081H13.4129C12.5277 85.0081 11.8105 84.2909 11.8105 83.4056C11.8105 82.5203 12.5277 81.803 13.4129 81.803H56.812C57.6972 81.803 58.4144 82.5203 58.4144 83.4056C58.4144 84.2909 57.6916 85.0081 56.8064 85.0081ZM13.4129 82.9237C13.1496 82.9237 12.9311 83.1422 12.9311 83.4056C12.9311 83.669 13.1496 83.8875 13.4129 83.8875H56.812C57.0753 83.8875 57.2938 83.669 57.2938 83.4056C57.2938 83.1422 57.0753 82.9237 56.812 82.9237H13.4129Z" fill="#2D2D82"/>
<path d="M75.5813 84.4478H65.1041C64.527 84.4478 64.062 83.9827 64.062 83.4056C64.062 82.8284 64.527 82.3633 65.1041 82.3633H75.5813C76.1584 82.3633 76.6234 82.8284 76.6234 83.4056C76.6234 83.9827 76.1584 84.4478 75.5813 84.4478Z" fill="#2D2D82"/>
<path d="M75.5813 85.0081H65.1041C64.2189 85.0081 63.5017 84.2909 63.5017 83.4056C63.5017 82.5203 64.2189 81.803 65.1041 81.803H75.5813C76.4665 81.803 77.1837 82.5203 77.1837 83.4056C77.1837 84.2909 76.4609 85.0081 75.5813 85.0081ZM65.1041 82.9237C64.8408 82.9237 64.6223 83.1422 64.6223 83.4056C64.6223 83.669 64.8408 83.8875 65.1041 83.8875H75.5813C75.8446 83.8875 76.0631 83.669 76.0631 83.4056C76.0631 83.1422 75.8446 82.9237 75.5813 82.9237H65.1041Z" fill="#2D2D82"/>
<path d="M56.8064 93.6375H13.413C12.8359 93.6375 12.3708 93.1725 12.3708 92.5953C12.3708 92.0182 12.8359 91.5531 13.413 91.5531H56.812C57.3891 91.5531 57.8541 92.0182 57.8541 92.5953C57.8541 93.1725 57.3835 93.6375 56.8064 93.6375Z" fill="#2D2D82"/>
<path d="M56.8064 94.1979H13.4129C12.5277 94.1979 11.8105 93.4807 11.8105 92.5953C11.8105 91.71 12.5277 90.9928 13.4129 90.9928H56.812C57.6972 90.9928 58.4144 91.71 58.4144 92.5953C58.4144 93.4807 57.6916 94.1979 56.8064 94.1979ZM13.4129 92.1135C13.1496 92.1135 12.9311 92.332 12.9311 92.5953C12.9311 92.8587 13.1496 93.0772 13.4129 93.0772H56.812C57.0753 93.0772 57.2938 92.8587 57.2938 92.5953C57.2938 92.332 57.0753 92.1135 56.812 92.1135H13.4129Z" fill="#2D2D82"/>
<path d="M75.5813 93.6375H65.1041C64.527 93.6375 64.062 93.1725 64.062 92.5953C64.062 92.0182 64.527 91.5531 65.1041 91.5531H75.5813C76.1584 91.5531 76.6234 92.0182 76.6234 92.5953C76.6234 93.1725 76.1584 93.6375 75.5813 93.6375Z" fill="#2D2D82"/>
<path d="M75.5813 94.1979H65.1041C64.2189 94.1979 63.5017 93.4807 63.5017 92.5953C63.5017 91.71 64.2189 90.9928 65.1041 90.9928H75.5813C76.4665 90.9928 77.1837 91.71 77.1837 92.5953C77.1837 93.4807 76.4609 94.1979 75.5813 94.1979ZM65.1041 92.1135C64.8408 92.1135 64.6223 92.332 64.6223 92.5953C64.6223 92.8587 64.8408 93.0772 65.1041 93.0772H75.5813C75.8446 93.0772 76.0631 92.8587 76.0631 92.5953C76.0631 92.332 75.8446 92.1135 75.5813 92.1135H65.1041Z" fill="#2D2D82"/>
<path d="M56.8064 102.81H13.413C12.8359 102.81 12.3708 102.345 12.3708 101.768C12.3708 101.191 12.8359 100.726 13.413 100.726H56.812C57.3891 100.726 57.8541 101.191 57.8541 101.768C57.8541 102.339 57.3835 102.81 56.8064 102.81Z" fill="#2D2D82"/>
<path d="M56.8064 103.37H13.4129C12.5277 103.37 11.8105 102.653 11.8105 101.768C11.8105 100.883 12.5277 100.165 13.4129 100.165H56.812C57.6972 100.165 58.4144 100.883 58.4144 101.768C58.4144 102.653 57.6916 103.37 56.8064 103.37ZM13.4129 101.286C13.1496 101.286 12.9311 101.504 12.9311 101.768C12.9311 102.031 13.1496 102.25 13.4129 102.25H56.812C57.0753 102.25 57.2938 102.031 57.2938 101.768C57.2938 101.504 57.0753 101.286 56.812 101.286H13.4129Z" fill="#2D2D82"/>
<path d="M75.5813 102.81H65.1041C64.527 102.81 64.062 102.345 64.062 101.768C64.062 101.191 64.527 100.726 65.1041 100.726H75.5813C76.1584 100.726 76.6234 101.191 76.6234 101.768C76.6234 102.339 76.1584 102.81 75.5813 102.81Z" fill="#2D2D82"/>
<path d="M75.5813 103.37H65.1041C64.2189 103.37 63.5017 102.653 63.5017 101.768C63.5017 100.883 64.2189 100.165 65.1041 100.165H75.5813C76.4665 100.165 77.1837 100.883 77.1837 101.768C77.1837 102.653 76.4609 103.37 75.5813 103.37ZM65.1041 101.286C64.8408 101.286 64.6223 101.504 64.6223 101.768C64.6223 102.031 64.8408 102.25 65.1041 102.25H75.5813C75.8446 102.25 76.0631 102.031 76.0631 101.768C76.0631 101.504 75.8446 101.286 75.5813 101.286H65.1041Z" fill="#2D2D82"/>
<path d="M56.8064 111.999H13.413C12.8359 111.999 12.3708 111.534 12.3708 110.957C12.3708 110.38 12.8359 109.915 13.413 109.915H56.812C57.3891 109.915 57.8541 110.38 57.8541 110.957C57.8541 111.529 57.3835 111.999 56.8064 111.999Z" fill="#2D2D82"/>
<path d="M56.8064 112.56H13.4129C12.5277 112.56 11.8105 111.843 11.8105 110.957C11.8105 110.072 12.5277 109.355 13.4129 109.355H56.812C57.6972 109.355 58.4144 110.072 58.4144 110.957C58.4144 111.843 57.6916 112.56 56.8064 112.56ZM13.4129 110.475C13.1496 110.475 12.9311 110.694 12.9311 110.957C12.9311 111.221 13.1496 111.439 13.4129 111.439H56.812C57.0753 111.439 57.2938 111.221 57.2938 110.957C57.2938 110.694 57.0753 110.475 56.812 110.475H13.4129Z" fill="#2D2D82"/>
<path d="M75.5813 111.999H65.1041C64.527 111.999 64.062 111.534 64.062 110.957C64.062 110.38 64.527 109.915 65.1041 109.915H75.5813C76.1584 109.915 76.6234 110.38 76.6234 110.957C76.6234 111.529 76.1584 111.999 75.5813 111.999Z" fill="#2D2D82"/>
<path d="M75.5813 112.56H65.1041C64.2189 112.56 63.5017 111.843 63.5017 110.957C63.5017 110.072 64.2189 109.355 65.1041 109.355H75.5813C76.4665 109.355 77.1837 110.072 77.1837 110.957C77.1837 111.843 76.4609 112.56 75.5813 112.56ZM65.1041 110.475C64.8408 110.475 64.6223 110.694 64.6223 110.957C64.6223 111.221 64.8408 111.439 65.1041 111.439H75.5813C75.8446 111.439 76.0631 111.221 76.0631 110.957C76.0631 110.694 75.8446 110.475 75.5813 110.475H65.1041Z" fill="#2D2D82"/>
<path d="M66.4601 30.8687H22.3776C21.8005 30.8687 21.3354 30.4037 21.3354 29.8265V24.1447C21.3354 20.4353 24.3497 17.4207 28.0588 17.4207H60.7845C64.488 17.4207 67.5079 20.4409 67.5079 24.1447V29.8321C67.5023 30.4037 67.0372 30.8687 66.4601 30.8687ZM23.4197 28.7843H65.418V24.1447C65.418 21.584 63.3394 19.5052 60.7789 19.5052H28.0588C25.5039 19.5052 23.4197 21.584 23.4197 24.1447V28.7843Z" fill="#F9A01B"/>
<path d="M66.4601 31.4291H22.3775C21.4923 31.4291 20.7751 30.7119 20.7751 29.8266V24.1448C20.7751 20.1272 24.0416 16.8604 28.0587 16.8604H60.7845C64.8017 16.8604 68.0681 20.1272 68.0681 24.1448V29.8322C68.0625 30.7119 67.3454 31.4291 66.4601 31.4291ZM28.0587 17.9811C24.6635 17.9811 21.8957 20.7492 21.8957 24.1448V29.8322C21.8957 30.0955 22.1142 30.3141 22.3775 30.3141H66.4601C66.7235 30.3141 66.942 30.0955 66.942 29.8322V24.1448C66.942 20.7436 64.1798 17.9811 60.7789 17.9811H28.0587ZM65.9783 29.3447H22.8594V24.1448C22.8594 21.2759 25.1901 18.9449 28.0587 18.9449H60.7845C63.6531 18.9449 65.9839 21.2759 65.9839 24.1448V29.3447H65.9783ZM23.9799 28.224H64.8577V24.1448C64.8577 21.8922 63.0312 20.0656 60.7789 20.0656H28.0587C25.812 20.0656 23.9799 21.8978 23.9799 24.1448V28.224Z" fill="#F9A01B"/>
<path d="M54.4197 19.5053H34.4178C33.8408 19.5053 33.3757 19.0402 33.3757 18.4631V10.2262C33.3757 9.64901 33.8408 9.18393 34.4178 9.18393H39.3707C39.7461 9.18393 40.0935 9.38565 40.2783 9.71064C41.1244 11.2067 42.7099 12.1313 44.4188 12.1313C46.1332 12.1313 47.7244 11.2067 48.5704 9.71064C48.7553 9.38565 49.1027 9.18393 49.4781 9.18393H54.4309C55.008 9.18393 55.4731 9.64901 55.4731 10.2262V18.4631C55.4619 19.0346 54.9968 19.5053 54.4197 19.5053ZM35.46 17.4208H53.3776V11.2628H50.044C48.7721 13.0951 46.6711 14.2157 44.4132 14.2157C42.1665 14.2157 40.0598 13.1007 38.7936 11.2628H35.46V17.4208Z" fill="#F9A01B"/>
<path d="M54.4197 20.0656H34.4178C33.5326 20.0656 32.8154 19.3484 32.8154 18.4631V10.2262C32.8154 9.34085 33.5326 8.62363 34.4178 8.62363H39.3707C39.9478 8.62363 40.48 8.93741 40.7658 9.43611C41.5109 10.7529 42.9116 11.5766 44.4188 11.5766C45.9315 11.5766 47.3322 10.7585 48.083 9.44171C48.3687 8.93741 48.901 8.62923 49.4781 8.62923H54.4309C55.3162 8.62923 56.0333 9.34646 56.0333 10.2318V18.4687C56.0221 19.3428 55.3049 20.0656 54.4197 20.0656ZM34.4178 9.73869C34.1545 9.73869 33.936 9.95722 33.936 10.2206V18.4575C33.936 18.7208 34.1545 18.9394 34.4178 18.9394H54.4197C54.683 18.9394 54.9015 18.7208 54.9015 18.4575V10.2206C54.9015 9.95722 54.683 9.73869 54.4197 9.73869H49.4669C49.2932 9.73869 49.1363 9.83395 49.0467 9.98524C48.1054 11.655 46.3293 12.6916 44.4132 12.6916C42.5026 12.6916 40.7265 11.655 39.7853 9.98524C39.7012 9.83395 39.5388 9.73869 39.3651 9.73869H34.4178ZM53.9379 17.9812H34.8997V10.7025H39.0905L39.2586 10.9434C40.4352 12.6412 42.3625 13.6498 44.4188 13.6498C46.4806 13.6498 48.4135 12.6356 49.5901 10.9378L49.7582 10.6969H53.9491V17.9812H53.9379ZM36.0202 16.8605H52.8173V11.8231H50.3297C48.929 13.6778 46.7439 14.7761 44.4132 14.7761C42.088 14.7761 39.9029 13.6778 38.5078 11.8231H36.0202V16.8605Z" fill="#F9A01B"/>
<path d="M44.4133 14.2156C40.6482 14.2156 37.5891 11.1562 37.5891 7.39637C37.5891 3.62533 40.6538 0.560303 44.4133 0.560303C48.1784 0.560303 51.2487 3.62533 51.2487 7.39637C51.2487 11.1562 48.184 14.2156 44.4133 14.2156ZM44.4133 2.64474C41.8024 2.64474 39.6733 4.77401 39.6733 7.39077C39.6733 10.0019 41.7968 12.1256 44.4133 12.1256C47.0298 12.1256 49.1588 10.0019 49.1588 7.39077C49.1644 4.77401 47.0298 2.64474 44.4133 2.64474Z" fill="#F9A01B"/>
<path d="M44.4133 14.776C40.34 14.776 37.0288 11.4644 37.0288 7.3964C37.0288 3.31717 40.34 0 44.4133 0C48.4921 0 51.8089 3.31717 51.8089 7.3964C51.8089 11.4644 48.4921 14.776 44.4133 14.776ZM44.4133 1.12067C40.962 1.12067 38.1494 3.93354 38.1494 7.3964C38.1494 10.8481 40.9564 13.6553 44.4133 13.6553C47.8702 13.6553 50.6884 10.8481 50.6884 7.3964C50.6884 3.93354 47.8758 1.12067 44.4133 1.12067ZM44.4133 12.6916C41.4942 12.6916 39.113 10.3157 39.113 7.3964C39.113 4.47146 41.4886 2.09004 44.4133 2.09004C47.3379 2.09004 49.7247 4.47146 49.7247 7.3964C49.7247 10.3157 47.3435 12.6916 44.4133 12.6916ZM44.4133 3.20511C42.1105 3.20511 40.2336 5.08223 40.2336 7.3908C40.2336 9.69377 42.1105 11.5653 44.4133 11.5653C46.7216 11.5653 48.6041 9.69377 48.6041 7.3908C48.6041 5.08223 46.7216 3.20511 44.4133 3.20511Z" fill="#F9A01B"/>
</g>
<defs>
<clipPath id="clip0_1_1980">
<rect width="89" height="129" fill="white"/>
</clipPath>
</defs>
</svg>
