<svg width="112" height="120" viewBox="0 0 112 120" fill="none" xmlns="http://www.w3.org/2000/svg">
<g clip-path="url(#clip0_1_700)">
<path d="M55.9299 117.03C85.6428 117.03 109.73 92.9428 109.73 63.2299C109.73 33.517 85.6428 9.42993 55.9299 9.42993C26.217 9.42993 2.12988 33.517 2.12988 63.2299C2.12988 92.9428 26.217 117.03 55.9299 117.03Z" fill="white"/>
<path d="M55.93 119.04C25.09 119.04 0 93.9598 0 63.1198C0 43.2298 10.72 24.6698 27.97 14.6898C28.93 14.1398 30.15 14.4598 30.7 15.4198C31.25 16.3798 30.93 17.5998 29.97 18.1498C13.95 27.4198 4 44.6498 4 63.1198C4 91.7498 27.29 115.05 55.93 115.05C84.57 115.05 107.86 91.7598 107.86 63.1198C107.86 36.6998 88.03 14.8298 62.48 11.5998L66.72 14.7798C67.6 15.4398 67.78 16.6998 67.12 17.5798C66.46 18.4598 65.21 18.6398 64.32 17.9798L54.75 10.7998C54.69 10.7598 54.63 10.7098 54.58 10.6598C54.53 10.6098 54.48 10.5598 54.44 10.5098C54.13 10.1598 53.94 9.69983 53.94 9.18983C53.94 8.67983 54.13 8.21983 54.44 7.86983C54.49 7.81983 54.54 7.76983 54.59 7.71983C54.64 7.66983 54.7 7.62983 54.75 7.58983L64.32 0.409826C65.21 -0.250174 66.46 -0.0701736 67.12 0.809826C67.78 1.68983 67.6 2.94983 66.72 3.60983L61.56 7.47983C89.77 10.3098 111.86 34.1898 111.86 63.1298C111.86 93.9598 86.77 119.04 55.93 119.04Z" fill="#F9A01B"/>
<path d="M50.75 68.0699H55.7V71.9599C55.7 72.3199 55.58 72.6399 55.35 72.8999C55.12 73.1599 54.77 73.2899 54.32 73.2899H50.76V82.8899H44.89V73.2899H28.3C27.85 73.2899 27.45 73.1499 27.1 72.8699C26.76 72.5899 26.54 72.2399 26.45 71.8199L25.77 68.4199L44.39 43.5499H50.75V68.0699ZM44.88 55.2099C44.88 54.6299 44.9 53.9999 44.93 53.3299C44.97 52.6599 45.03 51.9599 45.12 51.2399L32.92 68.0699H44.88V55.2099Z" fill="#F9A01B"/>
<path d="M72.44 83.3199C70.41 83.3199 68.56 83.0499 66.88 82.4999C65.2 81.9599 63.77 81.1899 62.57 80.1899C61.37 79.1899 60.44 77.9899 59.78 76.5699C59.12 75.1499 58.79 73.5799 58.79 71.8399C58.79 69.5199 59.36 67.5599 60.5 65.9499C61.64 64.3499 63.42 63.1599 65.83 62.3799C63.91 61.5799 62.47 60.4499 61.52 58.9799C60.57 57.5099 60.09 55.7499 60.09 53.6799C60.09 52.1899 60.39 50.8099 61 49.5199C61.61 48.2299 62.45 47.1099 63.54 46.1599C64.63 45.2099 65.93 44.4699 67.44 43.9299C68.95 43.3999 70.62 43.1299 72.43 43.1299C74.24 43.1299 75.9 43.3999 77.42 43.9299C78.93 44.4599 80.23 45.2099 81.32 46.1599C82.41 47.1099 83.25 48.2299 83.86 49.5199C84.47 50.8099 84.77 52.1899 84.77 53.6799C84.77 55.7499 84.29 57.5099 83.33 58.9799C82.37 60.4499 80.94 61.5799 79.03 62.3799C81.44 63.1599 83.22 64.3499 84.36 65.9499C85.5 67.5499 86.07 69.5199 86.07 71.8399C86.07 73.5799 85.74 75.1599 85.08 76.5699C84.42 77.9799 83.49 79.1899 82.29 80.1899C81.09 81.1899 79.66 81.9599 77.98 82.4999C76.32 83.0499 74.47 83.3199 72.44 83.3199ZM72.44 78.0699C73.55 78.0699 74.52 77.9099 75.35 77.5899C76.18 77.2699 76.89 76.8299 77.46 76.2699C78.03 75.7099 78.46 75.0399 78.75 74.2599C79.04 73.4799 79.19 72.6399 79.19 71.7299C79.19 69.5699 78.59 67.9399 77.4 66.8399C76.2 65.7299 74.56 65.1799 72.45 65.1799C70.34 65.1799 68.7 65.7299 67.5 66.8399C66.3 67.9499 65.71 69.5799 65.71 71.7299C65.71 72.6399 65.85 73.4799 66.14 74.2599C66.43 75.0399 66.86 75.7099 67.43 76.2699C68 76.8299 68.7 77.2699 69.54 77.5899C70.37 77.9099 71.34 78.0699 72.44 78.0699ZM72.44 59.9099C73.53 59.9099 74.44 59.7399 75.19 59.3899C75.93 59.0499 76.53 58.5899 76.98 58.0199C77.43 57.4499 77.75 56.7999 77.94 56.0599C78.13 55.3299 78.23 54.5699 78.23 53.7899C78.23 53.0499 78.11 52.3399 77.88 51.6699C77.64 50.9999 77.29 50.4099 76.82 49.8899C76.35 49.3699 75.75 48.9599 75.03 48.6499C74.3 48.3399 73.44 48.1899 72.45 48.1899C71.46 48.1899 70.59 48.3399 69.87 48.6499C69.14 48.9599 68.54 49.3699 68.06 49.8899C67.58 50.4099 67.23 50.9999 67 51.6699C66.77 52.3399 66.66 53.0499 66.66 53.7899C66.66 54.5699 66.75 55.3299 66.95 56.0599C67.14 56.7899 67.46 57.4499 67.91 58.0199C68.36 58.5899 68.96 59.0499 69.7 59.3899C70.44 59.7399 71.35 59.9099 72.44 59.9099Z" fill="#F9A01B"/>
</g>
<defs>
<clipPath id="clip0_1_700">
<rect width="111.86" height="119.04" fill="white" transform="translate(0 -0.00012207)"/>
</clipPath>
</defs>
</svg>
