<svg width="89" height="129" viewBox="0 0 89 129" fill="none" xmlns="http://www.w3.org/2000/svg">
<g clip-path="url(#clip0_1_132)">
<path d="M81.845 128.44H7.15452C3.51832 128.44 0.560059 125.481 0.560059 121.844V88.3589H2.48181V121.844C2.48181 124.422 4.57724 126.518 7.15452 126.518H81.8506C84.4223 126.518 86.5234 124.422 86.5234 121.844V26.3244C86.5234 23.7468 84.4279 21.6512 81.8506 21.6512H65.922V19.7292H81.8506C85.4868 19.7292 88.4451 22.6878 88.4451 26.3244V121.844C88.4395 125.481 85.4812 128.44 81.845 128.44ZM2.48181 88.6951H0.560059V26.3244C0.560059 22.6878 3.51832 19.7292 7.15452 19.7292H22.9095V21.6512H7.15452C4.57724 21.6512 2.48181 23.7468 2.48181 26.3244V88.6951Z" fill="#F9A01B"/>
<path d="M81.8453 129H7.15474C3.21039 129 0 125.789 0 121.844V26.3244C0 22.3797 3.21039 19.1689 7.15474 19.1689H23.47V22.2116H7.15474C4.88562 22.2116 3.0423 24.0551 3.0423 26.3188V121.839C3.0423 124.103 4.88562 125.946 7.15474 125.946H81.8509C84.1144 125.946 85.9577 124.103 85.9577 121.839V26.3244C85.9577 24.0607 84.1144 22.2172 81.8509 22.2172H65.3619V19.1745H81.8509C85.7952 19.1745 89.0056 22.3853 89.0056 26.33V121.85C89 125.789 85.7896 129 81.8453 129ZM1.12055 89.2555V121.844C1.12055 125.173 3.82669 127.879 7.15474 127.879H81.8509C85.1789 127.879 87.885 125.173 87.885 121.844V26.3244C87.885 22.996 85.1789 20.2896 81.8509 20.2896H66.4825V21.0909H81.8509C84.7363 21.0909 87.0782 23.4387 87.0782 26.3188V121.839C87.0782 124.725 84.7307 127.067 81.8509 127.067H7.15474C4.26931 127.067 1.92175 124.719 1.92175 121.839V89.2499H1.12055V89.2555ZM1.12055 87.7986H1.92175V26.3244C1.92175 23.4387 4.26931 21.0965 7.15474 21.0965H22.3494V20.2952H7.15474C3.82669 20.2896 1.12055 22.996 1.12055 26.3244V87.7986Z" fill="#F9A01B"/>
<path d="M56.8062 47.7011H13.4127C12.8356 47.7011 12.3706 47.2361 12.3706 46.6589C12.3706 46.0818 12.8356 45.6167 13.4127 45.6167H56.8118C57.3889 45.6167 57.8539 46.0818 57.8539 46.6589C57.8539 47.2361 57.3833 47.7011 56.8062 47.7011Z" fill="#2D2D82"/>
<path d="M56.8064 48.2615H13.4129C12.5277 48.2615 11.8105 47.5443 11.8105 46.6589C11.8105 45.7736 12.5277 45.0564 13.4129 45.0564H56.812C57.6972 45.0564 58.4144 45.7736 58.4144 46.6589C58.4144 47.5443 57.6916 48.2615 56.8064 48.2615ZM13.4129 46.1771C13.1496 46.1771 12.9311 46.3956 12.9311 46.6589C12.9311 46.9223 13.1496 47.1408 13.4129 47.1408H56.812C57.0753 47.1408 57.2938 46.9223 57.2938 46.6589C57.2938 46.3956 57.0753 46.1771 56.812 46.1771H13.4129Z" fill="#2D2D82"/>
<path d="M75.5813 47.7011H65.1041C64.527 47.7011 64.062 47.2361 64.062 46.6589C64.062 46.0818 64.527 45.6167 65.1041 45.6167H75.5813C76.1584 45.6167 76.6234 46.0818 76.6234 46.6589C76.6234 47.2361 76.1584 47.7011 75.5813 47.7011Z" fill="#2D2D82"/>
<path d="M75.5815 48.2615H65.1043C64.2191 48.2615 63.502 47.5443 63.502 46.6589C63.502 45.7736 64.2191 45.0564 65.1043 45.0564H75.5815C76.4668 45.0564 77.1839 45.7736 77.1839 46.6589C77.1839 47.5443 76.4612 48.2615 75.5815 48.2615ZM65.1043 46.1771C64.841 46.1771 64.6225 46.3956 64.6225 46.6589C64.6225 46.9223 64.841 47.1408 65.1043 47.1408H75.5815C75.8449 47.1408 76.0634 46.9223 76.0634 46.6589C76.0634 46.3956 75.8449 46.1771 75.5815 46.1771H65.1043Z" fill="#2D2D82"/>
<path d="M56.8065 56.8907H17.8224C17.2453 56.8907 16.7803 56.4256 16.7803 55.8485C16.7803 55.2714 17.2453 54.8063 17.8224 54.8063H56.8065C57.3836 54.8063 57.8486 55.2714 57.8486 55.8485C57.8542 56.4256 57.3836 56.8907 56.8065 56.8907Z" fill="#2D2D82"/>
<path d="M56.8067 57.4511H17.8226C16.9374 57.4511 16.2202 56.7339 16.2202 55.8485C16.2202 54.9632 16.9374 54.246 17.8226 54.246H56.8067C57.6919 54.246 58.4091 54.9632 58.4091 55.8485C58.4091 56.7339 57.6919 57.4511 56.8067 57.4511ZM17.8226 55.3666C17.5593 55.3666 17.3408 55.5852 17.3408 55.8485C17.3408 56.1119 17.5593 56.3304 17.8226 56.3304H56.8067C57.07 56.3304 57.2885 56.1119 57.2885 55.8485C57.2885 55.5852 57.07 55.3666 56.8067 55.3666H17.8226Z" fill="#2D2D82"/>
<path d="M75.5813 56.8907H65.1041C64.527 56.8907 64.062 56.4256 64.062 55.8485C64.062 55.2714 64.527 54.8063 65.1041 54.8063H75.5813C76.1584 54.8063 76.6234 55.2714 76.6234 55.8485C76.6234 56.4256 76.1584 56.8907 75.5813 56.8907Z" fill="#2D2D82"/>
<path d="M75.5815 57.4511H65.1043C64.2191 57.4511 63.502 56.7339 63.502 55.8485C63.502 54.9632 64.2191 54.246 65.1043 54.246H75.5815C76.4668 54.246 77.1839 54.9632 77.1839 55.8485C77.1839 56.7339 76.4612 57.4511 75.5815 57.4511ZM65.1043 55.3666C64.841 55.3666 64.6225 55.5852 64.6225 55.8485C64.6225 56.1119 64.841 56.3304 65.1043 56.3304H75.5815C75.8449 56.3304 76.0634 56.1119 76.0634 55.8485C76.0634 55.5852 75.8449 55.3666 75.5815 55.3666H65.1043Z" fill="#2D2D82"/>
<path d="M56.8063 66.0744H17.9567C17.3796 66.0744 16.9146 65.6094 16.9146 65.0322C16.9146 64.4551 17.3796 63.99 17.9567 63.99H56.8063C57.3834 63.99 57.8484 64.4551 57.8484 65.0322C57.854 65.6094 57.3834 66.0744 56.8063 66.0744Z" fill="#2D2D82"/>
<path d="M56.8065 66.6348H17.9569C17.0716 66.6348 16.3545 65.9176 16.3545 65.0322C16.3545 64.1469 17.0716 63.4297 17.9569 63.4297H56.8065C57.6917 63.4297 58.4089 64.1469 58.4089 65.0322C58.4089 65.9176 57.6917 66.6348 56.8065 66.6348ZM17.9569 64.5504C17.6936 64.5504 17.475 64.7689 17.475 65.0322C17.475 65.2956 17.6936 65.5141 17.9569 65.5141H56.8065C57.0698 65.5141 57.2883 65.2956 57.2883 65.0322C57.2883 64.7689 57.0698 64.5504 56.8065 64.5504H17.9569Z" fill="#2D2D82"/>
<path d="M75.5813 66.0744H65.1041C64.527 66.0744 64.062 65.6094 64.062 65.0322C64.062 64.4551 64.527 63.99 65.1041 63.99H75.5813C76.1584 63.99 76.6234 64.4551 76.6234 65.0322C76.6234 65.6094 76.1584 66.0744 75.5813 66.0744Z" fill="#2D2D82"/>
<path d="M75.5815 66.6348H65.1043C64.2191 66.6348 63.502 65.9176 63.502 65.0322C63.502 64.1469 64.2191 63.4297 65.1043 63.4297H75.5815C76.4668 63.4297 77.1839 64.1469 77.1839 65.0322C77.1839 65.9176 76.4612 66.6348 75.5815 66.6348ZM65.1043 64.5504C64.841 64.5504 64.6225 64.7689 64.6225 65.0322C64.6225 65.2956 64.841 65.5141 65.1043 65.5141H75.5815C75.8449 65.5141 76.0634 65.2956 76.0634 65.0322C76.0634 64.7689 75.8449 64.5504 75.5815 64.5504H65.1043Z" fill="#2D2D82"/>
<path d="M56.8064 75.2643H16.6906C16.1135 75.2643 15.6484 74.7992 15.6484 74.222C15.6484 73.6449 16.1135 73.1798 16.6906 73.1798H56.812C57.3891 73.1798 57.8541 73.6449 57.8541 74.222C57.8541 74.7936 57.3835 75.2643 56.8064 75.2643Z" fill="#2D2D82"/>
<path d="M56.8066 75.8187H16.6908C15.8055 75.8187 15.0884 75.1015 15.0884 74.2162C15.0884 73.3309 15.8055 72.6136 16.6908 72.6136H56.8122C57.6974 72.6136 58.4146 73.3309 58.4146 74.2162C58.4146 75.1015 57.6918 75.8187 56.8066 75.8187ZM16.6908 73.7343C16.4274 73.7343 16.2089 73.9528 16.2089 74.2162C16.2089 74.4796 16.4274 74.6981 16.6908 74.6981H56.8122C57.0755 74.6981 57.294 74.4796 57.294 74.2162C57.294 73.9528 57.0755 73.7343 56.8122 73.7343H16.6908Z" fill="#2D2D82"/>
<path d="M75.5813 75.2643H65.1041C64.527 75.2643 64.062 74.7992 64.062 74.222C64.062 73.6449 64.527 73.1798 65.1041 73.1798H75.5813C76.1584 73.1798 76.6234 73.6449 76.6234 74.222C76.6234 74.7936 76.1584 75.2643 75.5813 75.2643Z" fill="#2D2D82"/>
<path d="M75.5815 75.8187H65.1043C64.2191 75.8187 63.502 75.1015 63.502 74.2162C63.502 73.3309 64.2191 72.6136 65.1043 72.6136H75.5815C76.4668 72.6136 77.1839 73.3309 77.1839 74.2162C77.1839 75.1015 76.4612 75.8187 75.5815 75.8187ZM65.1043 73.7343C64.841 73.7343 64.6225 73.9528 64.6225 74.2162C64.6225 74.4796 64.841 74.6981 65.1043 74.6981H75.5815C75.8449 74.6981 76.0634 74.4796 76.0634 74.2162C76.0634 73.9528 75.8449 73.7343 75.5815 73.7343H65.1043Z" fill="#2D2D82"/>
<path d="M56.8062 84.4478H13.4127C12.8356 84.4478 12.3706 83.9827 12.3706 83.4056C12.3706 82.8284 12.8356 82.3633 13.4127 82.3633H56.8118C57.3889 82.3633 57.8539 82.8284 57.8539 83.4056C57.8539 83.9827 57.3833 84.4478 56.8062 84.4478Z" fill="#2D2D82"/>
<path d="M56.8064 85.0081H13.4129C12.5277 85.0081 11.8105 84.2909 11.8105 83.4056C11.8105 82.5203 12.5277 81.803 13.4129 81.803H56.812C57.6972 81.803 58.4144 82.5203 58.4144 83.4056C58.4144 84.2909 57.6916 85.0081 56.8064 85.0081ZM13.4129 82.9237C13.1496 82.9237 12.9311 83.1422 12.9311 83.4056C12.9311 83.669 13.1496 83.8875 13.4129 83.8875H56.812C57.0753 83.8875 57.2938 83.669 57.2938 83.4056C57.2938 83.1422 57.0753 82.9237 56.812 82.9237H13.4129Z" fill="#2D2D82"/>
<path d="M75.5813 84.4478H65.1041C64.527 84.4478 64.062 83.9827 64.062 83.4056C64.062 82.8284 64.527 82.3633 65.1041 82.3633H75.5813C76.1584 82.3633 76.6234 82.8284 76.6234 83.4056C76.6234 83.9827 76.1584 84.4478 75.5813 84.4478Z" fill="#2D2D82"/>
<path d="M75.5815 85.0081H65.1043C64.2191 85.0081 63.502 84.2909 63.502 83.4056C63.502 82.5203 64.2191 81.803 65.1043 81.803H75.5815C76.4668 81.803 77.1839 82.5203 77.1839 83.4056C77.1839 84.2909 76.4612 85.0081 75.5815 85.0081ZM65.1043 82.9237C64.841 82.9237 64.6225 83.1422 64.6225 83.4056C64.6225 83.669 64.841 83.8875 65.1043 83.8875H75.5815C75.8449 83.8875 76.0634 83.669 76.0634 83.4056C76.0634 83.1422 75.8449 82.9237 75.5815 82.9237H65.1043Z" fill="#2D2D82"/>
<path d="M56.8062 93.6375H13.4127C12.8356 93.6375 12.3706 93.1725 12.3706 92.5953C12.3706 92.0182 12.8356 91.5531 13.4127 91.5531H56.8118C57.3889 91.5531 57.8539 92.0182 57.8539 92.5953C57.8539 93.1725 57.3833 93.6375 56.8062 93.6375Z" fill="#2D2D82"/>
<path d="M56.8064 94.1979H13.4129C12.5277 94.1979 11.8105 93.4807 11.8105 92.5953C11.8105 91.71 12.5277 90.9928 13.4129 90.9928H56.812C57.6972 90.9928 58.4144 91.71 58.4144 92.5953C58.4144 93.4807 57.6916 94.1979 56.8064 94.1979ZM13.4129 92.1135C13.1496 92.1135 12.9311 92.332 12.9311 92.5953C12.9311 92.8587 13.1496 93.0772 13.4129 93.0772H56.812C57.0753 93.0772 57.2938 92.8587 57.2938 92.5953C57.2938 92.332 57.0753 92.1135 56.812 92.1135H13.4129Z" fill="#2D2D82"/>
<path d="M75.5813 93.6375H65.1041C64.527 93.6375 64.062 93.1725 64.062 92.5953C64.062 92.0182 64.527 91.5531 65.1041 91.5531H75.5813C76.1584 91.5531 76.6234 92.0182 76.6234 92.5953C76.6234 93.1725 76.1584 93.6375 75.5813 93.6375Z" fill="#2D2D82"/>
<path d="M75.5815 94.1979H65.1043C64.2191 94.1979 63.502 93.4807 63.502 92.5953C63.502 91.71 64.2191 90.9928 65.1043 90.9928H75.5815C76.4668 90.9928 77.1839 91.71 77.1839 92.5953C77.1839 93.4807 76.4612 94.1979 75.5815 94.1979ZM65.1043 92.1135C64.841 92.1135 64.6225 92.332 64.6225 92.5953C64.6225 92.8587 64.841 93.0772 65.1043 93.0772H75.5815C75.8449 93.0772 76.0634 92.8587 76.0634 92.5953C76.0634 92.332 75.8449 92.1135 75.5815 92.1135H65.1043Z" fill="#2D2D82"/>
<path d="M56.8062 102.81H13.4127C12.8356 102.81 12.3706 102.345 12.3706 101.768C12.3706 101.191 12.8356 100.726 13.4127 100.726H56.8118C57.3889 100.726 57.8539 101.191 57.8539 101.768C57.8539 102.339 57.3833 102.81 56.8062 102.81Z" fill="#2D2D82"/>
<path d="M56.8064 103.37H13.4129C12.5277 103.37 11.8105 102.653 11.8105 101.768C11.8105 100.883 12.5277 100.165 13.4129 100.165H56.812C57.6972 100.165 58.4144 100.883 58.4144 101.768C58.4144 102.653 57.6916 103.37 56.8064 103.37ZM13.4129 101.286C13.1496 101.286 12.9311 101.504 12.9311 101.768C12.9311 102.031 13.1496 102.25 13.4129 102.25H56.812C57.0753 102.25 57.2938 102.031 57.2938 101.768C57.2938 101.504 57.0753 101.286 56.812 101.286H13.4129Z" fill="#2D2D82"/>
<path d="M75.5813 102.81H65.1041C64.527 102.81 64.062 102.345 64.062 101.768C64.062 101.191 64.527 100.726 65.1041 100.726H75.5813C76.1584 100.726 76.6234 101.191 76.6234 101.768C76.6234 102.339 76.1584 102.81 75.5813 102.81Z" fill="#2D2D82"/>
<path d="M75.5815 103.37H65.1043C64.2191 103.37 63.502 102.653 63.502 101.768C63.502 100.883 64.2191 100.165 65.1043 100.165H75.5815C76.4668 100.165 77.1839 100.883 77.1839 101.768C77.1839 102.653 76.4612 103.37 75.5815 103.37ZM65.1043 101.286C64.841 101.286 64.6225 101.504 64.6225 101.768C64.6225 102.031 64.841 102.25 65.1043 102.25H75.5815C75.8449 102.25 76.0634 102.031 76.0634 101.768C76.0634 101.504 75.8449 101.286 75.5815 101.286H65.1043Z" fill="#2D2D82"/>
<path d="M56.8062 111.999H13.4127C12.8356 111.999 12.3706 111.534 12.3706 110.957C12.3706 110.38 12.8356 109.915 13.4127 109.915H56.8118C57.3889 109.915 57.8539 110.38 57.8539 110.957C57.8539 111.529 57.3833 111.999 56.8062 111.999Z" fill="#2D2D82"/>
<path d="M56.8064 112.56H13.4129C12.5277 112.56 11.8105 111.843 11.8105 110.957C11.8105 110.072 12.5277 109.355 13.4129 109.355H56.812C57.6972 109.355 58.4144 110.072 58.4144 110.957C58.4144 111.843 57.6916 112.56 56.8064 112.56ZM13.4129 110.475C13.1496 110.475 12.9311 110.694 12.9311 110.957C12.9311 111.221 13.1496 111.439 13.4129 111.439H56.812C57.0753 111.439 57.2938 111.221 57.2938 110.957C57.2938 110.694 57.0753 110.475 56.812 110.475H13.4129Z" fill="#2D2D82"/>
<path d="M75.5813 111.999H65.1041C64.527 111.999 64.062 111.534 64.062 110.957C64.062 110.38 64.527 109.915 65.1041 109.915H75.5813C76.1584 109.915 76.6234 110.38 76.6234 110.957C76.6234 111.529 76.1584 111.999 75.5813 111.999Z" fill="#2D2D82"/>
<path d="M75.5815 112.56H65.1043C64.2191 112.56 63.502 111.843 63.502 110.957C63.502 110.072 64.2191 109.355 65.1043 109.355H75.5815C76.4668 109.355 77.1839 110.072 77.1839 110.957C77.1839 111.843 76.4612 112.56 75.5815 112.56ZM65.1043 110.475C64.841 110.475 64.6225 110.694 64.6225 110.957C64.6225 111.221 64.841 111.439 65.1043 111.439H75.5815C75.8449 111.439 76.0634 111.221 76.0634 110.957C76.0634 110.694 75.8449 110.475 75.5815 110.475H65.1043Z" fill="#2D2D82"/>
<path d="M66.4597 30.8687H22.3771C21.8 30.8687 21.335 30.4036 21.335 29.8265V24.1447C21.335 20.4353 24.3493 17.4207 28.0583 17.4207H60.7841C64.4875 17.4207 67.5074 20.4409 67.5074 24.1447V29.8321C67.5018 30.4036 67.0367 30.8687 66.4597 30.8687ZM23.4192 28.7843H65.4175V24.1447C65.4175 21.584 63.3389 19.5052 60.7785 19.5052H28.0583C25.5034 19.5052 23.4192 21.584 23.4192 24.1447V28.7843Z" fill="#F9A01B"/>
<path d="M66.4599 31.4291H22.3773C21.4921 31.4291 20.7749 30.7119 20.7749 29.8265V24.1447C20.7749 20.1272 24.0413 16.8604 28.0585 16.8604H60.7843C64.8015 16.8604 68.0679 20.1272 68.0679 24.1447V29.8321C68.0623 30.7119 67.3451 31.4291 66.4599 31.4291ZM28.0585 17.9811C24.6632 17.9811 21.8955 20.7491 21.8955 24.1447V29.8321C21.8955 30.0955 22.114 30.314 22.3773 30.314H66.4599C66.7232 30.314 66.9417 30.0955 66.9417 29.8321V24.1447C66.9417 20.7435 64.1796 17.9811 60.7787 17.9811H28.0585ZM65.978 29.3446H22.8591V24.1447C22.8591 21.2758 25.1899 18.9449 28.0585 18.9449H60.7843C63.6529 18.9449 65.9836 21.2758 65.9836 24.1447V29.3446H65.978ZM23.9797 28.224H64.8575V24.1447C64.8575 21.8922 63.031 20.0655 60.7787 20.0655H28.0585C25.8118 20.0655 23.9797 21.8978 23.9797 24.1447V28.224Z" fill="#F9A01B"/>
<path d="M54.4195 19.5052H34.4176C33.8405 19.5052 33.3755 19.0402 33.3755 18.463V10.2261C33.3755 9.64898 33.8405 9.1839 34.4176 9.1839H39.3704C39.7458 9.1839 40.0932 9.38562 40.2781 9.71061C41.1241 11.2067 42.7097 12.1313 44.4185 12.1313C46.133 12.1313 47.7242 11.2067 48.5702 9.71061C48.7551 9.38562 49.1025 9.1839 49.4778 9.1839H54.4307C55.0078 9.1839 55.4728 9.64898 55.4728 10.2261V18.463C55.4616 19.0346 54.9966 19.5052 54.4195 19.5052ZM35.4597 17.4208H53.3774V11.2627H50.0437C48.7719 13.095 46.6709 14.2157 44.4129 14.2157C42.1662 14.2157 40.0596 13.1006 38.7934 11.2627H35.4597V17.4208Z" fill="#F9A01B"/>
<path d="M54.4197 20.0656H34.4178C33.5326 20.0656 32.8154 19.3484 32.8154 18.4631V10.2262C32.8154 9.34082 33.5326 8.6236 34.4178 8.6236H39.3707C39.9478 8.6236 40.48 8.93738 40.7658 9.43608C41.5109 10.7529 42.9116 11.5766 44.4188 11.5766C45.9315 11.5766 47.3322 10.7585 48.083 9.44168C48.3687 8.93738 48.901 8.6292 49.4781 8.6292H54.4309C55.3162 8.6292 56.0333 9.34643 56.0333 10.2318V18.4687C56.0221 19.3428 55.3049 20.0656 54.4197 20.0656ZM34.4178 9.73866C34.1545 9.73866 33.936 9.95719 33.936 10.2205V18.4575C33.936 18.7208 34.1545 18.9393 34.4178 18.9393H54.4197C54.683 18.9393 54.9015 18.7208 54.9015 18.4575V10.2205C54.9015 9.95719 54.683 9.73866 54.4197 9.73866H49.4669C49.2932 9.73866 49.1363 9.83392 49.0467 9.98521C48.1054 11.655 46.3293 12.6916 44.4132 12.6916C42.5026 12.6916 40.7265 11.655 39.7853 9.98521C39.7012 9.83392 39.5388 9.73866 39.3651 9.73866H34.4178ZM53.9379 17.9812H34.8997V10.7024H39.0905L39.2586 10.9434C40.4352 12.6412 42.3625 13.6498 44.4188 13.6498C46.4806 13.6498 48.4135 12.6356 49.5901 10.9378L49.7582 10.6968H53.9491V17.9812H53.9379ZM36.0202 16.8605H52.8173V11.8231H50.3297C48.929 13.6778 46.7439 14.7761 44.4132 14.7761C42.088 14.7761 39.9029 13.6778 38.5078 11.8231H36.0202V16.8605Z" fill="#F9A01B"/>
<path d="M44.413 14.2156C40.648 14.2156 37.5889 11.1562 37.5889 7.39637C37.5889 3.62533 40.6536 0.560303 44.413 0.560303C48.1781 0.560303 51.2484 3.62533 51.2484 7.39637C51.2484 11.1562 48.1837 14.2156 44.413 14.2156ZM44.413 2.64474C41.8022 2.64474 39.6731 4.77401 39.6731 7.39077C39.6731 10.0019 41.7965 12.1256 44.413 12.1256C47.0295 12.1256 49.1586 10.0019 49.1586 7.39077C49.1642 4.77401 47.0295 2.64474 44.413 2.64474Z" fill="#F9A01B"/>
<path d="M44.4133 14.776C40.34 14.776 37.0288 11.4644 37.0288 7.3964C37.0288 3.31717 40.34 0 44.4133 0C48.4921 0 51.8089 3.31717 51.8089 7.3964C51.8089 11.4644 48.4921 14.776 44.4133 14.776ZM44.4133 1.12067C40.962 1.12067 38.1494 3.93354 38.1494 7.3964C38.1494 10.8481 40.9564 13.6553 44.4133 13.6553C47.8702 13.6553 50.6884 10.8481 50.6884 7.3964C50.6884 3.93354 47.8758 1.12067 44.4133 1.12067ZM44.4133 12.6916C41.4942 12.6916 39.113 10.3157 39.113 7.3964C39.113 4.47146 41.4886 2.09004 44.4133 2.09004C47.3379 2.09004 49.7247 4.47146 49.7247 7.3964C49.7247 10.3157 47.3435 12.6916 44.4133 12.6916ZM44.4133 3.20511C42.1105 3.20511 40.2336 5.08223 40.2336 7.3908C40.2336 9.69377 42.1105 11.5653 44.4133 11.5653C46.7216 11.5653 48.6041 9.69377 48.6041 7.3908C48.6041 5.08223 46.7216 3.20511 44.4133 3.20511Z" fill="#F9A01B"/>
</g>
<defs>
<clipPath id="clip0_1_132">
<rect width="89" height="129" fill="white"/>
</clipPath>
</defs>
</svg>
