<svg width="77" height="125" viewBox="0 0 77 125" fill="none" xmlns="http://www.w3.org/2000/svg">
<g clip-path="url(#clip0_1_1120)">
<path d="M64.2862 2.72107H17.8147V80.6765H64.2862V2.72107Z" fill="white"/>
<path d="M36.2111 125H14.2063C13.2452 125 12.4189 124.313 12.2419 123.376L10.3449 113.136C9.80532 110.206 9.5271 107.217 9.5271 104.245V82.0244C9.5271 78.8848 11.9046 76.306 14.9398 76.147C16.2466 76.0632 17.4859 76.44 18.5314 77.1684C19.619 75.8958 21.1787 75.0586 22.9408 74.9665C24.4162 74.8827 25.841 75.3097 27.0045 76.1721C28.0921 74.7906 29.7193 73.8864 31.5656 73.786C32.4762 73.7357 33.3867 73.8864 34.2214 74.2129V59.1761C34.2214 55.7099 36.8434 52.8549 40.1905 52.6791C41.9273 52.587 43.5966 53.1982 44.8697 54.3871C46.1175 55.5676 46.8341 57.2253 46.8341 58.9333V93.729L56.867 84.6617C58.7386 82.9705 60.9476 82.3593 62.9204 83.0123C64.8258 83.6403 66.1832 85.3399 66.6553 87.6758C67.0347 89.5847 66.4361 91.5355 65.045 92.9002L49.0683 108.657C45.7381 111.939 42.8547 115.64 40.494 119.667L37.9395 124.012C37.5769 124.623 36.9193 125 36.2111 125ZM15.8672 121.031H35.0645L37.0373 117.666C39.5751 113.346 42.6692 109.369 46.2439 105.844L62.2206 90.087C62.659 89.66 62.8445 89.0405 62.7265 88.4377C62.5494 87.5418 62.1616 86.9306 61.6642 86.7716C61.1077 86.5874 60.3152 86.8888 59.548 87.5837L46.1765 99.6734C45.5948 100.201 44.7517 100.335 44.0266 100.025C43.3015 99.7069 42.8378 98.9953 42.8378 98.2166V58.9333C42.8378 58.297 42.5849 57.7026 42.1128 57.2672C41.6491 56.8318 41.0252 56.6058 40.3929 56.6393C39.1872 56.7063 38.2008 57.8449 38.2008 59.1761V80.0485C38.2008 81.1453 37.3071 82.0328 36.2027 82.0328C35.0982 82.0328 34.2045 81.1453 34.2045 80.0485C34.2045 79.4122 33.9516 78.8178 33.4795 78.3824C33.0158 77.9387 32.3919 77.721 31.7596 77.7545C30.5539 77.8215 29.5675 78.9601 29.5675 80.2913V81.229C29.5675 82.3258 28.6738 83.2133 27.5694 83.2133C26.4649 83.2133 25.5712 82.3258 25.5712 81.229C25.5712 80.5927 25.3099 79.9983 24.8462 79.5629C24.3825 79.1192 23.7586 78.9015 23.1262 78.935C21.9206 79.002 20.9342 80.1406 20.9342 81.4802V81.8318C20.9342 82.9286 20.0405 83.8161 18.9361 83.8161C17.8316 83.8161 16.9379 82.9286 16.9379 81.8318C16.9379 81.3546 16.744 80.9192 16.3983 80.5927C16.0527 80.2662 15.5974 80.1071 15.1168 80.1239C14.2231 80.1741 13.4897 81.0281 13.4897 82.0411V104.253C13.4897 106.991 13.7426 109.737 14.24 112.433L15.8672 121.031Z" fill="#2D2D8B"/>
<path d="M36.2109 82.0161C35.1149 82.0161 34.2212 81.137 34.2128 80.0402C34.1875 79.3537 33.9346 78.7927 33.4877 78.3741C33.024 77.9387 32.4086 77.7294 31.7678 77.7461C30.6212 77.8048 29.6685 78.8597 29.6011 80.1407C29.5421 81.1872 28.6652 82.0077 27.6114 82.0077C26.5069 82.0077 25.7313 81.43 25.4783 80.5844C25.1748 79.5546 24.2052 78.8764 23.1429 78.9267C22.165 78.9769 21.4989 79.7137 21.1954 80.3835C20.9678 80.9025 20.5293 81.296 19.9898 81.4719C19.4502 81.6477 18.86 81.5807 18.371 81.296C16.7776 80.3751 15.7827 78.6671 15.7827 76.8587V5.14903C15.7827 2.31078 18.1097 0 20.9678 0H61.5629C64.4209 0 66.7479 2.31078 66.7479 5.14903V76.867C66.7479 79.7053 64.4209 82.0161 61.5629 82.0161H44.8358C43.7314 82.0161 42.8377 81.1286 42.8377 80.0318V58.9334C42.8377 58.2971 42.5848 57.7026 42.1126 57.2673C41.6489 56.8319 41.025 56.6058 40.3927 56.6393C39.1871 56.7063 38.2007 57.8449 38.2007 59.1762V80.0402C38.2091 81.1286 37.3154 82.0161 36.2109 82.0161C36.2194 82.0161 36.2109 82.0161 36.2109 82.0161ZM46.834 78.0559H61.5713C62.2289 78.0559 62.7685 77.5201 62.7685 76.867V5.14903C62.7685 4.49598 62.2289 3.96015 61.5713 3.96015H20.9762C20.3186 3.96015 19.779 4.49598 19.779 5.14903V76.0633C20.7064 75.4186 21.7856 75.0335 22.9406 74.9749C24.4413 74.8828 25.8746 75.3516 27.0128 76.1889C28.1004 74.7991 29.7275 73.8865 31.5655 73.7944C32.476 73.7441 33.3866 73.8948 34.2212 74.2214V59.1762C34.2212 55.71 36.8433 52.855 40.1904 52.6792C41.9271 52.5871 43.5965 53.1983 44.8695 54.3871C46.1173 55.5676 46.834 57.2254 46.834 58.9334V78.0559Z" fill="#2D2D8B"/>
<path d="M51.8673 125H1.99814C0.893682 125 0 124.112 0 123.016C0 121.919 0.893682 121.031 1.99814 121.031H51.8673C52.9717 121.031 53.8654 121.919 53.8654 123.016C53.8654 124.112 52.9717 125 51.8673 125Z" fill="#2D2D8B"/>
<path d="M75.0103 125H51.8673C50.7628 125 49.8691 124.112 49.8691 123.016C49.8691 121.919 50.7628 121.031 51.8673 121.031H75.0103C76.1147 121.031 77.0084 121.919 77.0084 123.016C77.0084 124.112 76.1063 125 75.0103 125Z" fill="#2D2D8B"/>
<path d="M36.211 93.1177C35.1066 93.1177 34.2129 92.2302 34.2129 91.1334V80.0316C34.2129 78.9348 35.1066 78.0474 36.211 78.0474C37.3155 78.0474 38.2092 78.9348 38.2092 80.0316V91.1334C38.2092 92.2302 37.3155 93.1177 36.211 93.1177Z" fill="#2D2D8B"/>
<path d="M27.6114 91.5269C26.507 91.5269 25.6133 90.6395 25.6133 89.5427V80.0316C25.6133 78.9348 26.507 78.0474 27.6114 78.0474C28.7159 78.0474 29.6096 78.9348 29.6096 80.0316V89.5427C29.6096 90.6395 28.7159 91.5269 27.6114 91.5269Z" fill="#2D2D8B"/>
<path d="M18.9613 93.3774C17.8568 93.3774 16.9631 92.4899 16.9631 91.3931V81.8151C16.9631 80.7183 17.8568 79.8308 18.9613 79.8308C20.0657 79.8308 20.9594 80.7183 20.9594 81.8151V91.3931C20.9594 92.4899 20.0657 93.3774 18.9613 93.3774Z" fill="#2D2D8B"/>
<path d="M52.7273 10.5659H29.8203C27.8391 10.5659 26.2288 8.96679 26.2288 6.99928V1.97584C26.2288 0.879052 27.1224 -0.00842285 28.2269 -0.00842285H54.3292C55.4336 -0.00842285 56.3273 0.879052 56.3273 1.97584V6.99928C56.3189 8.96679 54.7086 10.5659 52.7273 10.5659ZM30.2166 6.60578H52.331V3.9601H30.2166V6.60578Z" fill="#2D2D8B"/>
<path d="M44.8359 61.5456C44.5914 61.5456 44.3553 61.5037 44.1193 61.4116C43.352 61.1186 42.8462 60.3818 42.8462 59.5613V58.925C42.8462 58.2887 42.5933 57.6942 42.1211 57.2589C41.6574 56.8235 41.0335 56.5975 40.4012 56.631C39.4316 56.6812 38.5717 57.4598 38.3103 58.5315C38.1333 59.2431 37.5768 59.7957 36.8602 59.9799C36.1436 60.1557 35.3932 59.9297 34.8958 59.3938L25.3266 48.92C22.654 45.998 21.8868 41.862 23.3201 38.1363C24.7028 34.5445 27.7801 32.1668 31.5487 31.7733C31.9618 31.7314 32.3749 31.7063 32.7965 31.7063C36.034 31.7063 39.0944 33.0375 41.2949 35.3064C43.4954 33.0375 46.5558 31.7063 49.7933 31.7063C53.9666 31.7733 57.4486 34.1008 59.0505 37.7847C60.7198 41.6192 60.0201 45.8975 57.221 48.9618L46.3113 60.8925C45.9319 61.3195 45.3923 61.5456 44.8359 61.5456ZM40.5361 52.6708C42.1548 52.6708 43.6809 53.2736 44.8696 54.3871C45.2406 54.7304 45.561 55.1239 45.8307 55.5342L54.2786 46.291C56.3442 44.0305 56.2093 41.2257 55.3999 39.3503C54.405 37.0814 52.3647 35.6999 49.9282 35.6581C47.0111 35.6581 44.4228 37.1567 43.0317 39.5596C42.315 40.7904 40.2832 40.7904 39.575 39.5596C38.1839 37.1484 35.5871 35.6581 32.8049 35.6581C32.5267 35.6581 32.2485 35.6748 31.9702 35.6999C29.7276 35.9344 27.8812 37.366 27.055 39.5345C26.1613 41.862 26.6334 44.4324 28.2943 46.2492L35.9918 54.6718C37.071 53.4913 38.5633 52.7545 40.2073 52.6708C40.3085 52.6708 40.4181 52.6708 40.5361 52.6708Z" fill="#B91E73"/>
</g>
<defs>
<clipPath id="clip0_1_1120">
<rect width="77" height="125" fill="white"/>
</clipPath>
</defs>
</svg>
