<svg width="116" height="132" viewBox="0 0 116 132" fill="none" xmlns="http://www.w3.org/2000/svg">
<g clip-path="url(#clip0_1_710)">
<path d="M57.8 29.49C37.79 29.49 21.5 45.77 21.5 65.79C21.5 85.81 37.78 102.09 57.8 102.09C77.81 102.09 94.1 85.81 94.1 65.79C94.1 45.78 77.81 29.49 57.8 29.49Z" fill="white"/>
<path d="M57.8 131.61C57.52 131.61 57.24 131.55 56.98 131.44C56.25 131.11 38.97 123.32 23.33 110.9C8.49 98.37 0 80.12 0 60.78V15.49C0 14.91 0.25 14.36 0.69 13.98C1.13 13.6 1.71 13.43 2.29 13.52C5.9 14.06 9.6 14.33 13.28 14.33C28.89 14.33 43.81 9.54999 56.45 0.489993C57.14 -0.130007 58.32 -0.160007 59.05 0.429993C71.71 9.52999 86.67 14.33 102.31 14.33C104.89 14.33 107.49 14.2 110.04 13.93C111.13 13.82 112.12 14.61 112.24 15.71C112.35 16.81 111.56 17.79 110.46 17.91C107.78 18.19 105.04 18.33 102.32 18.33C86.27 18.33 70.92 13.53 57.81 4.43999C44.7 13.53 29.34 18.33 13.3 18.33C10.2 18.33 7.09 18.15 4.02 17.78V60.78C4.02 78.93 11.99 96.07 25.88 107.8C39.19 118.36 54.19 125.7 57.82 127.4C61.44 125.69 76.45 118.35 89.8 107.76C89.81 107.75 89.81 107.75 89.82 107.74C103.67 96.02 111.61 78.91 111.61 60.78V41.24C111.61 40.14 112.51 39.24 113.61 39.24C114.71 39.24 115.61 40.14 115.61 41.24V60.78C115.61 80.12 107.13 98.37 92.33 110.85C92.29 110.88 92.25 110.91 92.21 110.94C76.58 123.32 59.35 131.1 58.62 131.43C58.36 131.55 58.08 131.61 57.8 131.61Z" fill="#2D2D82"/>
<path d="M57.7998 104.5C36.4498 104.5 19.0898 87.13 19.0898 65.79C19.0898 44.44 36.4598 27.08 57.7998 27.08C79.1398 27.08 96.5098 44.45 96.5098 65.79C96.5098 87.14 79.1498 104.5 57.7998 104.5ZM57.7998 29.49C37.7898 29.49 21.4998 45.77 21.4998 65.79C21.4998 85.81 37.7798 102.09 57.7998 102.09C77.8098 102.09 94.0998 85.81 94.0998 65.79C94.0998 45.78 77.8098 29.49 57.7998 29.49Z" fill="#F9A01B" stroke="#F9A01B" stroke-miterlimit="10"/>
<path d="M62.5399 92.1099H52.7799V83.9599C48.6199 83.0599 44.7199 81.2999 41.7199 78.9599L40.9399 78.3499L45.8499 68.3899L47.0299 69.3899C50.1799 72.0599 55.6299 74.3099 58.9499 74.3099C59.9999 74.3099 61.2399 74.1199 61.2399 73.2299C61.2399 72.1199 58.5699 71.4299 55.9899 70.7599C50.6899 69.3899 43.4399 67.5099 43.4399 59.3199C43.4399 53.8899 46.9099 49.7599 52.7799 48.1099V40.1599H62.5399V47.6299C66.6599 48.1499 70.6599 49.5399 73.6699 51.4999L74.5599 52.0799L69.7999 61.9899L68.6699 61.3499C65.0899 59.3099 60.3699 57.7099 57.9299 57.7099C57.3299 57.7099 56.3199 57.7899 56.3199 58.3499C56.3199 59.3799 58.9199 60.0899 61.4299 60.7799C66.7899 62.2499 74.1299 64.2599 74.1299 72.6999C74.1299 78.9299 69.8199 83.2199 62.5399 84.3199V92.1099ZM55.1899 89.6899H60.1199V82.1799L61.1999 82.0699C64.3599 81.7399 71.6999 80.1599 71.6999 72.7099C71.6999 66.1199 65.8999 64.5199 60.7799 63.1199C57.2399 62.1499 53.8899 61.2299 53.8899 58.3599C53.8899 56.8799 54.9499 55.2999 57.9199 55.2999C60.8599 55.2999 65.3399 56.8899 68.7199 58.6399L71.4399 52.9799C68.5899 51.3599 64.9299 50.2599 61.2199 49.9299L60.1199 49.8299V42.5899H55.1899V50.0299L54.2499 50.2399C48.9099 51.4499 45.8499 54.7599 45.8499 59.3299C45.8499 65.6499 51.5599 67.1299 56.5899 68.4399C60.2199 69.3799 63.6499 70.2699 63.6499 73.2399C63.6499 74.0599 63.3099 76.7399 58.9399 76.7399C55.4199 76.7399 50.3099 74.8099 46.6699 72.1899L43.9799 77.6499C46.8099 79.6399 50.3999 81.0999 54.1899 81.7899L55.1799 81.9699V89.6899H55.1899Z" fill="#F9A01B" stroke="#F9A01B" stroke-miterlimit="10"/>
</g>
<defs>
<clipPath id="clip0_1_710">
<rect width="115.6" height="131.61" fill="white"/>
</clipPath>
</defs>
</svg>
