<svg width="89" height="127" viewBox="0 0 89 127" fill="none" xmlns="http://www.w3.org/2000/svg">
<g clip-path="url(#clip0_1_1087)">
<path d="M80.9122 45.9833L80.3105 45.8418V35.4935C80.3105 34.4764 79.4787 33.645 78.4612 33.645H28.7404C27.7228 33.645 26.8911 34.4764 26.8911 35.4935V45.8771L26.307 46.0275C21.5376 47.2392 18.2017 51.5112 18.2017 56.4111V116.272C18.2017 122.18 23.033 126.991 28.9705 126.991H78.2399C84.1774 126.991 89.0088 122.18 89.0088 116.272V56.4288C88.9999 51.3873 85.6728 47.0977 80.9122 45.9833ZM66.5331 116.634V123.312H37.8723V116.634H66.5331ZM62.33 106.259V112.937H33.6691V106.259H62.33ZM68.3737 112.937H66.0288V106.259H68.3737C69.3913 106.259 70.223 105.428 70.223 104.411V95.8847H72.5679C73.5855 95.8847 74.4173 95.0533 74.4173 94.0361V83.6614C74.4173 82.6442 73.5855 81.8129 72.5679 81.8129H70.223V73.2866C70.223 72.2695 69.3913 71.4381 68.3737 71.4381H36.0229C35.0053 71.4381 34.1735 72.2695 34.1735 73.2866V83.6614C34.1735 84.6785 35.0053 85.5099 36.0229 85.5099H38.3678V92.1876H36.0229C35.0053 92.1876 34.1735 93.019 34.1735 94.0361V102.562H31.8286C30.811 102.562 29.9793 103.394 29.9793 104.411V114.786C29.9793 115.803 30.811 116.634 31.8286 116.634H34.1735V123.312H28.9705C25.0682 123.312 21.9004 120.163 21.9004 116.289V56.4288C21.9004 52.5548 25.0682 49.4061 28.9705 49.4061H59.1887C60.2063 49.4061 61.0381 48.5747 61.0381 47.5576C61.0381 46.5405 60.2063 45.7091 59.1887 45.7091H30.5898V37.3509H76.6118V47.5576C76.6118 48.5747 77.4436 49.4061 78.4612 49.4061C82.3015 49.4061 85.3012 52.4929 85.3012 56.4288V116.289C85.3012 120.163 82.1245 123.312 78.2311 123.312H70.2319V114.786C70.2319 113.76 69.4001 112.937 68.3737 112.937ZM66.5331 95.8847V102.562H37.8723V95.8847H66.5331ZM70.7274 85.5099V92.1876H42.0665V85.5099H70.7274ZM66.5331 75.1352V81.8129H37.8723V75.1352H66.5331Z" fill="#2D2D8B"/>
<path d="M35.1823 35.3254C35.0761 34.5383 35.0053 33.7334 35.0053 32.9109C35.0053 22.6688 43.3407 14.3283 53.5964 14.3283C63.852 14.3283 72.1874 22.6599 72.1874 32.9109C72.1874 33.7334 72.1166 34.5294 72.0105 35.3254H74.4262C74.5146 34.5294 74.5677 33.7334 74.5677 32.9109C74.5677 21.3509 65.1616 11.9491 53.5964 11.9491C42.0311 11.9491 32.625 21.3509 32.625 32.9109C32.625 33.7246 32.6781 34.5294 32.7666 35.3254H35.1823Z" fill="#2D2D8B"/>
<path d="M74.8155 35.7677H71.5061L71.568 35.2724C71.6831 34.3791 71.7361 33.6273 71.7361 32.9197C71.7361 22.9165 63.5954 14.7794 53.5875 14.7794C43.5797 14.7794 35.4389 22.9165 35.4389 32.9197C35.4389 33.6273 35.492 34.3791 35.607 35.2724L35.6689 35.7677H32.3595L32.333 35.3786C32.2356 34.5383 32.1914 33.7069 32.1914 32.9197C32.1914 21.121 41.7922 11.5157 53.6052 11.5157C65.4182 11.5157 75.019 21.1122 75.019 32.9197C75.019 33.7069 74.9659 34.5383 74.8774 35.3786L74.8155 35.7677ZM72.5148 34.8833H74.028C74.0899 34.2111 74.1253 33.5477 74.1253 32.9109C74.1253 21.5986 64.9138 12.3914 53.5964 12.3914C42.2789 12.3914 33.0674 21.5986 33.0674 32.9109C33.0674 33.5477 33.1028 34.2022 33.1648 34.8833H34.6779C34.5982 34.158 34.5629 33.5212 34.5629 32.9109C34.5629 22.4212 43.1018 13.8861 53.5964 13.8861C64.0909 13.8861 72.6299 22.4212 72.6299 32.9109C72.6299 33.53 72.5945 34.158 72.5148 34.8833Z" fill="#2D2D8B"/>
<path d="M51.4108 35.3255H55.9767C55.2511 34.7949 54.145 34.503 52.9859 34.2023C50.3667 33.5212 47.4023 32.7606 47.4023 29.5058C47.4023 27.1531 48.9863 25.4461 51.7471 24.8181L52.3311 24.6855V20.785H54.7114V24.597L55.3927 24.6589C57.2952 24.827 59.1622 25.3753 60.6488 26.2067L59.3127 28.9928C57.7288 28.1879 55.3396 27.2769 53.6672 27.2769C52.0214 27.2769 51.4285 28.1702 51.4285 29.0016C51.4285 30.6025 53.2336 31.0978 55.1449 31.6196C57.4456 32.2476 60.0117 32.9552 60.6577 35.3344H62.1973C61.5425 31.8408 58.1181 30.8855 55.5431 30.178C54.3751 29.8596 52.9239 29.4616 52.9239 29.0016C52.9239 28.8601 53.2159 28.7717 53.6584 28.7717C54.9326 28.7717 57.3925 29.6031 59.2684 30.6733L59.9675 31.0713L62.5778 25.6495L62.0292 25.2957C60.4453 24.2698 58.3836 23.5445 56.2156 23.2526V19.2991H50.8445V23.518C47.7563 24.4113 45.9158 26.649 45.9158 29.5058C45.9158 33.3178 48.8004 34.5826 51.4108 35.3255Z" fill="#2D2D8B"/>
<path d="M62.7282 35.7677H60.3214L60.2329 35.4405C59.6489 33.3001 57.2952 32.6633 55.0299 32.0353C53.0389 31.4869 50.9861 30.9297 50.9861 28.9928C50.9861 27.9933 51.6851 26.8258 53.6672 26.8258C55.2777 26.8258 57.4544 27.6041 59.1091 28.3913L60.0736 26.3924C58.7021 25.7026 57.0474 25.2515 55.3661 25.1011L54.2778 25.0038V21.236H52.7823V25.048L51.8532 25.2603C49.3136 25.8352 47.8536 27.383 47.8536 29.5146C47.8536 32.4245 50.5259 33.1143 53.1009 33.7777C54.2424 34.0784 55.4281 34.3791 56.2422 34.9717L57.3306 35.7677L51.2869 35.75C48.5792 34.9717 45.4645 33.5654 45.4645 29.5057C45.4645 26.5428 47.2962 24.199 50.3932 23.1907V18.8568H56.6492V22.8634C58.7463 23.1907 60.7284 23.9159 62.2681 24.9154L63.1441 25.4814L60.2241 31.5665C61.3921 32.3714 62.3124 33.5124 62.6398 35.2371L62.7282 35.7677ZM60.9851 34.8833H61.6399C60.8081 32.0707 57.8349 31.257 55.4281 30.5936C53.6053 30.0895 52.4903 29.7445 52.4903 28.9928C52.4903 28.7451 52.6408 28.3206 53.6672 28.3206C55.0299 28.3206 57.5341 29.1608 59.4985 30.2841L59.7816 30.4433L62.0115 25.7998L61.7903 25.6495C60.2683 24.6589 58.2685 23.9513 56.1537 23.6771L55.7732 23.6241V19.7324H51.2869V23.8452L50.9684 23.9425C48.0837 24.7827 46.3582 26.8612 46.3582 29.5057C46.3582 32.9198 48.8093 34.1138 51.4727 34.8833H53.8176C53.4991 34.7948 53.1805 34.7064 52.8708 34.6268C50.2339 33.9457 46.9599 33.0967 46.9599 29.5057C46.9599 26.932 48.6677 25.0657 51.6497 24.3935L51.8886 24.3405V20.3516H55.1538V24.199L55.4369 24.2255C57.4013 24.4024 59.3304 24.9684 60.87 25.8264L61.2328 26.0298L59.5162 29.603L59.1091 29.3996C57.5872 28.6301 55.2511 27.728 53.6672 27.728C52.5434 27.728 51.8709 28.2056 51.8709 29.0104C51.8709 30.1868 53.154 30.6202 55.26 31.2039C57.5518 31.8142 60.1356 32.5218 60.9851 34.8833ZM53.9592 29.2227C54.4901 29.4173 55.2157 29.6207 55.6582 29.7445C56.2599 29.9126 56.9147 30.0895 57.5695 30.3106C56.2422 29.7269 54.8618 29.3112 53.9592 29.2227Z" fill="#2D2D8B"/>
<path d="M82.859 29.7534C82.859 29.7888 82.859 29.8242 82.8502 29.8507C82.4962 32.4068 81.7883 34.9629 80.7442 37.4483C80.2841 38.545 79.7531 39.6683 79.1603 40.765C78.9744 41.1188 78.5232 41.2603 78.1692 41.0657C77.8153 40.88 77.6737 40.4377 77.8684 40.0751C78.4347 39.0138 78.9479 37.9347 79.3903 36.8734C80.3814 34.503 81.0627 32.0707 81.3901 29.6473C81.4432 29.2493 81.8149 28.9663 82.2131 29.0193C82.5936 29.0812 82.859 29.3908 82.859 29.7534ZM82.744 21.696C82.744 22.0409 82.4962 22.3505 82.1334 22.4124C81.7352 22.4831 81.3547 22.2178 81.284 21.8198C80.6557 18.2023 79.2399 14.8149 77.072 11.7546C76.8419 11.4274 76.9127 10.9674 77.249 10.7375C77.5764 10.5075 78.0365 10.5783 78.2666 10.9144C80.5584 14.1515 82.0626 17.7424 82.7263 21.5721C82.7351 21.6164 82.744 21.6606 82.744 21.696ZM74.8864 47.2127C74.8864 47.3631 74.8421 47.5223 74.7359 47.655C72.4176 50.7417 69.8249 53.6605 67.365 56.3404C67.0907 56.6411 66.6305 56.6588 66.3297 56.3846C66.0288 56.1104 66.0111 55.6505 66.2854 55.3498C68.7188 52.6875 71.2849 49.813 73.5591 46.7705C73.798 46.4432 74.2581 46.3813 74.5855 46.6201C74.7802 46.7705 74.8864 46.9916 74.8864 47.2127ZM72.7538 5.6076C72.7538 5.75795 72.7096 5.90831 72.6122 6.03214C72.3733 6.35939 71.9132 6.43015 71.5947 6.19134C68.6215 4.03325 65.1528 2.5562 61.5691 1.91054C61.1709 1.83978 60.9055 1.45947 60.9762 1.06146C61.047 0.66345 61.4275 0.398111 61.8257 0.468868C65.6306 1.1499 69.3028 2.72425 72.453 5.00616C72.6476 5.15652 72.7538 5.38648 72.7538 5.6076ZM54.3751 1.14106C54.3751 1.49484 54.1274 1.80441 53.7646 1.85747C52.8797 2.00783 51.9948 2.2201 51.1454 2.4766C50.756 2.59158 50.349 2.37931 50.2339 1.99014C50.1189 1.60098 50.3313 1.19413 50.7206 1.07915C51.632 0.796119 52.5788 0.575003 53.5257 0.4158C53.9238 0.345043 54.3043 0.619226 54.3663 1.01723C54.3663 1.06146 54.3751 1.09684 54.3751 1.14106Z" fill="#B91E73"/>
<path d="M68.3738 112.937H66.0289V106.259H68.3738C69.3914 106.259 70.2231 105.428 70.2231 104.411V95.8846H72.568C73.5856 95.8846 74.4174 95.0532 74.4174 94.036V83.6613C74.4174 82.6442 73.5856 81.8128 72.568 81.8128H70.2231V73.2866C70.2231 72.2694 69.3914 71.438 68.3738 71.438H36.023C35.0054 71.438 34.1736 72.2694 34.1736 73.2866V83.6613C34.1736 84.6784 35.0054 85.5098 36.023 85.5098H38.3679V92.1875H36.023C35.0054 92.1875 34.1736 93.0189 34.1736 94.036V102.562H31.8287C30.8111 102.562 29.9794 103.394 29.9794 104.411V114.786C29.9794 115.803 30.8111 116.634 31.8287 116.634H34.1736V123.312H28.9706C25.0683 123.312 21.9005 120.163 21.9005 116.289V56.4287C21.9005 52.5547 25.0683 49.4061 28.9706 49.4061H59.1888C60.2064 49.4061 61.0382 48.5747 61.0382 47.5575C61.0382 46.5404 60.2064 45.709 59.1888 45.709H30.5899V37.3508H76.6119V47.5575C76.6119 48.5747 77.4437 49.4061 78.4613 49.4061C82.3016 49.4061 85.3013 52.4928 85.3013 56.4287V116.289C85.3013 120.163 82.1246 123.312 78.2312 123.312H70.232V114.786C70.232 113.76 69.4002 112.937 68.3738 112.937Z" fill="white"/>
</g>
<defs>
<clipPath id="clip0_1_1087">
<rect width="89" height="127" fill="white"/>
</clipPath>
</defs>
</svg>
