<svg width="130" height="127" viewBox="0 0 130 127" fill="none" xmlns="http://www.w3.org/2000/svg">
<path d="M81.257 111.977H24.6375C16.328 111.977 9.56543 105.237 9.56543 96.9545V17.4699C9.56543 9.18757 16.328 2.44714 24.6375 2.44714H81.2499C89.5594 2.44714 96.322 9.18757 96.322 17.4699V96.9474C96.3291 105.237 89.5665 111.977 81.257 111.977ZM24.6375 5.27628C17.8891 5.27628 12.4039 10.7507 12.4039 17.4699V96.9474C12.4039 103.674 17.8962 109.141 24.6375 109.141H81.2499C87.9983 109.141 93.4836 103.667 93.4836 96.9474V17.4699C93.4836 10.7436 87.9912 5.27628 81.2499 5.27628H24.6375Z" fill="#2D2D82"/>
<path d="M29.9102 22.7533H77.5532" stroke="#F9A01B" stroke-width="4" stroke-miterlimit="10" stroke-linecap="round" stroke-linejoin="round"/>
<path d="M29.9102 37.5636H77.5532" stroke="#F9A01B" stroke-width="4" stroke-miterlimit="10" stroke-linecap="round" stroke-linejoin="round"/>
<path d="M29.9102 52.3816H77.5532" stroke="#F9A01B" stroke-width="4" stroke-miterlimit="10" stroke-linecap="round" stroke-linejoin="round"/>
<path d="M29.9102 67.1919H77.5532" stroke="#F9A01B" stroke-width="4" stroke-miterlimit="10" stroke-linecap="round" stroke-linejoin="round"/>
<path d="M93.8457 102.952C76.5313 102.952 62.4385 88.9125 62.4385 71.6477C62.4385 54.3899 76.5242 40.3433 93.8457 40.3433C111.167 40.3433 125.253 54.3829 125.253 71.6477C125.253 88.9125 111.16 102.952 93.8457 102.952Z" fill="white"/>
<path d="M76.1836 73.3734L82.6197 83.2542L111.508 60.0482" stroke="#F9A01B" stroke-width="4" stroke-miterlimit="10" stroke-linecap="round" stroke-linejoin="round"/>
</svg>
