<svg width="109" height="150" viewBox="0 0 109 150" fill="none" xmlns="http://www.w3.org/2000/svg">
<g clip-path="url(#clip0_1_1048)">
<path d="M54.5001 129.635C24.5748 129.635 0.236816 105.265 0.236816 75.3128C0.236816 45.3602 24.5843 21 54.5001 21C84.4159 21 108.763 45.3602 108.763 75.3128C108.763 105.275 84.4253 129.635 54.5001 129.635Z" fill="white"/>
<path d="M54.4999 129.635C24.5747 129.635 0.236694 105.265 0.236694 75.3127C0.236694 45.3601 24.5841 20.9999 54.4999 20.9999C84.4158 20.9999 108.763 45.3601 108.763 75.3127C108.763 105.275 84.4252 129.635 54.4999 129.635ZM54.4999 24.3932C26.4497 24.3932 3.61749 47.2368 3.61749 75.3221C3.61749 103.407 26.4403 126.251 54.4999 126.251C82.5502 126.251 105.382 103.407 105.382 75.3221C105.382 47.2368 82.5596 24.3932 54.4999 24.3932Z" fill="#2D2D8C" stroke="#2D2D8C" stroke-width="0.5" stroke-miterlimit="10"/>
<path d="M61.1384 112.242H47.4637V100.82C41.6301 99.5591 36.1659 97.0946 31.9612 93.8055L30.8722 92.9524L37.7664 78.9809L39.4236 80.3837C43.8367 84.1278 51.479 87.2842 56.1288 87.2842C57.5966 87.2842 59.3391 87.0188 59.3391 85.7676C59.3391 84.2131 55.5984 83.2463 51.9714 82.3079C44.5469 80.3837 34.3761 77.7487 34.3761 66.251C34.3761 58.6396 39.2437 52.8387 47.4637 50.5259V39.3695H61.1479V49.8529C66.9151 50.5828 72.5308 52.5259 76.745 55.2747L77.995 56.0899L71.3092 69.9951L69.7277 69.0946C64.7181 66.2321 58.0985 63.9951 54.6704 63.9951C53.8275 63.9951 52.407 64.1088 52.407 64.8956C52.407 66.3363 56.053 67.3411 59.5758 68.3079C67.0856 70.3742 77.3795 73.1989 77.3795 85.0283C77.3795 93.7676 71.3471 99.7866 61.1384 101.332V112.242ZM50.8445 108.858H57.7576V98.3174L59.2728 98.1562C63.6953 97.6918 73.9987 95.4832 73.9987 85.0283C73.9987 75.7771 65.8639 73.5401 58.6857 71.5686C53.7139 70.2036 49.0262 68.9145 49.0262 64.8861C49.0262 62.8103 50.5036 60.6017 54.6704 60.6017C58.7993 60.6017 65.0779 62.8387 69.8129 65.2842L73.6294 57.3505C69.633 55.0757 64.5003 53.5306 59.3012 53.0662L57.7576 52.9335V42.7629H50.8445V53.2084L49.5281 53.5117C42.0468 55.2084 37.7569 59.8529 37.7569 66.2605C37.7569 75.1325 45.7496 77.2084 52.8142 79.0378C57.9091 80.3553 62.7199 81.6065 62.7199 85.7771C62.7199 86.924 62.2464 90.6776 56.1193 90.6776C51.1949 90.6776 44.0166 87.9667 38.9217 84.2889L35.1432 91.9477C39.1111 94.7439 44.1397 96.7913 49.4619 97.7581L50.8539 98.0141V108.858H50.8445Z" fill="#2D2D8C" stroke="#2D2D8C" stroke-width="0.5" stroke-miterlimit="10"/>
<path d="M93.9616 18.7014C93.6396 18.7014 93.3271 18.5782 93.0808 18.3412C92.077 17.3649 90.8933 16.2559 89.6338 15.346C89.6148 15.3365 89.6053 15.327 89.5864 15.3081L86.9348 13.2227C86.9253 13.2133 86.9159 13.2038 86.8969 13.1943L82.0767 10.1232C81.6505 9.88626 81.1865 9.65877 80.7793 9.45024L77.1807 7.63981C76.6314 7.36493 76.3094 6.73934 76.4799 6.15166C76.7072 5.35545 77.5784 4.99526 78.2792 5.34597L81.9157 7.17536C82.3513 7.39337 82.8532 7.63981 83.3362 7.91469C83.3551 7.92417 83.3835 7.94313 83.4025 7.95261L88.2606 11.0521C88.3458 11.109 88.4216 11.1564 88.4879 11.2133L91.1206 13.2796C92.4937 14.2654 93.7248 15.4313 94.7854 16.4455C95.3158 16.9573 95.3537 17.8483 94.8139 18.3412C94.5771 18.5972 94.2741 18.7014 93.9616 18.7014ZM16.2411 15.7536C15.7297 16.1801 14.9721 16.1517 14.5175 15.6588L14.4702 15.6114C13.9967 15.09 14.044 14.2749 14.5743 13.8199C16.3358 12.3318 18.2014 11.0616 20.0196 9.83886L21.317 8.95735C21.3833 8.90995 21.459 8.86256 21.5537 8.81517L25.9194 6.41706C26.1751 6.27488 26.4308 6.1327 26.7054 6C26.7244 5.99052 26.7433 5.98104 26.7623 5.97156L30.001 4.58768C30.2472 4.48341 30.4745 4.3981 30.7018 4.3128C31.2795 4.08531 31.9518 4.2654 32.2833 4.78673C32.7284 5.48815 32.4064 6.37915 31.6772 6.66351C31.4405 6.75829 31.2132 6.8436 30.9764 6.93839L27.785 8.29384C27.5767 8.3981 27.3683 8.51185 27.1411 8.63507L22.7564 11.0427L21.4496 11.9337C19.6976 13.1374 17.8888 14.3507 16.2411 15.7536ZM64.3393 3.59242C64.2636 3.59242 64.1878 3.58294 64.1026 3.57346C60.4187 2.891 56.6591 2.54028 52.9185 2.54028C51.5737 2.54028 50.21 2.58768 48.8653 2.67299C47.5868 2.75829 46.2895 2.891 45.0015 3.08057C44.3955 3.16588 43.7704 2.8436 43.5621 2.2654C43.2875 1.47867 43.7988 0.682464 44.5754 0.56872C45.9485 0.369668 47.3406 0.227488 48.6948 0.132701C50.0964 0.0473934 51.5169 0 52.9185 0C56.7917 0 60.6934 0.36019 64.5098 1.06161C65.1822 1.18483 65.6841 1.81043 65.5988 2.49289C65.5041 3.13744 64.9549 3.59242 64.3393 3.59242Z" fill="#B91E73"/>
<path d="M94.5297 19.3745C94.4634 19.3745 94.3971 19.365 94.3214 19.3555C93.4217 19.2133 92.2285 19.0237 90.969 18.9195C89.1413 18.8152 87.3041 18.7678 85.4953 18.7583C84.7945 18.7583 84.2263 18.1896 84.2263 17.4882C84.2263 16.7868 84.7945 16.2181 85.4953 16.2181C87.3514 16.2181 89.2454 16.2749 91.1205 16.3792C91.13 16.3792 91.1489 16.3792 91.1584 16.3792C91.7455 16.4266 92.3232 16.4929 92.8535 16.5593C92.7209 16.038 92.5978 15.564 92.4652 15.1185C91.8592 13.2702 91.1773 11.3934 90.4576 9.53559C90.2019 8.88156 90.5239 8.14222 91.1773 7.8863C91.8307 7.63038 92.5694 7.95265 92.8251 8.60668C93.5638 10.5119 94.2551 12.4361 94.8801 14.3318C94.8801 14.3413 94.8896 14.3602 94.8896 14.3697C95.1831 15.346 95.4578 16.4361 95.7608 17.8105C95.8555 18.2181 95.7324 18.6541 95.4388 18.9574C95.2115 19.2323 94.8801 19.3745 94.5297 19.3745Z" fill="#B91E73"/>
<path d="M56.0815 150C52.1987 150 48.3066 149.64 44.4901 148.938C43.8367 148.815 43.3348 148.228 43.4011 147.564C43.4769 146.806 44.1682 146.294 44.8974 146.436C48.5812 147.119 52.3408 147.469 56.0815 147.469C57.4262 147.469 58.7899 147.422 60.1346 147.337C61.432 147.251 62.7484 147.109 64.0647 146.92C64.8034 146.815 65.4757 147.356 65.5136 148.114C65.5515 148.777 65.0306 149.356 64.3677 149.45C63.0041 149.649 61.6404 149.792 60.2956 149.877C58.9035 149.953 57.483 150 56.0815 150ZM77.7868 145.792C77.247 145.792 76.7451 145.45 76.5746 144.901C76.3757 144.247 76.7545 143.564 77.389 143.308C77.5974 143.223 77.8152 143.138 78.0235 143.052L81.2149 141.697C81.4232 141.593 81.6316 141.479 81.8589 141.356L86.253 138.948L87.5598 138.057C89.3118 136.872 91.1111 135.649 92.7683 134.256C93.2797 133.829 94.0279 133.858 94.4919 134.351L94.5392 134.398C95.0127 134.92 94.9654 135.735 94.4351 136.19C92.6736 137.687 90.808 138.948 88.9898 140.171L87.6924 141.052C87.6261 141.1 87.5409 141.147 87.4557 141.194L83.09 143.593C82.8343 143.735 82.5786 143.877 82.304 144.01C82.285 144.019 82.2661 144.029 82.2471 144.038L79.0084 145.422C78.7432 145.526 78.497 145.63 78.2603 145.725C78.0993 145.763 77.9383 145.792 77.7868 145.792ZM31.2889 144.777C31.0995 144.777 30.9007 144.73 30.7207 144.645L27.0842 142.815C26.6486 142.597 26.1467 142.351 25.6637 142.076C25.6448 142.066 25.6164 142.047 25.5974 142.038L20.7393 138.938C20.6541 138.882 20.5783 138.834 20.512 138.777L17.8794 136.711C16.5062 135.725 15.2656 134.559 14.2145 133.536C13.7315 133.071 13.6463 132.303 14.063 131.782C14.5365 131.194 15.4077 131.147 15.938 131.668C16.9418 132.645 18.1256 133.754 19.3851 134.664C19.404 134.673 19.4135 134.683 19.4325 134.702L22.0841 136.787C22.0935 136.796 22.103 136.806 22.1219 136.815L26.9422 139.886C27.3683 140.123 27.8324 140.351 28.2396 140.559L31.8287 142.37C32.4159 142.664 32.7284 143.356 32.5011 143.972C32.2833 144.465 31.7908 144.777 31.2889 144.777Z" fill="#B91E73"/>
<path d="M17.3491 142.18C16.8377 142.18 16.3642 141.867 16.1653 141.365C15.4267 139.46 14.7354 137.536 14.1103 135.64C14.1103 135.63 14.1009 135.611 14.1009 135.602C13.8073 134.626 13.5327 133.536 13.2296 132.161C13.1349 131.754 13.258 131.318 13.5516 131.014C13.8452 130.711 14.2619 130.569 14.6785 130.635C15.5782 130.777 16.7714 130.967 18.0309 131.071C19.8586 131.175 21.6958 131.223 23.5046 131.232C24.2054 131.232 24.7736 131.801 24.7736 132.502C24.7736 133.204 24.2054 133.773 23.5046 133.773C21.6485 133.773 19.7545 133.716 17.8794 133.611C17.8699 133.611 17.851 133.611 17.8415 133.611C17.2544 133.564 16.6767 133.498 16.1464 133.431C16.279 133.953 16.4021 134.417 16.5347 134.872C17.1502 136.72 17.8226 138.597 18.5423 140.455C18.798 141.109 18.476 141.848 17.8226 142.104C17.6616 142.152 17.5006 142.18 17.3491 142.18Z" fill="#B91E73"/>
</g>
<defs>
<clipPath id="clip0_1_1048">
<rect width="109" height="150" fill="white"/>
</clipPath>
</defs>
</svg>
