<svg width="126" height="126" viewBox="0 0 126 126" fill="none" xmlns="http://www.w3.org/2000/svg">
<path d="M37.5186 125.447C29.2087 125.447 21.3619 122.75 14.8276 117.642C5.7567 110.55 0.55127 99.8812 0.55127 88.3669C0.55127 79.4838 3.73849 70.8881 9.52291 64.1663C16.5756 55.9963 26.7769 51.3087 37.5186 51.3087C38.0866 51.3087 38.5443 51.7675 38.5443 52.3369C38.5443 52.9062 38.0866 53.3651 37.5186 53.3651C27.3724 53.3651 17.7336 57.7928 11.0724 65.5096C5.61333 71.861 2.60256 79.9813 2.60256 88.3669C2.60256 99.24 7.52125 109.317 16.0904 116.017C22.2608 120.837 29.6719 123.385 37.5186 123.385C46.6943 123.385 55.3571 119.848 61.908 113.419C68.696 106.769 72.4347 97.8691 72.4347 88.3614C72.4347 78.9531 69.6279 71.4187 63.8545 65.3382C63.5292 64.9955 63.1818 64.6472 62.8234 64.3045C55.5336 57.2455 51.5192 47.771 51.5192 37.622C51.5192 28.7333 54.7009 20.1321 60.4743 13.4048C67.5325 5.24028 77.7338 0.552734 88.4756 0.552734C108.862 0.552734 125.448 17.1858 125.448 37.6275C125.448 48.0805 121.009 58.1024 113.273 65.1171C106.452 71.2861 97.6457 74.6857 88.4756 74.6857C87.9076 74.6857 87.4499 74.2269 87.4499 73.6575C87.4499 73.0881 87.9076 72.6293 88.4756 72.6293C97.1384 72.6293 105.459 69.4177 111.894 63.5914C119.201 56.9636 123.392 47.5001 123.392 37.6275C123.392 18.319 107.726 2.60906 88.47 2.60906C78.3239 2.60906 68.685 7.03681 62.0238 14.7536C56.5703 21.1105 53.565 29.2308 53.565 37.6275C53.565 47.2126 57.3533 56.1676 64.2405 62.8286C64.621 63.1934 64.985 63.5583 65.3324 63.9231C71.4862 70.4072 74.4805 78.4003 74.4805 88.3614C74.4805 98.4274 70.5212 107.847 63.3362 114.884C56.4103 121.699 47.2347 125.447 37.5186 125.447Z" fill="#F9A01B"/>
<path d="M37.5188 126C29.0875 126 21.125 123.258 14.4914 118.079C5.28263 110.882 0 100.053 0 88.3669C0 79.3511 3.23133 70.6283 9.10398 63.8015C16.2614 55.5099 26.6172 50.756 37.5188 50.756C38.39 50.756 39.0958 51.4635 39.0958 52.3369C39.0958 53.2103 38.39 53.9179 37.5188 53.9179C27.5325 53.9179 18.0481 58.2738 11.4916 65.8689C6.11527 72.1208 3.15414 80.1085 3.15414 88.3669C3.15414 99.0687 7.99562 108.991 16.4324 115.58C22.5035 120.323 29.7989 122.833 37.5188 122.833C46.5511 122.833 55.0761 119.35 61.5222 113.021C68.2054 106.476 71.8834 97.7199 71.8834 88.3614C71.8834 79.1024 69.1263 71.6952 63.4577 65.7197C63.1379 65.3825 62.796 65.0397 62.4431 64.7026C55.043 57.5386 50.968 47.9202 50.968 37.622C50.968 28.6007 54.1938 19.8723 60.0554 13.04C67.2184 4.75388 77.5741 0 88.4757 0C109.165 0 126 16.8818 126 37.6275C126 48.2353 121.495 58.4064 113.643 65.5262C106.722 71.7892 97.7837 75.2385 88.4757 75.2385C87.6045 75.2385 86.8986 74.5309 86.8986 73.6575C86.8986 72.7842 87.6045 72.0766 88.4757 72.0766C97.0007 72.0766 105.189 68.9147 111.525 63.1769C118.716 56.6541 122.84 47.3398 122.84 37.622C122.84 18.6175 107.423 3.15636 88.4702 3.15636C78.4839 3.15636 68.9995 7.51224 62.4431 15.1074C57.0777 21.3593 54.1221 29.358 54.1221 37.622C54.1221 47.0579 57.8552 55.8692 64.6267 62.4306C65.0127 62.801 65.3821 63.1714 65.7351 63.5417C71.9937 70.1364 75.032 78.2511 75.032 88.3614C75.032 98.5767 71.0177 108.134 63.7224 115.282C56.6917 122.197 47.3837 126 37.5188 126ZM37.5188 51.8615C26.937 51.8615 16.8846 56.4772 9.93663 64.5257C4.24044 71.1535 1.10284 79.622 1.10284 88.3669C1.10284 99.7099 6.23107 110.218 15.1696 117.205C21.6047 122.236 29.3357 124.894 37.5188 124.894C47.0915 124.894 56.1238 121.202 62.9559 114.497C70.0361 107.559 73.9347 98.2838 73.9347 88.3669C73.9347 78.5551 70.9901 70.6836 64.941 64.3046C64.5991 63.9453 64.2407 63.5859 63.8657 63.2266C56.8737 56.4551 53.0193 47.3675 53.0193 37.622C53.0193 29.0927 56.0686 20.8397 61.6104 14.3833C68.3764 6.54488 78.1696 2.04528 88.4757 2.04528C108.035 2.04528 123.949 18.004 123.949 37.6165C123.949 47.6439 119.692 57.2566 112.27 63.995C105.73 69.9152 97.2764 73.1766 88.4757 73.1766C88.2165 73.1766 88.0015 73.3922 88.0015 73.652C88.0015 73.9118 88.2165 74.1274 88.4757 74.1274C97.508 74.1274 106.187 70.7776 112.904 64.697C120.524 57.7818 124.897 47.9147 124.897 37.6165C124.897 17.4899 108.559 1.10555 88.4757 1.10555C77.8994 1.10555 67.8415 5.72124 60.8936 13.7697C55.2084 20.3975 52.0708 28.8715 52.0708 37.6275C52.0708 47.6273 56.0245 56.9637 63.204 63.9121C63.568 64.2603 63.9154 64.6141 64.2517 64.9624C70.1299 71.1535 72.9863 78.8094 72.9863 88.3669C72.9863 98.024 69.187 107.062 62.2942 113.817C55.6385 120.345 46.8378 123.944 37.5188 123.944C29.5452 123.944 22.0183 121.357 15.7541 116.454C7.04718 109.649 2.05129 99.4114 2.05129 88.3669C2.05129 79.8431 5.10617 71.5957 10.6535 65.1448C17.4194 57.3064 27.2127 52.8068 37.5188 52.8068C37.7779 52.8068 37.993 52.5912 37.993 52.3314C37.993 52.0716 37.7835 51.8615 37.5188 51.8615Z" fill="#F9A01B"/>
<path d="M62.3718 114.911C61.9307 114.911 61.5226 114.624 61.3903 114.181C59.7801 108.842 54.7897 105.116 49.2535 105.116H45.2171C44.6491 105.116 44.1914 104.657 44.1914 104.088C44.1914 103.518 44.6491 103.06 45.2171 103.06H49.2535C55.6886 103.06 61.4895 107.388 63.3533 113.584C63.5188 114.126 63.21 114.701 62.6696 114.867C62.5648 114.895 62.4655 114.911 62.3718 114.911Z" fill="#2D2D82"/>
<path d="M62.3716 115.464C61.6713 115.464 61.0647 115.011 60.8607 114.342C59.3222 109.234 54.5469 105.669 49.2478 105.669H45.2113C44.3401 105.669 43.6343 104.961 43.6343 104.088C43.6343 103.214 44.3401 102.507 45.2113 102.507H49.2478C55.9255 102.507 61.9415 106.995 63.877 113.43C63.9983 113.833 63.9542 114.264 63.7557 114.635C63.5572 115.005 63.2263 115.282 62.8238 115.403C62.6749 115.442 62.5205 115.464 62.3716 115.464ZM45.2113 103.612C44.9522 103.612 44.7371 103.828 44.7371 104.088C44.7371 104.348 44.9522 104.563 45.2113 104.563H49.2478C55.0267 104.563 60.2376 108.455 61.9139 114.021C61.9856 114.264 62.2503 114.414 62.504 114.336C62.7576 114.259 62.8955 113.994 62.8238 113.745C61.0261 107.78 55.4457 103.612 49.2533 103.612H45.2113Z" fill="#2D2D82"/>
<path d="M15.8371 117.393C15.7985 117.393 15.7655 117.393 15.7269 117.388C15.1644 117.327 14.7564 116.818 14.817 116.255C15.578 109.085 21.5774 103.419 28.768 103.071C28.9775 103.054 29.2367 103.054 29.4793 103.054H33.5047C34.0727 103.054 34.5304 103.513 34.5304 104.082C34.5304 104.652 34.0727 105.111 33.5047 105.111H29.4793C29.2974 105.111 29.0823 105.111 28.8948 105.122C22.6803 105.42 17.519 110.301 16.8628 116.47C16.7966 117.001 16.3555 117.393 15.8371 117.393Z" fill="#2D2D82"/>
<path d="M15.837 117.946C15.7819 117.946 15.7267 117.946 15.6716 117.935C14.8059 117.841 14.1772 117.062 14.271 116.194C15.0595 108.759 21.2851 102.877 28.7403 102.518C28.9498 102.502 29.2256 102.502 29.4792 102.502H33.5046C34.3758 102.502 35.0817 103.209 35.0817 104.083C35.0817 104.956 34.3758 105.663 33.5046 105.663H29.4792C29.2862 105.663 29.0987 105.663 28.9333 105.675C22.9835 105.962 18.0372 110.627 17.4086 116.531C17.3148 117.338 16.6421 117.946 15.837 117.946ZM29.4737 103.613C29.2476 103.613 29.005 103.613 28.801 103.629C21.8641 103.966 16.0962 109.422 15.3628 116.321C15.3352 116.581 15.5227 116.819 15.7819 116.846H15.8315C16.0741 116.846 16.2726 116.664 16.3002 116.421C16.984 109.981 22.3824 104.89 28.8561 104.58C29.0381 104.569 29.2311 104.569 29.4406 104.569H33.4936C33.7527 104.569 33.9678 104.353 33.9678 104.094C33.9678 103.834 33.7527 103.618 33.4936 103.618H29.4737V103.613Z" fill="#2D2D82"/>
<path d="M39.3553 116.979C38.9637 116.979 38.6108 116.758 38.4344 116.409L32.5893 104.558C32.3356 104.049 32.5452 103.436 33.0525 103.181C33.5598 102.933 34.1774 103.137 34.4255 103.646L39.3497 113.634L44.2298 103.723C44.2464 103.679 44.2629 103.635 44.285 103.59C44.5496 103.087 45.1783 102.877 45.6801 103.143C46.1433 103.386 46.3528 103.928 46.1653 104.409C46.1488 104.453 46.1322 104.497 46.1157 104.536L40.2706 116.404C40.0997 116.758 39.7412 116.979 39.3553 116.979Z" fill="#2D2D82"/>
<path d="M39.3552 117.532C38.7596 117.532 38.2027 117.189 37.9435 116.653L32.0984 104.801C31.911 104.425 31.8834 103.994 32.0157 103.596C32.1536 103.198 32.4348 102.872 32.8098 102.684C33.5928 102.297 34.5357 102.618 34.9217 103.397L39.3497 112.38L43.7224 103.497C43.7445 103.436 43.7721 103.38 43.7996 103.325C43.9926 102.955 44.34 102.667 44.7426 102.54C45.1451 102.413 45.5697 102.452 45.9392 102.651C46.645 103.027 46.9648 103.867 46.6836 104.602C46.667 104.646 46.6395 104.713 46.6119 104.779L40.7668 116.647C40.4966 117.194 39.9562 117.532 39.3552 117.532ZM33.5101 103.624C33.4384 103.624 33.3667 103.64 33.3006 103.673C33.1848 103.729 33.102 103.828 33.0634 103.944C33.0248 104.066 33.0304 104.193 33.0855 104.309L38.9306 116.161C39.0905 116.481 39.6199 116.487 39.7798 116.161L45.6248 104.293C45.6359 104.27 45.6414 104.254 45.6469 104.232C45.7406 103.988 45.6414 103.745 45.4263 103.629C45.316 103.574 45.1947 103.563 45.0734 103.596C44.9466 103.635 44.8418 103.723 44.7812 103.839C44.7701 103.861 44.7591 103.883 44.7536 103.906L44.7315 103.961L39.3552 114.878L33.9402 103.889C33.852 103.723 33.6865 103.624 33.5101 103.624Z" fill="#2D2D82"/>
<path d="M39.355 99.6602C31.7619 99.6602 25.5859 93.4691 25.5859 85.8518C25.5859 78.2346 31.7619 72.0435 39.355 72.0435C46.948 72.0435 53.1295 78.2346 53.1295 85.8518C53.1295 93.4691 46.948 99.6602 39.355 99.6602ZM39.355 74.0998C32.8923 74.0998 27.6372 79.3733 27.6372 85.8518C27.6372 92.3304 32.8923 97.6039 39.355 97.6039C45.8176 97.6039 51.0782 92.3304 51.0782 85.8518C51.0727 79.3733 45.8176 74.0998 39.355 74.0998Z" fill="#2D2D82"/>
<path d="M39.3551 100.213C31.4587 100.213 25.0347 93.7732 25.0347 85.8519C25.0347 77.9306 31.4587 71.4907 39.3551 71.4907C47.2515 71.4907 53.6811 77.9306 53.6811 85.8519C53.6811 93.7732 47.2515 100.213 39.3551 100.213ZM39.3551 72.5963C32.0653 72.5963 26.1375 78.5442 26.1375 85.8519C26.1375 93.1596 32.0653 99.1075 39.3551 99.1075C46.6449 99.1075 52.5782 93.1596 52.5782 85.8519C52.5782 78.5442 46.6449 72.5963 39.3551 72.5963ZM39.3551 98.1567C32.5892 98.1567 27.086 92.64 27.086 85.8519C27.086 79.0638 32.5892 73.5471 39.3551 73.5471C46.1211 73.5471 51.6298 79.0638 51.6298 85.8519C51.6298 92.64 46.1211 98.1567 39.3551 98.1567ZM39.3551 74.6526C33.1957 74.6526 28.1888 79.6773 28.1888 85.8519C28.1888 92.0264 33.2012 97.0511 39.3551 97.0511C45.5145 97.0511 50.5269 92.0264 50.5269 85.8519C50.5269 79.6773 45.5145 74.6526 39.3551 74.6526Z" fill="#2D2D82"/>
<path d="M112.396 65.1722C111.828 65.1722 111.371 64.7134 111.371 64.144V63.2154C111.371 56.1288 105.619 50.3688 98.5502 50.3688H94.4807C93.9128 50.3688 93.4551 49.91 93.4551 49.3407C93.4551 48.7713 93.9128 48.3125 94.4807 48.3125H98.5502C106.75 48.3125 113.422 54.9956 113.422 63.2154V64.144C113.422 64.7079 112.964 65.1722 112.396 65.1722Z" fill="#F9A01B"/>
<path d="M112.397 65.725C111.525 65.725 110.82 65.0175 110.82 64.1441V63.2154C110.82 56.4328 105.316 50.9216 98.5504 50.9216H94.4809C93.6096 50.9216 92.9038 50.2141 92.9038 49.3407C92.9038 48.4673 93.6096 47.7598 94.4809 47.7598H98.5504C107.053 47.7598 113.974 54.6916 113.974 63.2154V64.1441C113.974 65.0119 113.268 65.725 112.397 65.725ZM94.4864 48.8653C94.2272 48.8653 94.0122 49.0809 94.0122 49.3407C94.0122 49.6005 94.2272 49.8161 94.4864 49.8161H98.5559C105.928 49.8161 111.928 55.8303 111.928 63.2154V64.1441C111.928 64.4039 112.143 64.6195 112.402 64.6195C112.661 64.6195 112.876 64.4039 112.876 64.1441V63.2154C112.876 55.2996 106.452 48.8653 98.5559 48.8653H94.4864Z" fill="#F9A01B"/>
<path d="M64.7371 65.526C64.1691 65.526 63.7114 65.0672 63.7114 64.4978V63.2154C63.7114 55.272 69.9094 48.7271 77.8168 48.3291C78.0539 48.3125 78.3241 48.3125 78.5778 48.3125H82.6473C83.2152 48.3125 83.6729 48.7713 83.6729 49.3407C83.6729 49.91 83.2152 50.3688 82.6473 50.3688H78.5778C78.3737 50.3744 78.1477 50.3688 77.9381 50.3799C71.106 50.7281 65.7627 56.3665 65.7627 63.2154V64.4978C65.7627 65.0672 65.305 65.526 64.7371 65.526Z" fill="#F9A01B"/>
<path d="M64.7372 66.0788C63.866 66.0788 63.1602 65.3712 63.1602 64.4979V63.2154C63.1602 54.9735 69.5842 48.1909 77.7894 47.7763C78.032 47.7598 78.3132 47.7598 78.5779 47.7598H82.6474C83.5187 47.7598 84.2245 48.4673 84.2245 49.3407C84.2245 50.2141 83.5187 50.9217 82.6474 50.9217L78.3518 50.9272C78.225 50.9272 78.0982 50.9272 77.9769 50.9382C71.437 51.2699 66.3198 56.665 66.3198 63.2209V64.5034C66.3143 65.3712 65.6085 66.0788 64.7372 66.0788ZM78.5779 48.8653C78.3353 48.8653 78.0817 48.8653 77.8556 48.8819C70.2294 49.2688 64.263 55.565 64.263 63.2154V64.4979C64.263 64.7577 64.4781 64.9732 64.7372 64.9732C64.9964 64.9732 65.2114 64.7577 65.2114 64.4979V63.2154C65.2114 56.068 70.7863 50.192 77.9052 49.8272C78.043 49.8161 78.1919 49.8161 78.3353 49.8161H78.5559H82.6419C82.9011 49.8161 83.1161 49.6005 83.1161 49.3407C83.1161 49.0809 82.9011 48.8653 82.6419 48.8653H78.5779Z" fill="#F9A01B"/>
<path d="M88.5697 62.3587C88.1782 62.3587 87.8253 62.1376 87.6488 61.7894L81.7431 49.8107C81.4895 49.3021 81.699 48.6886 82.2063 48.4343C82.7191 48.18 83.3312 48.3956 83.5793 48.8986L88.5642 59.0089L93.5546 48.882C93.7972 48.3901 94.3982 48.1579 94.9 48.3845C95.4018 48.6112 95.6445 49.175 95.4404 49.6891L89.4906 61.7839C89.3196 62.1376 88.9612 62.3587 88.5697 62.3587Z" fill="#F9A01B"/>
<path d="M88.5696 62.9116C87.9685 62.9116 87.4226 62.5744 87.1524 62.0327L81.2467 50.054C80.8607 49.2746 81.1805 48.3238 81.9635 47.9369C82.7465 47.5499 83.695 47.876 84.0755 48.6555L88.564 57.7597L93.0581 48.6389C93.4331 47.8816 94.3595 47.5389 95.1205 47.8816C95.898 48.2298 96.2564 49.1143 95.9476 49.8937L89.9812 62.0271C89.7165 62.5744 89.1761 62.9116 88.5696 62.9116ZM82.6638 48.8821C82.5921 48.8821 82.5205 48.8987 82.4488 48.9318C82.2172 49.0479 82.1179 49.3298 82.2337 49.5675L88.1394 61.5462C88.2222 61.7065 88.3821 61.8116 88.564 61.8116C88.746 61.8116 88.9059 61.7121 88.9886 61.5462L94.9385 49.4515C95.0157 49.258 94.9054 49.0037 94.6683 48.8987C94.4367 48.7937 94.161 48.9042 94.0452 49.1364L88.564 60.2638L83.0829 49.153C83.0057 48.9761 82.8403 48.8821 82.6638 48.8821Z" fill="#F9A01B"/>
<path d="M88.5804 41.9335C80.9708 41.9335 74.7783 35.7424 74.7783 28.1251C74.7783 20.5078 80.9708 14.3167 88.5804 14.3167C96.1735 14.3167 102.355 20.5078 102.355 28.1251C102.355 35.7424 96.179 41.9335 88.5804 41.9335ZM88.5804 16.373C82.1012 16.373 76.8296 21.6465 76.8296 28.1251C76.8296 34.6036 82.1012 39.8771 88.5804 39.8771C95.0431 39.8771 100.304 34.6036 100.304 28.1251C100.304 21.6465 95.0486 16.373 88.5804 16.373Z" fill="#F9A01B"/>
<path d="M88.5806 42.4863C80.6677 42.4863 74.2271 36.0464 74.2271 28.1251C74.2271 20.2038 80.6677 13.764 88.5806 13.764C96.4769 13.764 102.907 20.2038 102.907 28.1251C102.907 36.0464 96.4825 42.4863 88.5806 42.4863ZM88.5806 14.8751C81.2742 14.8751 75.3299 20.8229 75.3299 28.1307C75.3299 35.4384 81.2742 41.3862 88.5806 41.3862C95.8704 41.3862 101.804 35.4384 101.804 28.1307C101.804 20.8229 95.8759 14.8751 88.5806 14.8751ZM88.5806 40.4299C81.7981 40.4299 76.2783 34.9132 76.2783 28.1251C76.2783 21.337 81.7981 15.8203 88.5806 15.8203C95.3465 15.8203 100.855 21.337 100.855 28.1251C100.855 34.9132 95.352 40.4299 88.5806 40.4299ZM88.5806 16.9259C82.4046 16.9259 77.3812 21.9506 77.3812 28.1251C77.3812 34.2996 82.4046 39.3244 88.5806 39.3244C94.74 39.3244 99.7524 34.2996 99.7524 28.1251C99.7524 21.9506 94.74 16.9259 88.5806 16.9259Z" fill="#F9A01B"/>
<path d="M37.5185 53.3649H5.64625C5.07829 53.3649 4.62061 52.9061 4.62061 52.3368C4.62061 51.7674 5.07829 51.3086 5.64625 51.3086H37.5185C38.0864 51.3086 38.5441 51.7674 38.5441 52.3368C38.5441 52.9061 38.0864 53.3649 37.5185 53.3649Z" fill="#2D2D82"/>
<path d="M37.5186 53.9178H5.6464C4.77516 53.9178 4.06934 53.2102 4.06934 52.3368C4.06934 51.4634 4.77516 50.7559 5.6464 50.7559H37.5186C38.3899 50.7559 39.0957 51.4634 39.0957 52.3368C39.0957 53.2102 38.3899 53.9178 37.5186 53.9178ZM5.6464 51.8614C5.38724 51.8614 5.17218 52.077 5.17218 52.3368C5.17218 52.5966 5.38724 52.8122 5.6464 52.8122H37.5186C37.7778 52.8122 37.9928 52.5966 37.9928 52.3368C37.9928 52.077 37.7778 51.8614 37.5186 51.8614H5.6464Z" fill="#2D2D82"/>
<path d="M9.88142 59.2356C9.58917 59.2356 9.30243 59.114 9.09841 58.8708L4.13561 53.0003C3.81027 52.6189 3.81027 52.055 4.13561 51.6681L9.09841 45.8142C9.46234 45.3775 10.113 45.3333 10.5431 45.6981C10.9732 46.0629 11.0284 46.7152 10.6589 47.1464L6.2641 52.337L10.6644 57.5441C11.0284 57.9753 10.9788 58.6276 10.5431 58.9924C10.3501 59.1582 10.1185 59.2356 9.88142 59.2356Z" fill="#2D2D82"/>
<path d="M9.88158 59.7884C9.41838 59.7884 8.97725 59.5839 8.67948 59.2301L3.71668 53.3596C3.21488 52.7682 3.21488 51.9058 3.71668 51.3144L8.67948 45.4605C8.94968 45.1399 9.32464 44.9464 9.74924 44.9077C10.1738 44.8745 10.5819 45.0017 10.9017 45.278C11.5634 45.8419 11.6461 46.8424 11.0837 47.5057L6.98661 52.337L11.0837 57.1849C11.6461 57.8482 11.5634 58.8487 10.9017 59.4126C10.6205 59.6558 10.2565 59.7884 9.88158 59.7884ZM9.88158 46.0077C9.86504 46.0077 9.85401 46.0077 9.83747 46.0077C9.71064 46.0188 9.60035 46.074 9.51764 46.1735L4.55484 52.033C4.41147 52.2099 4.41147 52.4697 4.56035 52.6466L9.52315 58.5171C9.6169 58.6276 9.74372 58.6829 9.88709 58.6829C9.96429 58.6829 10.0856 58.6608 10.1904 58.5723C10.3889 58.401 10.4165 58.1025 10.2455 57.9035L5.54189 52.3425L10.2455 46.7927C10.4165 46.5937 10.3889 46.2896 10.1904 46.1238C10.1021 46.0464 9.99186 46.0077 9.88158 46.0077Z" fill="#2D2D82"/>
<path d="M120.37 74.6911H88.4754C87.9074 74.6911 87.4497 74.2323 87.4497 73.6629C87.4497 73.0936 87.9074 72.6348 88.4754 72.6348H120.37C120.938 72.6348 121.395 73.0936 121.395 73.6629C121.395 74.2268 120.932 74.6911 120.37 74.6911Z" fill="#F9A01B"/>
<path d="M120.37 75.2439H88.4755C87.6043 75.2439 86.8984 74.5364 86.8984 73.663C86.8984 72.7896 87.6043 72.082 88.4755 72.082H120.37C121.241 72.082 121.947 72.7896 121.947 73.663C121.947 74.5364 121.235 75.2439 120.37 75.2439ZM88.4755 73.1876C88.2163 73.1876 88.0013 73.4032 88.0013 73.663C88.0013 73.9228 88.2163 74.1384 88.4755 74.1384H120.37C120.629 74.1384 120.844 73.9228 120.844 73.663C120.844 73.4032 120.629 73.1876 120.37 73.1876H88.4755Z" fill="#F9A01B"/>
<path d="M116.543 80.5454C116.306 80.5454 116.074 80.4625 115.876 80.3021C115.446 79.9318 115.396 79.285 115.76 78.8539L120.172 73.6633L115.76 68.4561C115.396 68.025 115.446 67.3727 115.876 67.0079C116.306 66.643 116.957 66.6928 117.321 67.1239L122.3 72.9944C122.625 73.3814 122.625 73.9452 122.3 74.3266L117.321 80.1805C117.122 80.4238 116.835 80.5454 116.543 80.5454Z" fill="#F9A01B"/>
<path d="M116.543 81.098C116.168 81.098 115.804 80.9653 115.523 80.7221C114.861 80.1583 114.784 79.1578 115.341 78.4944L119.449 73.6632L115.341 68.8153C114.779 68.152 114.861 67.1514 115.523 66.5876C115.843 66.3112 116.251 66.1841 116.676 66.2173C117.095 66.2504 117.475 66.4494 117.745 66.77L122.725 72.6405C123.227 73.232 123.227 74.0943 122.725 74.6913L117.745 80.5452C117.442 80.8935 117.007 81.098 116.543 81.098ZM116.543 67.3173C116.433 67.3173 116.323 67.356 116.235 67.4278C116.036 67.5992 116.008 67.8977 116.179 68.0967L120.894 73.6632L116.174 79.2075C116.003 79.4065 116.03 79.705 116.229 79.8764C116.339 79.9703 116.455 79.9925 116.538 79.9925C116.676 79.9925 116.808 79.9317 116.902 79.8266L121.881 73.9727C122.03 73.7958 122.03 73.536 121.881 73.3591L116.902 67.4886C116.819 67.3891 116.703 67.3339 116.582 67.3228C116.571 67.3173 116.56 67.3173 116.543 67.3173Z" fill="#F9A01B"/>
</svg>
