<svg width="73" height="49" viewBox="0 0 73 49" fill="none" xmlns="http://www.w3.org/2000/svg">
<g clip-path="url(#clip0_1_640)">
<path d="M2.65351 18.0205H12.9762C14.4455 18.0205 15.6297 19.2159 15.6297 20.6848C15.6297 22.16 14.4391 23.3491 12.9762 23.3491H2.65351C1.1906 23.3554 0 22.16 0 20.6912C0 19.9535 0.297649 19.2859 0.778954 18.8026C1.26026 18.3194 1.92522 18.0205 2.65351 18.0205Z" fill="#F9A01B"/>
<path d="M41.2147 20.6468C41.2274 21.4035 40.9297 22.0839 40.4357 22.5799C39.9544 23.0631 39.2895 23.362 38.5548 23.362H28.2321C26.7629 23.362 25.5786 22.1666 25.5786 20.6977C25.5786 19.2225 26.7692 18.0334 28.2321 18.0334H38.4915C39.9544 18.0207 41.1894 19.178 41.2147 20.6468Z" fill="#F9A01B"/>
<path d="M23.2611 2.66429V13.0289C23.2611 14.5042 22.0705 15.6996 20.6076 15.6996C19.1384 15.6996 17.9478 14.5042 17.9478 13.0289V2.66429C17.9478 1.18907 19.1383 0 20.6013 0C21.3359 0 22.0008 0.298858 22.4822 0.782118C22.9635 1.26538 23.2611 1.92668 23.2611 2.66429Z" fill="#F9A01B"/>
<path d="M20.6076 25.6829C22.0768 25.6829 23.2611 26.8783 23.2611 28.3535V38.7182C23.2611 40.1934 22.0705 41.3824 20.6013 41.3824C19.8666 41.3824 19.2017 41.0836 18.7267 40.6003C18.2454 40.1171 17.9478 39.4494 17.9478 38.7118V28.3472C17.9478 26.8719 19.1384 25.6829 20.6076 25.6829Z" fill="#F9A01B"/>
<path d="M64.7293 32.3975C60.1633 32.3975 56.4585 36.1173 56.4585 40.7019C56.4585 45.2865 60.1633 49.0063 64.7293 49.0063C69.2954 49.0063 73.0002 45.2865 73.0002 40.7019C73.0002 36.1173 69.2954 32.3975 64.7293 32.3975ZM64.7293 45.3119C62.1898 45.3119 60.1379 43.2454 60.1379 40.7019C60.1379 38.1521 62.1962 36.0919 64.7293 36.0919C67.2689 36.0919 69.3207 38.1584 69.3207 40.7019C69.3207 43.2454 67.2689 45.3119 64.7293 45.3119Z" fill="#2F2F81"/>
</g>
<defs>
<clipPath id="clip0_1_640">
<rect width="73" height="49" fill="white"/>
</clipPath>
</defs>
</svg>
