<svg width="34" height="34" viewBox="0 0 34 34" fill="none" xmlns="http://www.w3.org/2000/svg">
<path d="M2.19 14.79H10.7C11.91 14.79 12.89 15.77 12.89 16.98C12.89 18.19 11.91 19.17 10.7 19.17H2.19C0.98 19.16 0 18.18 0 16.97C0 16.37 0.25 15.82 0.64 15.42C1.04 15.03 1.58 14.79 2.19 14.79Z" fill="#F89F1E"/>
<path d="M33.9501 16.94C33.9601 17.56 33.7101 18.12 33.3101 18.52C32.9101 18.92 32.3701 19.16 31.7601 19.16H23.2501C22.0401 19.16 21.0601 18.18 21.0601 16.97C21.0601 15.76 22.0401 14.78 23.2501 14.78H31.7001C32.9101 14.79 33.9301 15.73 33.9501 16.94Z" fill="#F89F1E"/>
<path d="M19.1598 2.19V10.69C19.1598 11.9 18.1798 12.88 16.9698 12.88C15.7598 12.88 14.7798 11.9 14.7798 10.69V2.19C14.7798 0.98 15.7598 0 16.9698 0C17.5698 0 18.1198 0.24 18.5198 0.64C18.9198 1.04 19.1598 1.58 19.1598 2.19Z" fill="#F89F1E"/>
<path d="M16.9698 21.07C18.1798 21.07 19.1598 22.05 19.1598 23.26V31.76C19.1598 32.97 18.1798 33.95 16.9698 33.95C16.3698 33.95 15.8198 33.7 15.4198 33.31C15.0198 32.91 14.7798 32.37 14.7798 31.76V23.26C14.7898 22.05 15.7698 21.07 16.9698 21.07Z" fill="#F89F1E"/>
</svg>
