<svg width="126" height="115" viewBox="0 0 126 115" fill="none" xmlns="http://www.w3.org/2000/svg">
<g clip-path="url(#clip0_1_293)">
<path d="M25.9204 13.3772H3.91987C3.40156 13.3772 2.98389 12.9595 2.98389 12.4411C2.98389 5.85816 8.33809 0.503235 14.9201 0.503235H15.1969C15.2422 0.503235 15.3076 0.508268 15.3781 0.518333C15.7052 0.518333 16.0373 0.553563 16.3543 0.598859C16.299 0.588793 16.4449 0.588793 16.6009 0.624023C16.7971 0.639121 17.084 0.689449 17.3607 0.754876C17.3758 0.759909 17.3909 0.759909 17.406 0.764942C17.5318 0.785073 17.6677 0.81527 17.8086 0.855532C17.874 0.865598 17.9445 0.880697 18.0099 0.910893C18.2464 0.966255 18.4779 1.03671 18.7094 1.11724C19.0616 1.23803 19.429 1.37391 19.7661 1.5249C20.1133 1.67588 20.4605 1.85203 20.8027 2.05334C21.0996 2.22446 21.4116 2.41571 21.7085 2.60695C21.7437 2.63212 21.779 2.65728 21.8142 2.68748C22.096 2.88879 22.3728 3.1052 22.6445 3.33671C22.8659 3.5179 23.1024 3.73934 23.3289 3.96078C23.4547 4.06647 23.5352 4.1772 23.5905 4.24765C23.7616 4.40871 24.0132 4.67545 24.2296 4.95728C25.1656 6.11987 25.8751 7.44853 26.323 8.88288C26.4639 9.32074 26.5696 9.77873 26.6602 10.2317C26.7256 10.5638 26.7709 10.891 26.8011 11.2332C26.8463 11.6308 26.8665 12.0284 26.8665 12.4411C26.8564 12.9595 26.4387 13.3772 25.9204 13.3772ZM25.9204 12.4411H25.9355H25.9204ZM4.8961 11.505H24.9442C24.9442 11.4798 24.9392 11.4597 24.9392 11.4345C24.9341 11.3993 24.9341 11.3641 24.9341 11.3288V11.3137C24.914 11.1175 24.8788 10.8558 24.8234 10.589C24.7479 10.2015 24.6574 9.81899 24.5416 9.44153C24.1592 8.22862 23.5603 7.1063 22.7653 6.11483C22.5841 5.87829 22.3828 5.67194 22.1866 5.47063L22.8458 4.8063L22.0759 5.33475C21.8645 5.1284 21.6632 4.94218 21.4569 4.7761C21.2003 4.55969 20.9487 4.36341 20.692 4.18223C20.6618 4.1621 20.6316 4.13693 20.6065 4.11177C20.4203 3.99601 20.1435 3.8249 19.8667 3.66385C19.5799 3.49273 19.3031 3.35685 19.0163 3.23102C18.7245 3.10017 18.4175 2.98442 18.1105 2.87873C17.8992 2.81833 17.713 2.76297 17.5218 2.71768C17.4463 2.70761 17.3708 2.68748 17.2953 2.65728C17.25 2.63715 17.1444 2.61702 17.0487 2.60192C17.0135 2.59689 16.9783 2.58682 16.9431 2.57676C16.938 2.57676 16.933 2.57676 16.928 2.57173C16.7217 2.5214 16.5103 2.4912 16.2939 2.46604C16.2486 2.46604 16.1228 2.45597 16.0775 2.45094C15.7857 2.40564 15.4787 2.43081 15.1868 2.37544H14.9302C9.68671 2.37544 5.36913 6.39164 4.8961 11.505Z" fill="#F9A01B"/>
<path d="M25.9202 13.8805H3.91966C3.12458 13.8805 2.48047 13.2363 2.48047 12.4411C2.48047 5.5814 8.06112 0 14.9199 0H15.1967C15.247 0 15.3275 0.00503282 15.4081 0.0150985C15.705 0.0201313 16.017 0.0452954 16.339 0.0905908C16.4296 0.085558 16.5403 0.100656 16.6762 0.125821C16.9127 0.150985 17.2146 0.201313 17.4763 0.26674C17.6222 0.296937 17.7681 0.322101 17.9191 0.367396C17.9996 0.382495 18.0801 0.402626 18.1556 0.432823C18.3921 0.493217 18.6236 0.563676 18.8702 0.649234C19.2778 0.78512 19.6502 0.931072 19.9672 1.07702C20.3597 1.24814 20.717 1.42932 21.0491 1.63063C21.351 1.80175 21.6681 2.00306 21.97 2.19934C22.0354 2.22451 22.0857 2.26477 22.1411 2.31007C22.3977 2.49125 22.6795 2.70766 22.9664 2.95427C23.1676 3.11532 23.3941 3.3267 23.6759 3.6035C23.7866 3.69912 23.8822 3.80985 23.9627 3.91554C24.1338 4.08162 24.3905 4.34836 24.6219 4.65536C25.5931 5.86324 26.3278 7.2372 26.8008 8.73698C26.9317 9.14464 27.0424 9.60262 27.1481 10.1411C27.2185 10.4934 27.2638 10.8357 27.294 11.198L27.299 11.2584C27.3393 11.6309 27.3594 12.0184 27.3594 12.4512C27.3594 13.2363 26.7153 13.8805 25.9202 13.8805ZM14.9199 1.00656C8.61466 1.00656 3.4869 6.13501 3.4869 12.4411C3.4869 12.6777 3.68315 12.874 3.91966 12.874H25.9253C25.9303 12.874 25.9353 12.874 25.9404 12.874L25.9253 11.9379H25.9404V12.874C26.1718 12.8639 26.358 12.6777 26.358 12.4411C26.358 12.0234 26.3379 11.646 26.2976 11.2937L26.2574 10.9414H26.2624C26.2372 10.735 26.202 10.5337 26.1668 10.3324C26.0662 9.8291 25.9605 9.40634 25.8447 9.03895C25.412 7.65996 24.7377 6.39672 23.8369 5.27943C23.6155 4.99759 23.384 4.75098 23.2431 4.62013L23.1827 4.54967C23.1475 4.49934 23.0871 4.42385 23.0016 4.34836C22.7198 4.07155 22.5084 3.88031 22.3273 3.73435C22.0505 3.50284 21.7888 3.2965 21.5171 3.10525C21.4617 3.05996 21.4466 3.04989 21.4315 3.03479C21.1447 2.84858 20.8428 2.66236 20.5509 2.49125C20.244 2.31007 19.9219 2.14398 19.5646 1.98796C19.2728 1.85711 18.9306 1.72626 18.5481 1.5954C18.3166 1.51488 18.1053 1.44945 17.8889 1.39912L17.8185 1.37899C17.7933 1.36893 17.7631 1.36389 17.7329 1.35886L17.6625 1.33873C17.5417 1.3035 17.4209 1.27834 17.3152 1.25821L17.2297 1.23807C16.968 1.17265 16.7013 1.13742 16.5554 1.12232L16.49 1.11225C16.4397 1.10219 16.3893 1.09212 16.3642 1.09212L16.3793 0.593873H16.3692L16.2837 1.09212C15.9666 1.04179 15.6647 1.01663 15.3829 1.01663L15.3275 1.0116C15.2772 1.0116 15.2319 1.00656 15.2017 1.00656H14.9199ZM25.4673 12.0083H4.34236L4.39269 11.4597C4.8959 6.08468 9.51541 1.87221 14.9199 1.87221L15.2672 1.88228C15.398 1.90744 15.5339 1.91247 15.6697 1.91751C15.8308 1.92254 15.9918 1.9326 16.1478 1.95777C16.178 1.9628 16.2535 1.96783 16.2887 1.96783L16.344 1.97287C16.6158 2.00306 16.8372 2.04333 17.0385 2.08862C17.0989 2.10372 17.119 2.10875 17.1341 2.11379C17.3002 2.14398 17.3958 2.16411 17.4813 2.19934C17.5115 2.21444 17.5467 2.21947 17.587 2.22954C17.8336 2.2849 18.0348 2.34026 18.2613 2.42079C18.6437 2.55164 18.9406 2.66236 19.2124 2.78818C19.5395 2.9291 19.8263 3.07505 20.1131 3.24617C20.3647 3.39212 20.6214 3.54814 20.8076 3.66389L20.9334 3.75449C21.2403 3.97593 21.502 4.17724 21.7737 4.40875C21.8895 4.49934 22.0052 4.60503 22.1159 4.70569L22.5537 4.40372L23.1978 5.17374L22.8808 5.49081C22.9764 5.5965 23.067 5.70219 23.1576 5.81794C23.9879 6.8547 24.6169 8.03238 25.0195 9.30569C25.1302 9.65799 25.2258 10.0354 25.3164 10.5035C25.3667 10.7702 25.4069 11.047 25.4321 11.2735V11.3239C25.4321 11.354 25.4321 11.3691 25.4371 11.3893C25.4422 11.4195 25.4472 11.4547 25.4472 11.495L25.4673 12.0083ZM5.46453 11.0017H24.3804C24.3653 10.9011 24.3452 10.7954 24.325 10.6847C24.2395 10.2569 24.1539 9.90963 24.0533 9.59256C23.691 8.43501 23.1223 7.37309 22.3625 6.42691C22.1914 6.20547 22.0002 6.00919 21.819 5.82298L21.4668 5.47068L21.4718 5.46564C21.3561 5.35996 21.2403 5.25427 21.1296 5.16871C20.873 4.9523 20.6314 4.76608 20.3899 4.58993C20.3597 4.5698 20.3295 4.54464 20.2943 4.51947L20.2792 4.51444C20.098 4.40372 19.8514 4.25274 19.6049 4.10678C19.3482 3.9558 19.0966 3.82998 18.8048 3.69912C18.5582 3.5884 18.2965 3.48775 17.9392 3.36193C17.743 3.29147 17.5769 3.24617 17.4109 3.20591C17.3303 3.19584 17.2146 3.16565 17.1039 3.12035C17.0888 3.12035 17.0284 3.11028 16.9731 3.10022C16.9127 3.09015 16.8624 3.08009 16.8171 3.06499L16.7969 3.05996C16.646 3.02473 16.4698 2.99453 16.2484 2.96937C16.1729 2.96433 16.0471 2.95427 15.9918 2.94923C15.871 2.9291 15.7502 2.92407 15.6244 2.91904C15.4684 2.914 15.3024 2.90394 15.1313 2.87877H14.9149C10.2149 2.87877 6.16903 6.40175 5.46453 11.0017Z" fill="#F9A01B"/>
<path d="M104.447 114.497C104.236 114.497 104.025 114.426 103.854 114.285L67.1943 84.3602C67.1591 84.33 67.1138 84.2847 67.0786 84.2495C66.9075 84.0582 66.8169 83.8016 66.842 83.5449C66.8622 83.2882 66.988 83.0466 67.1943 82.8856L103.869 53.7506C104.15 53.5292 104.533 53.4839 104.855 53.6399C105.177 53.7959 105.383 54.123 105.383 54.4804V113.561C105.383 113.923 105.177 114.25 104.85 114.406C104.719 114.467 104.583 114.497 104.447 114.497ZM69.2575 83.6355L103.511 111.588V56.423L69.2575 83.6355Z" fill="#F9A01B"/>
<path d="M104.447 115C104.115 115 103.793 114.884 103.536 114.673L66.8772 84.7477C66.8268 84.7024 66.7564 84.637 66.7111 84.5917C66.4394 84.2947 66.3085 83.8971 66.3387 83.5046C66.3689 83.112 66.5652 82.7446 66.8772 82.493L103.551 53.358C103.989 53.0107 104.568 52.9453 105.071 53.1869C105.564 53.4234 105.886 53.9317 105.886 54.4803V113.561C105.886 114.114 105.564 114.623 105.066 114.859C104.865 114.95 104.659 115 104.447 115ZM104.442 54.0475C104.347 54.0475 104.256 54.0777 104.175 54.1431L67.5012 83.2781C67.4055 83.3536 67.3502 83.4643 67.3401 83.5801C67.3301 83.7009 67.3703 83.8217 67.4508 83.9072C67.4659 83.9223 67.4911 83.9525 67.5163 83.9676L104.17 113.888C104.296 113.993 104.482 114.014 104.628 113.943C104.779 113.873 104.875 113.717 104.875 113.551V54.4803C104.875 54.3142 104.779 54.1632 104.628 54.0928C104.573 54.0626 104.508 54.0475 104.442 54.0475ZM104.014 112.65L68.4573 83.6304L104.014 55.3812V112.65ZM70.0575 83.6405L103.003 110.531V57.4648L70.0575 83.6405Z" fill="#F9A01B"/>
<path d="M83.7246 71.8887C83.5887 71.8887 83.4478 71.8585 83.317 71.7982C82.9949 71.6421 82.7886 71.315 82.7886 70.9577V54.4852C82.7886 53.9669 83.2062 53.5491 83.7246 53.5491H104.447C104.844 53.5491 105.197 53.8008 105.328 54.1782C105.458 54.5557 105.338 54.9734 105.026 55.22L84.3032 71.6925C84.1372 71.8233 83.9309 71.8887 83.7246 71.8887ZM84.6605 55.4163V69.015L101.765 55.4163H84.6605Z" fill="#F9A01B"/>
<path d="M83.7244 72.3921C83.508 72.3921 83.2916 72.3417 83.1004 72.2511C82.6072 72.0146 82.2852 71.5063 82.2852 70.9577V54.4853C82.2852 53.6901 82.9293 53.0459 83.7244 53.0459H104.447C105.056 53.0459 105.604 53.4334 105.805 54.0122C106.007 54.591 105.821 55.2301 105.342 55.6126L84.6201 72.0851C84.3634 72.2813 84.0464 72.3921 83.7244 72.3921ZM83.7244 54.0474C83.4878 54.0474 83.2916 54.2437 83.2916 54.4803V70.9527C83.2916 71.1188 83.3872 71.2697 83.5382 71.3402C83.6841 71.4107 83.8652 71.3905 83.9961 71.2899L104.718 54.8175C104.864 54.7017 104.92 54.5104 104.859 54.3393C104.799 54.1632 104.633 54.0474 104.452 54.0474H83.7244ZM84.1571 70.0568V54.9131H103.209L84.1571 70.0568ZM85.1635 55.9196V67.9732L100.325 55.9196H85.1635Z" fill="#F9A01B"/>
<path d="M104.447 55.4162H83.7246C83.2062 55.4162 82.7886 54.9985 82.7886 54.4801V38.2593C82.7886 37.741 83.2062 37.3232 83.7246 37.3232H84.0315C84.2429 37.3232 84.4492 37.3937 84.6152 37.5246L105.031 53.7453C105.343 53.9919 105.463 54.4097 105.333 54.7871C105.197 55.1646 104.845 55.4162 104.447 55.4162ZM84.6605 53.544H101.765L84.6605 39.9504V53.544Z" fill="#F9A01B"/>
<path d="M104.447 55.9196H83.7244C82.9293 55.9196 82.2852 55.2754 82.2852 54.4802V38.2594C82.2852 37.4642 82.9293 36.82 83.7244 36.82H84.0313C84.3534 36.82 84.6704 36.9307 84.927 37.132L105.342 53.3528C105.821 53.7353 106.007 54.3745 105.805 54.9533C105.604 55.532 105.056 55.9196 104.447 55.9196ZM83.7244 37.8266C83.4878 37.8266 83.2916 38.0228 83.2916 38.2594V54.4802C83.2916 54.7167 83.4878 54.913 83.7244 54.913H104.447C104.633 54.913 104.794 54.7972 104.854 54.6261C104.915 54.45 104.859 54.2587 104.718 54.143L84.303 37.9222C84.2276 37.8618 84.132 37.8266 84.0363 37.8266H83.7244ZM103.204 54.0474H84.1521V38.9086L103.204 54.0474ZM85.1635 53.0408H100.32L85.1635 40.9922V53.0408Z" fill="#F9A01B"/>
<path d="M104.447 114.497L1.49946 114.411C0.981145 114.411 0.563477 113.993 0.563477 113.475C0.563477 113.198 0.68928 112.851 0.900631 112.67L37.2076 82.5333C37.5498 82.2514 38.0379 82.2464 38.3851 82.5182L53.0538 94.1289L67.1891 82.8856C67.5766 82.5786 68.1302 82.6239 68.4623 82.9913L105.036 112.836C105.343 113.088 105.459 113.5 105.328 113.873C105.192 114.245 104.84 114.497 104.447 114.497ZM3.98534 112.544L101.815 112.625L67.7578 84.8232L53.6325 96.0565C53.2954 96.3282 52.8123 96.3282 52.4701 96.0565L37.8165 84.4558L3.98534 112.544Z" fill="#F9A01B"/>
<path d="M104.447 115L1.49925 114.914C0.709206 114.914 0.0600586 114.27 0.0600586 113.475C0.0600586 113.098 0.221087 112.584 0.57837 112.282L36.8853 82.1458C37.4036 81.7129 38.1685 81.7029 38.6969 82.1256L53.0486 93.4897L66.8719 82.493C67.4556 82.035 68.296 82.0904 68.8043 82.6239L105.353 112.448C105.826 112.836 106.002 113.475 105.796 114.049C105.594 114.613 105.051 115 104.447 115ZM37.8062 82.8202C37.7056 82.8202 37.61 82.8554 37.5294 82.9208L1.22249 113.057C1.147 113.118 1.06649 113.309 1.06649 113.475C1.06649 113.712 1.25771 113.908 1.49925 113.908L104.447 113.993V114.497V113.993C104.628 113.993 104.794 113.878 104.855 113.707C104.915 113.535 104.86 113.344 104.719 113.228L68.0897 83.3335C67.9387 83.1674 67.6771 83.1473 67.5009 83.2882L53.0536 94.7782L38.0729 82.9208C37.9974 82.8504 37.9018 82.8202 37.8062 82.8202ZM103.229 113.128L2.59626 113.042L37.8163 83.8066L52.792 95.6589C52.948 95.7847 53.1694 95.7847 53.3254 95.6589L67.7676 84.169L103.229 113.128ZM5.37904 112.041L100.401 112.116L67.7576 85.4674L53.9493 96.4491C53.426 96.8668 52.6913 96.8668 52.1629 96.4541L37.8314 85.1051L5.37904 112.041Z" fill="#F9A01B"/>
<path d="M1.49946 114.326C1.36359 114.326 1.22772 114.295 1.10192 114.235C0.774827 114.079 0.563477 113.752 0.563477 113.389V54.4803C0.563477 54.1229 0.769795 53.7958 1.09185 53.6398C1.41391 53.4838 1.80139 53.524 2.07815 53.7505L26.4992 73.0967L38.3851 82.5232C38.6065 82.6993 38.7374 82.9661 38.7374 83.2479C38.7424 83.5297 38.6166 83.7965 38.4002 83.9777L2.09828 114.109C1.92719 114.255 1.71081 114.326 1.49946 114.326ZM2.43544 56.4179V111.402L36.3219 83.2731L2.43544 56.4179Z" fill="#F9A01B"/>
<path d="M1.49925 114.829C1.2879 114.829 1.07655 114.784 0.885331 114.693C0.382116 114.456 0.0600586 113.948 0.0600586 113.389V54.4803C0.0600586 53.9317 0.377084 53.4234 0.870235 53.1869C1.36842 52.9503 1.96221 53.0157 2.38994 53.3529L26.816 72.6991L38.7019 82.1256C39.0391 82.3923 39.2404 82.8 39.2454 83.2328C39.2504 83.6707 39.0592 84.0783 38.7271 84.3602L2.42014 114.497C2.15847 114.713 1.83641 114.829 1.49925 114.829ZM1.49925 54.0525C1.43384 54.0525 1.36842 54.0676 1.30803 54.0978C1.1621 54.1683 1.06649 54.3192 1.06649 54.4853V113.389C1.06649 113.556 1.1621 113.712 1.3181 113.782C1.46403 113.853 1.65022 113.827 1.77602 113.722L38.083 83.5851C38.1836 83.5046 38.239 83.3737 38.239 83.2479C38.239 83.1171 38.1786 82.9963 38.0729 82.9157L26.3229 73.595H25.9958V73.3333L1.76596 54.1431C1.69048 54.0827 1.59486 54.0525 1.49925 54.0525ZM1.93202 112.468V55.3761L37.1218 83.263L1.93202 112.468ZM2.93845 57.4547V110.324L35.5266 83.2781L2.93845 57.4547Z" fill="#F9A01B"/>
<path d="M25.9202 74.7624C25.7139 74.7624 25.5076 74.692 25.3415 74.5611L0.920476 55.215C0.608482 54.9684 0.487711 54.5506 0.618547 54.1732C0.749383 53.7957 1.10667 53.5441 1.5042 53.5441H25.9252C26.4435 53.5441 26.8612 53.9618 26.8612 54.4802V73.8263C26.8612 74.1837 26.6549 74.5108 26.3328 74.6668C26.202 74.7322 26.0611 74.7624 25.9202 74.7624ZM4.18634 55.4163L24.9842 71.8887V55.4163H4.18634Z" fill="#F9A01B"/>
<path d="M25.92 75.2658C25.598 75.2658 25.281 75.1551 25.0293 74.9538L0.608323 55.6126C0.130269 55.2301 -0.0609525 54.591 0.140333 54.0122C0.341619 53.4334 0.885092 53.0459 1.49901 53.0459H25.92C26.7151 53.0459 27.3592 53.6901 27.3592 54.4853V73.8315C27.3592 74.38 27.0422 74.8884 26.5491 75.1249C26.3528 75.2155 26.1414 75.2658 25.92 75.2658ZM1.49901 54.0474C1.31282 54.0474 1.1518 54.1632 1.09141 54.3393C1.03102 54.5155 1.08638 54.7067 1.23231 54.8225L25.6533 74.1687C25.7791 74.2693 25.9603 74.2894 26.1113 74.219C26.2572 74.1485 26.3528 73.9925 26.3528 73.8315V54.4853C26.3528 54.2487 26.1565 54.0525 25.92 54.0525H1.49901V54.0474ZM25.4873 72.9306L2.74195 54.9131H25.4873V72.9306ZM5.63544 55.9196L24.4859 70.852V55.9196H5.63544Z" fill="#F9A01B"/>
<path d="M25.9203 55.4164H1.49932C1.10178 55.4164 0.7445 55.1648 0.613664 54.7873C0.482828 54.4099 0.603599 53.9921 0.915593 53.7455L25.2662 34.4547C25.8348 34.0018 26.8513 34.4598 26.8513 35.1895V54.4803C26.8563 54.9987 26.4387 55.4164 25.9203 55.4164ZM4.18649 53.5442H24.9844V37.0718L4.18649 53.5442Z" fill="#F9A01B"/>
<path d="M25.9203 55.9197H1.49931C0.885392 55.9197 0.34192 55.5322 0.140634 54.9534C-0.0606518 54.3746 0.125538 53.7304 0.608624 53.353L24.9592 34.0621C25.3819 33.7249 25.9807 33.6796 26.5192 33.9363C27.0375 34.188 27.3646 34.6661 27.3646 35.1895V54.4803C27.3595 55.2755 26.7154 55.9197 25.9203 55.9197ZM25.8096 34.7818C25.7241 34.7818 25.6486 34.802 25.5832 34.8523L1.23261 54.1431C1.08668 54.2589 1.03132 54.4501 1.09171 54.6263C1.1521 54.7974 1.31816 54.9182 1.49931 54.9182H25.9203C26.1568 54.9182 26.3531 54.7219 26.3531 54.4853V35.1895C26.3531 35.0335 26.2122 34.9077 26.0814 34.8422C26.0009 34.807 25.9052 34.7818 25.8096 34.7818ZM25.4876 54.0475H2.74226L25.4926 36.0249V54.0475H25.4876ZM5.63071 53.0409H24.4811V38.1085L5.63071 53.0409Z" fill="#F9A01B"/>
<path d="M25.9205 74.7675C25.4022 74.7675 24.9846 74.3548 24.9846 73.8414V12.441C24.9846 12.0988 24.9695 11.7666 24.9342 11.4344C24.8738 10.9211 25.2412 10.4581 25.7545 10.3977C26.2677 10.3423 26.7307 10.7047 26.7911 11.218C26.8364 11.6206 26.8565 12.0233 26.8565 12.441V73.8263C26.8565 74.3397 26.4388 74.7675 25.9205 74.7675Z" fill="#F9A01B"/>
<path d="M25.9207 75.2708C25.1256 75.2708 24.4815 74.6266 24.4815 73.8415V12.4411C24.4815 12.0737 24.4664 11.7717 24.4362 11.4949C24.3457 10.7048 24.9143 9.9901 25.6993 9.89951C26.4944 9.81395 27.2039 10.3827 27.2945 11.1627C27.3398 11.5603 27.3599 11.9781 27.3599 12.4411V73.8264C27.3599 74.6216 26.7158 75.2708 25.9207 75.2708ZM25.8603 10.896C25.8452 10.896 25.8301 10.896 25.81 10.901C25.5785 10.9262 25.4074 11.1426 25.4326 11.3792C25.4678 11.7013 25.488 12.0385 25.488 12.4411V73.8415C25.488 74.0781 25.6792 74.2643 25.9207 74.2643C26.1572 74.2643 26.3535 74.068 26.3535 73.8264V12.4411C26.3535 12.0133 26.3334 11.6358 26.2931 11.2785C26.2679 11.0621 26.0818 10.896 25.8603 10.896Z" fill="#F9A01B"/>
<path d="M25.8648 12.2502C25.3868 12.2502 24.9741 11.8828 24.9339 11.3946C24.9087 11.1178 24.8735 10.8561 24.8232 10.5893C24.7225 10.081 25.0546 9.59283 25.5629 9.49218C26.0762 9.39655 26.5643 9.72369 26.6599 10.232C26.7253 10.5591 26.7706 10.8863 26.8008 11.2285C26.8461 11.7418 26.4636 12.1948 25.9504 12.2401C25.9202 12.2502 25.89 12.2502 25.8648 12.2502Z" fill="#F9A01B"/>
<path d="M25.865 12.7533C25.1252 12.7533 24.4962 12.1745 24.4308 11.4397C24.4107 11.1931 24.3754 10.9465 24.3251 10.6848C24.2496 10.3123 24.3302 9.92481 24.5415 9.60774C24.7579 9.29068 25.085 9.07426 25.4624 8.99877C26.2424 8.84779 27.0022 9.36114 27.1482 10.1362C27.2136 10.4835 27.2639 10.8257 27.2941 11.188C27.3293 11.5705 27.2085 11.943 26.962 12.2399C26.7154 12.5368 26.3682 12.713 25.9807 12.7482C25.9555 12.7533 25.9052 12.7533 25.865 12.7533ZM25.7392 9.98017C25.709 9.98017 25.6838 9.98521 25.6536 9.99024C25.5429 10.0104 25.4423 10.0758 25.3819 10.1714C25.3165 10.267 25.2963 10.3828 25.3165 10.4935C25.3718 10.7905 25.4121 11.0673 25.4372 11.3491C25.4574 11.5705 25.6435 11.7417 25.865 11.7417H25.8901C26.0159 11.7316 26.1216 11.6762 26.1971 11.5907C26.2726 11.5051 26.3078 11.3894 26.2977 11.2736C26.2675 10.9515 26.2273 10.6395 26.1669 10.3274C26.1216 10.1261 25.9455 9.98017 25.7392 9.98017Z" fill="#F9A01B"/>
<path d="M25.427 10.101C25.0295 10.101 24.6571 9.84437 24.5363 9.44678C24.1539 8.23387 23.5601 7.11658 22.76 6.12008C22.5788 5.88354 22.3775 5.6772 22.1813 5.47588C21.819 5.10849 21.819 4.51461 22.1863 4.15225C22.5536 3.78989 23.1474 3.78989 23.5098 4.15728C23.7614 4.40892 24.013 4.67566 24.2294 4.9575C25.1653 6.12008 25.8749 7.44875 26.3227 8.8831C26.4787 9.37632 26.202 9.89973 25.7088 10.0558C25.6132 10.0859 25.5176 10.101 25.427 10.101Z" fill="#F9A01B"/>
<path d="M25.4271 10.6044C24.793 10.6044 24.2445 10.1967 24.0533 9.5978C23.691 8.44528 23.1224 7.38336 22.3625 6.43719C22.1914 6.21574 22.0002 6.01946 21.819 5.83325C21.5473 5.56148 21.4014 5.19911 21.4014 4.81662C21.4014 4.43412 21.5523 4.07176 21.8241 3.79999C22.0958 3.52822 22.4531 3.38226 22.8355 3.38226H22.8406C23.223 3.38226 23.5853 3.53325 23.8571 3.80502C24.1741 4.12209 24.4156 4.39386 24.6169 4.65557C25.5881 5.86345 26.3228 7.23741 26.7958 8.73719C27.0323 9.49714 26.6096 10.3024 25.8548 10.544C25.719 10.5792 25.573 10.6044 25.4271 10.6044ZM22.8406 4.3838C22.7248 4.3838 22.6191 4.42909 22.5336 4.50962C22.4531 4.59014 22.4078 4.70086 22.4078 4.81662C22.4078 4.93237 22.4531 5.0431 22.5336 5.12362C22.7399 5.32997 22.9563 5.55644 23.1526 5.81312C23.9879 6.84988 24.6119 8.02756 25.0145 9.29583C25.0849 9.51727 25.3315 9.64813 25.5529 9.57767C25.7844 9.50721 25.9102 9.2606 25.8397 9.03412C25.407 7.65513 24.7327 6.39189 23.8319 5.2746C23.6507 5.03806 23.4344 4.80152 23.1475 4.50962C23.067 4.42909 22.9462 4.37373 22.8406 4.3838Z" fill="#F9A01B"/>
<path d="M22.6998 5.59666C22.4633 5.59666 22.2217 5.50607 22.0406 5.32488C21.8493 5.13867 21.6481 4.94742 21.4468 4.78134C21.1901 4.56493 20.9385 4.36865 20.6819 4.18747C20.2592 3.89053 20.1585 3.30672 20.4605 2.88397C20.7624 2.46121 21.3411 2.36055 21.7638 2.66252C22.0657 2.8739 22.3526 3.10038 22.6394 3.34195C22.8759 3.5332 23.1225 3.76471 23.359 4.00125C23.7263 4.36362 23.7263 4.95749 23.364 5.32488C23.1829 5.50607 22.9413 5.59666 22.6998 5.59666Z" fill="#F9A01B"/>
<path d="M22.7 6.09976C22.3176 6.09976 21.9603 5.95381 21.6885 5.68204C21.5376 5.53105 21.3363 5.33477 21.135 5.17372C20.8784 4.95731 20.6368 4.7711 20.3953 4.59495C20.0833 4.3735 19.8719 4.04134 19.8065 3.66388C19.7411 3.28642 19.8266 2.90392 20.0531 2.59189C20.511 1.94768 21.4118 1.79167 22.0609 2.24965C22.3578 2.46103 22.6597 2.69254 22.9717 2.95425C23.1881 3.1304 23.4347 3.35687 23.7215 3.63871C23.9933 3.91049 24.1442 4.27285 24.1442 4.65534C24.1442 5.03784 23.9983 5.4002 23.7266 5.67197C23.4498 5.94878 23.0875 6.09976 22.7 6.09976ZM21.2256 2.98948C21.0897 2.98948 20.9539 3.05491 20.8733 3.17066C20.8079 3.26628 20.7828 3.38204 20.7979 3.49276C20.818 3.60852 20.8784 3.70414 20.974 3.7746C21.2407 3.96585 21.5024 4.16716 21.7741 4.39364C22.0056 4.57985 22.227 4.79626 22.3981 4.96234C22.5641 5.12843 22.8459 5.1234 23.007 4.96234C23.0875 4.88182 23.1328 4.7711 23.1328 4.65534C23.1328 4.53959 23.0875 4.4339 23.007 4.34834C22.7503 4.09167 22.5188 3.88029 22.3276 3.72427C22.0307 3.47263 21.754 3.26125 21.4772 3.06497C21.3967 3.01464 21.3111 2.98948 21.2256 2.98948Z" fill="#F9A01B"/>
<path d="M21.1901 4.33348C21.014 4.33348 20.8379 4.28315 20.6819 4.18249C20.4152 4.01138 20.1334 3.83523 19.8516 3.67418C19.5648 3.50306 19.288 3.36718 19.0011 3.24136C18.7093 3.1105 18.4023 2.99475 18.0954 2.88906C17.884 2.81357 17.6777 2.75317 17.4663 2.70788C16.9631 2.59715 16.6411 2.0989 16.7518 1.59562C16.8625 1.09234 17.3657 0.775272 17.8639 0.880962C18.1557 0.946388 18.4325 1.02691 18.7093 1.12254C19.0615 1.24332 19.4289 1.37921 19.766 1.5302C20.1133 1.68118 20.4605 1.85733 20.8027 2.05864C21.0996 2.22976 21.4115 2.42101 21.7084 2.61225C22.1412 2.89409 22.262 3.47287 21.9802 3.90569C21.799 4.18249 21.4971 4.33348 21.1901 4.33348Z" fill="#F9A01B"/>
<path d="M21.1902 4.8367C20.9135 4.8367 20.6417 4.75617 20.4052 4.60519C20.1435 4.43407 19.8718 4.26799 19.6001 4.10694C19.3485 3.95595 19.0918 3.83013 18.8 3.69928C18.5534 3.58856 18.2917 3.4879 17.9344 3.36208C17.7231 3.28659 17.5419 3.23626 17.3557 3.196C16.9783 3.11547 16.6613 2.88899 16.4499 2.56689C16.2436 2.24479 16.1732 1.85727 16.2537 1.48484C16.4248 0.714816 17.1846 0.221599 17.9646 0.382649C18.2665 0.448076 18.5634 0.533634 18.8704 0.644356C19.278 0.780242 19.6504 0.926194 19.9674 1.06711C20.3599 1.23823 20.7172 1.41941 21.0493 1.62072C21.3513 1.79184 21.6683 1.99315 21.9702 2.18943C22.6345 2.62226 22.8257 3.51306 22.3929 4.1774C22.1363 4.59009 21.6834 4.8367 21.1902 4.8367ZM17.6677 1.35902C17.4664 1.35902 17.2853 1.49994 17.24 1.70125C17.2148 1.81197 17.235 1.92773 17.3004 2.02335C17.3658 2.11897 17.4614 2.18943 17.5721 2.2146C17.7986 2.26493 18.02 2.33035 18.2615 2.41088C18.644 2.54173 18.9409 2.65245 19.2126 2.77827C19.5397 2.91919 19.8265 3.06514 20.1133 3.23626C20.3951 3.40234 20.687 3.57849 20.9587 3.75967C21.155 3.88549 21.4318 3.8251 21.5576 3.63385C21.6884 3.43254 21.6331 3.1658 21.4318 3.03495C21.1449 2.84873 20.843 2.66252 20.5511 2.4914C20.2442 2.31022 19.9221 2.14414 19.5648 1.98812C19.273 1.85727 18.9308 1.72641 18.5483 1.59556C18.2716 1.49994 18.02 1.42444 17.7583 1.36908C17.7281 1.36405 17.6979 1.35902 17.6677 1.35902Z" fill="#F9A01B"/>
<path d="M17.6477 2.72784C17.5319 2.72784 17.4111 2.70268 17.2954 2.65738C17.2501 2.63725 17.1444 2.61712 17.0488 2.60202L17.3659 0.76001L17.1998 1.68102L17.3759 0.76001C17.552 0.790207 17.7735 0.830469 17.9999 0.926093C18.478 1.12237 18.7094 1.67095 18.5132 2.14907C18.3672 2.5064 18.015 2.72784 17.6477 2.72784Z" fill="#F9A01B"/>
<path d="M17.6478 3.23119C17.4616 3.23119 17.2804 3.19596 17.1043 3.1255C17.0892 3.12047 17.0288 3.1104 16.9735 3.10034L16.4854 3.00975L16.5508 2.51653L16.7118 1.59049H16.7068L16.8728 0.669486H16.8879L16.9835 0.17627L17.4717 0.261828C17.6629 0.297057 17.9195 0.342353 18.2013 0.458108C18.5586 0.604059 18.8354 0.880865 18.9813 1.23316C19.1272 1.58546 19.1323 1.97802 18.9863 2.33535C18.7549 2.8789 18.2365 3.23119 17.6478 3.23119ZM17.6226 2.22463C17.8239 2.23973 17.9799 2.129 18.0503 1.95789C18.0956 1.8522 18.0906 1.73644 18.0503 1.62572C18.0051 1.52003 17.9245 1.43448 17.8138 1.39421C17.7987 1.38918 17.7887 1.38415 17.7736 1.37911L17.6226 2.22463Z" fill="#F9A01B"/>
<path d="M17.1441 2.60195C17.0686 2.60195 16.9982 2.59188 16.9227 2.57678C16.7164 2.52645 16.505 2.49626 16.2887 2.47109C15.7754 2.4107 15.408 1.94768 15.4684 1.43433C15.5288 0.920982 16.0018 0.553586 16.505 0.61398C16.7969 0.64921 17.0888 0.694505 17.3605 0.759932C17.8637 0.88072 18.1707 1.384 18.0499 1.88728C17.9493 2.31004 17.5668 2.60195 17.1441 2.60195Z" fill="#F9A01B"/>
<path d="M17.1443 3.10529C17.0336 3.10529 16.9178 3.09019 16.8071 3.06502C16.6461 3.02476 16.465 2.99456 16.2335 2.9694C15.851 2.9241 15.5088 2.73286 15.2723 2.43592C15.0358 2.13395 14.9251 1.75649 14.9704 1.37399C15.061 0.588874 15.7705 0.0251977 16.5656 0.110756C16.9078 0.151018 17.2097 0.201347 17.4815 0.266773C18.2514 0.452988 18.7294 1.23308 18.5432 2.0031C18.3872 2.65233 17.8136 3.10529 17.1443 3.10529ZM16.3995 1.10725C16.1832 1.10725 15.9919 1.27334 15.9668 1.48975C15.9517 1.6055 15.9869 1.71623 16.0574 1.80682C16.1278 1.89741 16.2335 1.95277 16.3442 1.96787C16.6159 1.99806 16.8373 2.03833 17.0386 2.08362C17.2852 2.14402 17.5066 1.988 17.562 1.76655C17.6173 1.53504 17.4764 1.2985 17.2449 1.24314C17.0135 1.18778 16.7518 1.14248 16.4499 1.10725C16.4297 1.10725 16.4146 1.10725 16.3995 1.10725Z" fill="#F9A01B"/>
<path d="M16.2187 2.46098C16.1734 2.46098 16.123 2.45595 16.0778 2.45091C15.8412 2.41568 15.5947 2.39052 15.3481 2.39052C14.8298 2.39052 14.4121 1.9728 14.4121 1.45442C14.4121 0.936035 14.8298 0.518311 15.3481 0.518311C15.6903 0.518311 16.0375 0.548508 16.3646 0.598836C16.8779 0.679361 17.2251 1.15748 17.1496 1.66579C17.0691 2.12881 16.6715 2.46098 16.2187 2.46098Z" fill="#F9A01B"/>
<path d="M16.2186 2.96431C16.1431 2.96431 16.0727 2.95928 16.0022 2.94921C15.7556 2.91398 15.5443 2.89385 15.343 2.89385C14.5479 2.89385 13.9038 2.24965 13.9038 1.45446C13.9038 0.659277 14.5479 0.0150757 15.343 0.0150757C15.6902 0.0150757 16.0576 0.0452726 16.435 0.105666C16.8124 0.16606 17.1495 0.367373 17.376 0.679408C17.6024 0.991443 17.6981 1.36891 17.6377 1.7514C17.527 2.45096 16.9281 2.96431 16.2186 2.96431ZM15.343 1.02164C15.1065 1.02164 14.9102 1.21792 14.9102 1.45446C14.9102 1.69101 15.1065 1.88729 15.343 1.88729C15.5946 1.88729 15.8563 1.90742 16.1481 1.95271C16.3595 1.98291 16.6061 1.82186 16.6413 1.59035C16.6614 1.47459 16.6312 1.36387 16.5608 1.26825C16.4903 1.17262 16.3897 1.11223 16.279 1.09713C15.9519 1.0468 15.6349 1.02164 15.343 1.02164Z" fill="#F9A01B"/>
<path d="M83.7249 17.8212C83.2066 17.8212 82.7889 17.4035 82.7889 16.8851V7.27741C82.7889 4.54962 80.6653 2.40061 77.948 2.37544H15.2021C14.6838 2.37544 14.2661 1.95772 14.2661 1.43934C14.2661 0.920959 14.6838 0.503235 15.2021 0.503235H77.958C81.7221 0.533432 84.6608 3.51286 84.6608 7.27741V16.8851C84.6608 17.4035 84.2432 17.8212 83.7249 17.8212Z" fill="#F9A01B"/>
<path d="M83.7247 18.3245C82.9296 18.3245 82.2855 17.6803 82.2855 16.8851V7.27243C82.2855 4.82648 80.3783 2.89387 77.9427 2.87374H15.2019C14.4068 2.87374 13.7627 2.22954 13.7627 1.43435C13.7627 0.639168 14.4068 0 15.2019 0H77.9578C81.9986 0.0352298 85.1639 3.23107 85.1639 7.27746V16.8902C85.1639 17.6803 84.5197 18.3245 83.7247 18.3245ZM77.9528 1.00656H15.2019C14.9654 1.00656 14.7691 1.20284 14.7691 1.43939C14.7691 1.67593 14.9654 1.87221 15.2019 1.87221H77.9478C80.9469 1.89737 83.2919 4.27287 83.2919 7.27746V16.8902C83.2919 17.1267 83.4882 17.323 83.7247 17.323C83.9612 17.323 84.1574 17.1267 84.1574 16.8902V7.27746C84.1574 3.78972 81.43 1.03676 77.9528 1.00656Z" fill="#F9A01B"/>
<path d="M83.725 71.8886C83.2067 71.8886 82.7891 71.4708 82.7891 70.9524V16.8848C82.7891 16.3665 83.2067 15.9487 83.725 15.9487C84.2434 15.9487 84.661 16.3665 84.661 16.8848V70.9524C84.661 71.4708 84.2434 71.8886 83.725 71.8886Z" fill="#F9A01B"/>
<path d="M83.7248 72.3919C82.9298 72.3919 82.2856 71.7477 82.2856 70.9525V16.8849C82.2856 16.0897 82.9298 15.4455 83.7248 15.4455C84.5199 15.4455 85.164 16.0897 85.164 16.8849V70.9525C85.164 71.7477 84.5199 72.3919 83.7248 72.3919ZM83.7248 16.4571C83.4883 16.4571 83.2921 16.6534 83.2921 16.8899V70.9575C83.2921 71.1941 83.4883 71.3904 83.7248 71.3904C83.9613 71.3904 84.1576 71.1941 84.1576 70.9575V16.8849C84.1576 16.6483 83.9613 16.4571 83.7248 16.4571Z" fill="#F9A01B"/>
<path d="M25.9208 13.3772C25.4025 13.3772 24.9848 12.9595 24.9848 12.4411C24.9848 12.0989 24.9697 11.7667 24.9345 11.4345C24.9093 11.1175 24.8691 10.8558 24.8187 10.594C24.7432 10.2065 24.6527 9.82402 24.5369 9.44656C24.1545 8.23365 23.5557 7.11133 22.7606 6.11987C22.5845 5.89339 22.4033 5.69208 22.202 5.50083C22.1618 5.4656 22.1265 5.42534 22.0963 5.38004C21.8548 5.1435 21.6585 4.96735 21.4573 4.7912C21.1905 4.55466 20.9389 4.36844 20.6823 4.18726C20.6521 4.16713 20.6269 4.14197 20.5968 4.12183L20.5615 4.1017C20.3451 3.96078 20.1187 3.8098 19.8923 3.69404C19.5702 3.5028 19.2934 3.36691 19.0066 3.24109C18.7097 3.11024 18.4128 2.99448 18.1008 2.88879C17.8995 2.81833 17.7133 2.76297 17.5221 2.71768C17.4466 2.70761 17.3711 2.68748 17.2957 2.65728C17.2504 2.63715 17.1447 2.61702 17.0491 2.60192C17.0139 2.59689 16.9786 2.58682 16.9434 2.57676H16.9384C16.717 2.52643 16.5157 2.4912 16.2943 2.46604C16.249 2.46604 16.1232 2.45597 16.0779 2.45094C15.786 2.40564 15.4791 2.43081 15.1872 2.37544H14.9306C9.38009 2.37544 4.86122 6.88989 4.86122 12.4411C4.86122 12.9595 4.44355 13.3772 3.92524 13.3772C3.40693 13.3772 2.98926 12.9595 2.98926 12.4411C2.98423 5.85816 8.33844 0.503235 14.9205 0.503235H15.1973C15.2425 0.503235 15.308 0.508268 15.3784 0.518333C15.7055 0.518333 16.0376 0.553563 16.3547 0.598859C16.2993 0.588793 16.4452 0.588793 16.6012 0.624023C16.7925 0.639121 17.0642 0.684417 17.351 0.749843C17.3711 0.754876 17.3862 0.759909 17.4064 0.764942C17.5322 0.785073 17.668 0.81527 17.8089 0.855532C17.8744 0.865598 17.9448 0.880697 18.0102 0.910893C18.2467 0.966255 18.4782 1.03671 18.7097 1.11724C19.0569 1.23299 19.4041 1.36888 19.7564 1.51987C20.1187 1.68092 20.4659 1.85203 20.8031 2.05334C21.0346 2.17413 21.3164 2.35531 21.5881 2.53146C21.5982 2.54153 21.6384 2.56669 21.6787 2.59689C21.734 2.62709 21.7793 2.66232 21.8296 2.70258C22.1165 2.90892 22.3983 3.12534 22.6599 3.35181C22.9065 3.56822 23.1229 3.75947 23.3242 3.96078C23.4198 4.04131 23.4902 4.12183 23.5406 4.19229C23.7922 4.43387 24.0136 4.69054 24.2249 4.96232C25.1609 6.1249 25.8704 7.45356 26.3183 8.88792C26.4592 9.32577 26.5649 9.78376 26.6555 10.2367C26.7209 10.5689 26.7662 10.896 26.7964 11.2382C26.8417 11.6258 26.8568 12.0284 26.8568 12.4461C26.8568 12.9595 26.4391 13.3772 25.9208 13.3772Z" fill="#F9A01B"/>
<path d="M25.9207 13.8805C25.1256 13.8805 24.4815 13.2363 24.4815 12.4411C24.4815 12.0737 24.4664 11.7718 24.4362 11.495C24.4111 11.198 24.3758 10.9565 24.3255 10.6897C24.24 10.2619 24.1544 9.91466 24.0538 9.59759C23.6915 8.44004 23.1228 7.37812 22.363 6.43195C22.1869 6.20547 22.0258 6.02429 21.8497 5.86324C21.7994 5.81794 21.7541 5.76761 21.7088 5.71225C21.4874 5.49584 21.3012 5.33479 21.12 5.16871C20.8634 4.94223 20.6168 4.76105 20.3853 4.6C20.3602 4.57987 20.33 4.55974 20.3048 4.53961L20.2797 4.52451C20.0532 4.37856 19.8469 4.24267 19.6507 4.14201C19.3487 3.96586 19.0921 3.83501 18.7952 3.70416C18.5084 3.57834 18.2215 3.46761 17.9297 3.37199C17.7334 3.30153 17.5673 3.25624 17.4013 3.21597C17.3208 3.20591 17.205 3.17571 17.0943 3.13042C17.0792 3.13042 17.0188 3.12035 16.9635 3.11028C16.9031 3.10022 16.8528 3.09015 16.8075 3.07505C16.6364 3.02473 16.4552 2.99453 16.254 2.96937C16.1785 2.96433 16.0527 2.95427 15.9973 2.94923C15.8765 2.9291 15.7558 2.92407 15.63 2.91904C15.474 2.914 15.3079 2.90394 15.1368 2.87877H14.9204C9.64674 2.87877 5.35935 7.17177 5.35935 12.4411C5.35935 13.2363 4.71523 13.8805 3.92015 13.8805C3.12507 13.8805 2.48096 13.2363 2.48096 12.4411C2.48096 5.5814 8.06161 0 14.9204 0H15.1972C15.2475 0 15.328 0.00503282 15.4086 0.0150985C15.7054 0.0201313 16.0174 0.0452954 16.3395 0.0905908C16.4301 0.085558 16.5408 0.100656 16.6767 0.125821C16.893 0.145952 17.1698 0.19628 17.4566 0.261707L17.5673 0.286871C17.6579 0.301969 17.7837 0.327133 17.9146 0.367396C17.9951 0.382495 18.0756 0.402626 18.1511 0.432823C18.3876 0.493217 18.6191 0.563676 18.8656 0.649234C19.2129 0.770022 19.5802 0.905908 19.9425 1.06696C20.3501 1.24814 20.7124 1.42932 21.0496 1.63063C21.276 1.74639 21.5578 1.92757 21.8547 2.12385C21.8547 2.12385 21.89 2.14398 21.9252 2.16915C22.0007 2.21444 22.0711 2.26477 22.1315 2.32013C22.4787 2.57177 22.7505 2.78315 22.9819 2.9895C23.2386 3.21597 23.46 3.41225 23.6663 3.61357C23.7569 3.68906 23.8475 3.78972 23.9079 3.86521C24.1595 4.10678 24.3909 4.36849 24.6174 4.66543C25.5886 5.8733 26.3233 7.24726 26.7963 8.74705C26.9271 9.1547 27.0378 9.61269 27.1435 10.1512C27.214 10.5035 27.2593 10.8457 27.2895 11.2081C27.3297 11.5805 27.3549 11.9982 27.3549 12.4562C27.3599 13.2363 26.7158 13.8805 25.9207 13.8805ZM16.9987 2.07352L17.0843 2.09365C17.0994 2.09869 17.1195 2.10372 17.1346 2.10372C17.3006 2.13392 17.3963 2.15405 17.4818 2.18928C17.512 2.20438 17.5472 2.20941 17.5875 2.21947C17.834 2.27484 18.0353 2.3302 18.2618 2.41072C18.5788 2.51641 18.8908 2.6372 19.2028 2.77309C19.5399 2.91904 19.8318 3.07002 20.1438 3.25624C20.3602 3.36696 20.5866 3.51794 20.808 3.66389L20.9238 3.73939C20.9389 3.74945 20.954 3.76455 20.964 3.77462C21.2157 3.95077 21.4874 4.15208 21.7793 4.41379C21.9856 4.59497 22.1869 4.77615 22.4385 5.02276L22.4938 5.08315C22.5039 5.09825 22.519 5.11335 22.5341 5.12845C22.7454 5.32976 22.9467 5.5512 23.148 5.80788C23.9783 6.84464 24.6073 8.01729 25.0099 9.29562C25.1206 9.64792 25.2162 10.0254 25.3068 10.4934C25.3621 10.7954 25.4024 11.0772 25.4276 11.3893C25.4628 11.6963 25.4779 12.0335 25.4779 12.4361C25.4779 12.6726 25.6741 12.8689 25.9106 12.8689C26.1472 12.8689 26.3434 12.6726 26.3434 12.4361C26.3434 12.0133 26.3233 11.6359 26.283 11.2836C26.2528 10.9464 26.2126 10.6394 26.1472 10.3223C26.0465 9.81904 25.9408 9.39628 25.8251 9.02888C25.3923 7.64989 24.718 6.38665 23.8173 5.26937C23.6059 4.99759 23.3996 4.76608 23.1732 4.54967L23.148 4.49934C23.1077 4.45405 23.0625 4.39365 23.0021 4.34333C22.7756 4.12691 22.5693 3.9407 22.3328 3.73435C22.1114 3.53807 21.8648 3.34179 21.5327 3.11028L21.4924 3.08009C21.4723 3.05996 21.4471 3.04486 21.422 3.02976L21.3213 2.96433C21.0496 2.78315 20.7779 2.61203 20.5715 2.50131C20.2444 2.31007 19.9174 2.14398 19.55 1.98293C19.2129 1.83698 18.8757 1.70613 18.5486 1.5954C18.3171 1.51488 18.1058 1.44945 17.8944 1.39912L17.824 1.37899C17.7988 1.36893 17.7686 1.36389 17.7384 1.35886L17.663 1.33873C17.5422 1.3035 17.4214 1.27834 17.3157 1.25821L16.9031 1.17265C16.7723 1.14748 16.6565 1.13239 16.5609 1.12232L16.4955 1.11225C16.4452 1.10219 16.3949 1.09212 16.3697 1.09212L16.3848 0.593873H16.3747L16.2892 1.09212C15.9722 1.04179 15.6702 1.01663 15.3884 1.01663L15.3331 1.0116C15.2777 1.0116 15.2324 1.00656 15.2022 1.00656H14.9255C8.61515 1.00656 3.48739 6.13501 3.48739 12.4411C3.48739 12.6777 3.68364 12.874 3.92015 12.874C4.15666 12.874 4.35292 12.6777 4.35292 12.4411C4.35292 6.61313 9.0932 1.87221 14.9204 1.87221L15.2677 1.88228C15.3985 1.90744 15.5344 1.91247 15.6702 1.91751C15.8313 1.92254 15.9923 1.9326 16.1483 1.95777C16.1785 1.9628 16.254 1.96783 16.2892 1.96783L16.3496 1.97287C16.581 1.99803 16.7823 2.03326 16.9937 2.07856L16.9987 2.07352Z" fill="#F9A01B"/>
<path d="M25.8907 13.3772H3.92036C3.40204 13.3772 2.98438 12.9595 2.98438 12.4411C2.98438 11.9227 3.40204 11.505 3.92036 11.505H25.8958C26.4141 11.505 26.8317 11.9227 26.8317 12.4411C26.8317 12.9595 26.409 13.3772 25.8907 13.3772Z" fill="#F9A01B"/>
<path d="M25.8905 13.8805H3.92015C3.12507 13.8805 2.48096 13.2363 2.48096 12.4412C2.48096 11.646 3.12507 11.0018 3.92015 11.0018H25.8956C26.6906 11.0018 27.3347 11.646 27.3347 12.4412C27.3347 13.2363 26.6856 13.8805 25.8905 13.8805ZM3.92015 12.0083C3.68364 12.0083 3.48739 12.2046 3.48739 12.4412C3.48739 12.6777 3.68364 12.874 3.92015 12.874H25.8956C26.1321 12.874 26.3283 12.6777 26.3283 12.4412C26.3283 12.2046 26.1321 12.0083 25.8956 12.0083H3.92015Z" fill="#F9A01B"/>
<path d="M56.7327 47.54H33.1269C32.6086 47.54 32.1909 47.1223 32.1909 46.6039C32.1909 46.0855 32.6086 45.6678 33.1269 45.6678H56.7327C57.251 45.6678 57.6687 46.0855 57.6687 46.6039C57.6687 47.1223 57.246 47.54 56.7327 47.54Z" fill="#F9A01B"/>
<path d="M56.7325 48.0433H33.1267C32.3316 48.0433 31.6875 47.3991 31.6875 46.6039C31.6875 45.8088 32.3316 45.1646 33.1267 45.1646H56.7325C57.5276 45.1646 58.1717 45.8088 58.1717 46.6039C58.1717 47.3991 57.5226 48.0433 56.7325 48.0433ZM33.1267 46.1711C32.8902 46.1711 32.6939 46.3674 32.6939 46.6039C32.6939 46.8405 32.8902 47.0368 33.1267 47.0368H56.7325C56.969 47.0368 57.1653 46.8405 57.1653 46.6039C57.1653 46.3674 56.969 46.1711 56.7325 46.1711H33.1267Z" fill="#F9A01B"/>
<path d="M44.6452 52.4217H33.1215C32.6032 52.4217 32.1855 52.004 32.1855 51.4856C32.1855 50.9672 32.6032 50.5495 33.1215 50.5495H44.6452C45.1635 50.5495 45.5811 50.9672 45.5811 51.4856C45.5811 52.004 45.1635 52.4217 44.6452 52.4217Z" fill="#F9A01B"/>
<path d="M44.6449 52.925H33.1213C32.3262 52.925 31.6821 52.2808 31.6821 51.4857C31.6821 50.6905 32.3262 50.0463 33.1213 50.0463H44.6449C45.44 50.0463 46.0841 50.6905 46.0841 51.4857C46.0841 52.2808 45.44 52.925 44.6449 52.925ZM33.1264 51.0528C32.8898 51.0528 32.6936 51.2491 32.6936 51.4857C32.6936 51.7222 32.8898 51.9185 33.1264 51.9185H44.65C44.8865 51.9185 45.0827 51.7222 45.0827 51.4857C45.0827 51.2491 44.8865 51.0528 44.65 51.0528H33.1264Z" fill="#F9A01B"/>
<path d="M51.5244 59.144H33.1269C32.6086 59.144 32.1909 58.7263 32.1909 58.2079C32.1909 57.6895 32.6086 57.2718 33.1269 57.2718H51.5244C52.0427 57.2718 52.4604 57.6895 52.4604 58.2079C52.4604 58.7263 52.0427 59.144 51.5244 59.144Z" fill="#F9A01B"/>
<path d="M51.5242 59.6473H33.1267C32.3316 59.6473 31.6875 59.0031 31.6875 58.2079C31.6875 57.4128 32.3316 56.7686 33.1267 56.7686H51.5242C52.3193 56.7686 52.9634 57.4128 52.9634 58.2079C52.9634 59.0031 52.3193 59.6473 51.5242 59.6473ZM33.1267 57.7751C32.8902 57.7751 32.6939 57.9714 32.6939 58.2079C32.6939 58.4445 32.8902 58.6408 33.1267 58.6408H51.5242C51.7607 58.6408 51.957 58.4445 51.957 58.2079C51.957 57.9714 51.7607 57.7751 51.5242 57.7751H33.1267Z" fill="#F9A01B"/>
<path d="M42.2249 64.2407H33.3935C32.8752 64.2407 32.4575 63.8229 32.4575 63.3046C32.4575 62.7862 32.8752 62.3685 33.3935 62.3685H42.2249C42.7432 62.3685 43.1609 62.7862 43.1609 63.3046C43.1609 63.8179 42.7432 64.2407 42.2249 64.2407Z" fill="#F9A01B"/>
<path d="M42.2247 64.744H33.3933C32.5982 64.744 31.9541 64.0998 31.9541 63.3046C31.9541 62.5094 32.5982 61.8652 33.3933 61.8652H42.2247C43.0198 61.8652 43.6639 62.5094 43.6639 63.3046C43.6639 64.0998 43.0198 64.744 42.2247 64.744ZM33.3933 62.8718C33.1568 62.8718 32.9605 63.0681 32.9605 63.3046C32.9605 63.5412 33.1568 63.7374 33.3933 63.7374H42.2247C42.4612 63.7374 42.6575 63.5412 42.6575 63.3046C42.6575 63.0681 42.4612 62.8718 42.2247 62.8718H33.3933Z" fill="#F9A01B"/>
<path d="M61.624 69.2164H33.1269C32.6086 69.2164 32.1909 68.7987 32.1909 68.2803C32.1909 67.7619 32.6086 67.3442 33.1269 67.3442H61.629C62.1473 67.3442 62.565 67.7619 62.565 68.2803C62.565 68.7987 62.1423 69.2164 61.624 69.2164Z" fill="#F9A01B"/>
<path d="M61.6238 69.7197H33.1267C32.3316 69.7197 31.6875 69.0755 31.6875 68.2803C31.6875 67.4851 32.3316 66.8409 33.1267 66.8409H61.6288C62.4239 66.8409 63.068 67.4851 63.068 68.2803C63.068 69.0755 62.4188 69.7197 61.6238 69.7197ZM33.1267 67.8525C32.8902 67.8525 32.6939 68.0488 32.6939 68.2854C32.6939 68.5219 32.8902 68.7182 33.1267 68.7182H61.6288C61.8653 68.7182 62.0616 68.5219 62.0616 68.2854C62.0616 68.0488 61.8653 67.8525 61.6288 67.8525H33.1267Z" fill="#F9A01B"/>
<path d="M25.9507 55.4163H25.684C25.1657 55.4163 24.748 54.9986 24.748 54.4802C24.748 53.9619 25.1657 53.5441 25.684 53.5441H25.9256C26.4439 53.5441 26.8766 53.9619 26.8766 54.4802C26.8766 54.9986 26.464 55.4163 25.9507 55.4163Z" fill="#F9A01B"/>
<path d="M25.9505 55.9197H25.6838C24.8887 55.9197 24.2446 55.2755 24.2446 54.4803C24.2446 53.6851 24.8887 53.0409 25.6838 53.0409H25.9254C26.7255 53.0409 27.3797 53.6851 27.3797 54.4803C27.3797 55.2755 26.7355 55.9197 25.9505 55.9197ZM25.6838 54.0475C25.4473 54.0475 25.2511 54.2437 25.2511 54.4803C25.2511 54.7168 25.4473 54.9131 25.6838 54.9131H25.9505C26.187 54.9131 26.3682 54.7219 26.3682 54.4803C26.3682 54.2437 26.1619 54.0475 25.9203 54.0475H25.6838Z" fill="#F9A01B"/>
<path d="M53.059 96.2575C52.8527 96.2575 52.6464 96.1921 52.4803 96.0562L0.920917 55.2149C0.518345 54.8928 0.447895 54.3039 0.769953 53.9013C1.09201 53.4936 1.68077 53.4282 2.08334 53.7503L53.059 94.1337L103.864 53.7503C104.266 53.4282 104.855 53.4936 105.177 53.9013C105.499 54.3039 105.434 54.8928 105.026 55.2149L53.6377 96.0562C53.4666 96.1921 53.2653 96.2575 53.059 96.2575Z" fill="#F9A01B"/>
<path d="M53.0591 96.7659C52.737 96.7659 52.42 96.6552 52.1684 96.4539L0.608984 55.6075C-0.0150024 55.1142 -0.120678 54.2083 0.372473 53.5843C0.865624 52.9652 1.77141 52.8595 2.39037 53.3477L53.0541 93.4845L103.552 53.3528C103.849 53.1162 104.231 53.0055 104.608 53.0508C104.991 53.0961 105.333 53.2823 105.575 53.5843C105.811 53.8862 105.922 54.2587 105.877 54.6412C105.831 55.0237 105.645 55.3659 105.343 55.6075L53.9548 96.4488C53.6982 96.6501 53.3811 96.7659 53.0591 96.7659ZM1.49967 54.0523C1.37387 54.0523 1.24304 54.1077 1.15749 54.2184C1.01156 54.4046 1.04175 54.6764 1.22794 54.8274L52.7823 95.6687C52.9383 95.7895 53.1648 95.7895 53.3157 95.6687L104.704 54.8274C104.795 54.7569 104.85 54.6512 104.865 54.5355C104.88 54.4197 104.845 54.309 104.775 54.2184C104.704 54.1278 104.598 54.0725 104.483 54.0574C104.367 54.0423 104.256 54.0775 104.166 54.1479L53.044 94.7779L1.76638 54.1429C1.6909 54.0825 1.59529 54.0523 1.49967 54.0523Z" fill="#F9A01B"/>
<path d="M104.447 114.497L1.49943 114.411C1.10692 114.411 0.709381 114.17 0.573513 113.797C0.437645 113.43 0.492999 113.017 0.794928 112.76C0.79996 112.755 0.900603 112.67 0.905635 112.665L37.2126 82.5283C37.6101 82.1961 38.1989 82.2515 38.531 82.6491C38.8631 83.0467 38.8078 83.6355 38.4102 83.9677L3.99034 112.539L101.82 112.62L67.1992 84.3552C66.7966 84.0281 66.7412 83.4392 67.0633 83.0366C67.3904 82.639 67.9792 82.5786 68.3817 82.9057L105.041 112.831C105.348 113.083 105.464 113.495 105.333 113.868C105.192 114.245 104.84 114.497 104.447 114.497Z" fill="#F9A01B"/>
<path d="M104.447 115L1.49946 114.915C0.880503 114.915 0.306838 114.527 0.100519 113.973C-0.115863 113.385 0.0250371 112.76 0.462834 112.383L0.528252 112.328C0.573542 112.292 0.613799 112.257 0.618831 112.257L36.8906 82.1458C37.1824 81.8992 37.5548 81.7835 37.9423 81.8187C38.3247 81.8539 38.672 82.0351 38.9185 82.332C39.1651 82.629 39.2808 83.0014 39.2456 83.3839C39.2104 83.7664 39.0292 84.1137 38.7323 84.3603L5.38428 112.041L100.406 112.116L66.8772 84.7478C66.2632 84.2445 66.1727 83.3386 66.6708 82.7246C67.1791 82.1106 68.0849 82.02 68.6988 82.5183L105.358 112.443C105.831 112.831 106.007 113.47 105.801 114.044C105.595 114.613 105.051 115 104.447 115ZM1.11701 113.148C0.976114 113.269 0.986178 113.475 1.04153 113.626C1.09689 113.782 1.3032 113.908 1.49443 113.908L104.442 113.994V114.497V113.994C104.623 113.994 104.789 113.878 104.85 113.707C104.91 113.536 104.855 113.344 104.714 113.229L68.0547 83.3034C67.8685 83.1524 67.5968 83.1826 67.4458 83.3638C67.2999 83.545 67.325 83.8218 67.5112 83.9727L103.229 113.128L2.59647 113.042L38.0882 83.5852C38.1788 83.5097 38.2342 83.4091 38.2442 83.2933C38.2543 83.1776 38.2191 83.0668 38.1486 82.9762C38.0731 82.8856 37.9725 82.8303 37.8568 82.8202C37.736 82.8102 37.6303 82.8454 37.5448 82.9158L1.18746 113.093C1.1623 113.108 1.14217 113.128 1.11701 113.148Z" fill="#F9A01B"/>
<path d="M104.447 55.4164C104.241 55.4164 104.034 55.3509 103.863 55.2151L83.4478 38.9943C83.0452 38.6722 82.9747 38.0833 83.2968 37.6807C83.6189 37.2731 84.2076 37.2076 84.6102 37.5297L105.026 53.7505C105.428 54.0726 105.499 54.6615 105.177 55.0641C104.995 55.2956 104.724 55.4164 104.447 55.4164Z" fill="#F9A01B"/>
<path d="M104.447 55.9197C104.12 55.9197 103.803 55.809 103.551 55.6077L83.141 39.3869C82.8391 39.1503 82.6479 38.8081 82.6076 38.4256C82.5623 38.0431 82.673 37.6657 82.9095 37.3637C83.146 37.0617 83.4882 36.8755 83.8707 36.8302C84.2531 36.7849 84.6305 36.8956 84.9325 37.1322L105.348 53.353C105.65 53.5895 105.841 53.9317 105.881 54.3142C105.927 54.6967 105.816 55.0742 105.579 55.3711C105.298 55.7234 104.89 55.9197 104.447 55.9197ZM84.0317 37.8267C84.0166 37.8267 83.9965 37.8267 83.9814 37.8317C83.8656 37.8468 83.765 37.9022 83.6946 37.9928C83.6191 38.0834 83.5889 38.1991 83.604 38.3149C83.6191 38.4306 83.6744 38.5313 83.765 38.6018L104.18 54.8225C104.276 54.898 104.382 54.9182 104.447 54.9182C104.578 54.9182 104.704 54.8578 104.784 54.7571C104.855 54.6665 104.89 54.5508 104.875 54.4401C104.86 54.3243 104.804 54.2236 104.714 54.1532L84.2984 37.9324C84.2229 37.8619 84.1273 37.8267 84.0317 37.8267Z" fill="#F9A01B"/>
<path d="M25.6838 55.4166H1.49932C1.10178 55.4166 0.7445 55.165 0.613664 54.7875C0.482828 54.4101 0.603599 53.9923 0.915593 53.7457L25.2662 34.4549C25.6687 34.1379 26.2575 34.2033 26.5796 34.6059C26.9016 35.0136 26.8312 35.5974 26.4286 35.9195L4.18649 53.5444H25.6788C26.1971 53.5444 26.6148 53.9621 26.6148 54.4805C26.6148 54.9989 26.1971 55.4166 25.6838 55.4166Z" fill="#F9A01B"/>
<path d="M25.6838 55.9197H1.49931C0.885392 55.9197 0.34192 55.5322 0.140634 54.9534C-0.0606518 54.3746 0.125538 53.7304 0.608624 53.353L24.9592 34.0622C25.5782 33.569 26.4839 33.6746 26.9771 34.2937C27.4702 34.9177 27.3646 35.8237 26.7456 36.3169L5.63574 53.0409H25.6838C26.4789 53.0409 27.123 53.6852 27.123 54.4803C27.123 55.2755 26.4739 55.9197 25.6838 55.9197ZM25.8499 34.7617C25.7543 34.7617 25.6637 34.7919 25.5832 34.8523L1.23261 54.1431C1.08668 54.2589 1.03132 54.4501 1.09171 54.6263C1.1521 54.7974 1.31816 54.9182 1.49931 54.9182H25.6838C25.9203 54.9182 26.1166 54.7219 26.1166 54.4854C26.1166 54.2488 25.9203 54.0525 25.6838 54.0525H2.74226L26.1216 35.5318C26.3078 35.3858 26.343 35.109 26.1921 34.9228C26.1065 34.8171 25.9807 34.7617 25.8499 34.7617Z" fill="#F9A01B"/>
<path d="M47.3729 37.8266H33.1269C32.6086 37.8266 32.1909 37.4088 32.1909 36.8905C32.1909 36.3721 32.6086 35.9543 33.1269 35.9543H47.3779C47.8963 35.9543 48.3139 36.3721 48.3139 36.8905C48.3139 37.4088 47.8912 37.8266 47.3729 37.8266Z" fill="#F9A01B"/>
<path d="M47.3727 38.3299H33.1267C32.3316 38.3299 31.6875 37.6857 31.6875 36.8905C31.6875 36.0953 32.3316 35.4511 33.1267 35.4511H47.3777C48.1728 35.4511 48.8169 36.0953 48.8169 36.8905C48.8169 37.6857 48.1678 38.3299 47.3727 38.3299ZM33.1267 36.4627C32.8902 36.4627 32.6939 36.659 32.6939 36.8955C32.6939 37.1321 32.8902 37.3283 33.1267 37.3283H47.3777C47.6143 37.3283 47.8105 37.1321 47.8105 36.8955C47.8105 36.659 47.6143 36.4627 47.3777 36.4627H33.1267Z" fill="#F9A01B"/>
<path d="M51.5244 33.1613H33.1269C32.6086 33.1613 32.1909 32.7436 32.1909 32.2252C32.1909 31.7068 32.6086 31.2891 33.1269 31.2891H51.5244C52.0427 31.2891 52.4604 31.7068 52.4604 32.2252C52.4604 32.7385 52.0427 33.1613 51.5244 33.1613Z" fill="#F9A01B"/>
<path d="M51.5242 33.6646H33.1267C32.3316 33.6646 31.6875 33.0204 31.6875 32.2252C31.6875 31.43 32.3316 30.7858 33.1267 30.7858H51.5242C52.3193 30.7858 52.9634 31.43 52.9634 32.2252C52.9634 33.0204 52.3193 33.6646 51.5242 33.6646ZM33.1267 31.7924C32.8902 31.7924 32.6939 31.9887 32.6939 32.2252C32.6939 32.4618 32.8902 32.658 33.1267 32.658H51.5242C51.7607 32.658 51.957 32.4618 51.957 32.2252C51.957 31.9887 51.7607 31.7924 51.5242 31.7924H33.1267Z" fill="#F9A01B"/>
<path d="M47.3729 25.0685H33.1269C32.6086 25.0685 32.1909 24.6508 32.1909 24.1324C32.1909 23.614 32.6086 23.1963 33.1269 23.1963H47.3779C47.8963 23.1963 48.3139 23.614 48.3139 24.1324C48.3089 24.6508 47.8912 25.0685 47.3729 25.0685Z" fill="#F9A01B"/>
<path d="M47.3727 25.5718H33.1267C32.3316 25.5718 31.6875 24.9276 31.6875 24.1324C31.6875 23.3373 32.3316 22.6931 33.1267 22.6931H47.3777C48.1728 22.6931 48.8169 23.3373 48.8169 24.1324C48.8169 24.9276 48.1678 25.5718 47.3727 25.5718ZM33.1267 23.6996C32.8902 23.6996 32.6939 23.8959 32.6939 24.1324C32.6939 24.369 32.8902 24.5653 33.1267 24.5653H47.3777C47.6143 24.5653 47.8105 24.369 47.8105 24.1324C47.8105 23.8959 47.6143 23.6996 47.3777 23.6996H33.1267Z" fill="#F9A01B"/>
<path d="M97.3572 76.7002C112.309 76.7002 124.43 64.5776 124.43 49.6236C124.43 34.6697 112.309 22.5471 97.3572 22.5471C82.4052 22.5471 70.2842 34.6697 70.2842 49.6236C70.2842 64.5776 82.4052 76.7002 97.3572 76.7002Z" fill="white"/>
<path d="M97.3572 76.7002C112.309 76.7002 124.43 64.5776 124.43 49.6236C124.43 34.6697 112.309 22.5471 97.3572 22.5471C82.4052 22.5471 70.2842 34.6697 70.2842 49.6236C70.2842 64.5776 82.4052 76.7002 97.3572 76.7002Z" fill="white"/>
<path d="M97.3572 77.7169C81.8381 77.7169 69.2124 65.0895 69.2124 49.5683C69.2124 39.558 74.6069 30.2171 83.2873 25.1944C83.7704 24.9176 84.3843 25.0786 84.6611 25.5618C84.9379 26.0449 84.7768 26.6589 84.2938 26.9357C76.2323 31.6011 71.2253 40.2727 71.2253 49.5683C71.2253 63.9773 82.9451 75.7038 97.3572 75.7038C111.769 75.7038 123.489 63.9823 123.489 49.5683C123.489 36.2716 113.51 25.2648 100.653 23.6392L102.787 25.2397C103.23 25.5718 103.32 26.206 102.988 26.6488C102.656 27.0917 102.027 27.1823 101.579 26.8502L96.7634 23.2366C96.7332 23.2165 96.703 23.1913 96.6779 23.1661C96.6527 23.141 96.6276 23.1158 96.6074 23.0906C96.4514 22.9145 96.3558 22.683 96.3558 22.4263C96.3558 22.1696 96.4514 21.9381 96.6074 21.762C96.6326 21.7368 96.6578 21.7116 96.6829 21.6865C96.7081 21.6613 96.7383 21.6412 96.7634 21.6211L101.579 18.0075C102.027 17.6753 102.656 17.7659 102.988 18.2088C103.32 18.6517 103.23 19.2858 102.787 19.618L100.19 21.5657C114.386 22.99 125.502 35.0084 125.502 49.5734C125.497 65.0895 112.876 77.7169 97.3572 77.7169Z" fill="#2D2D82"/>
<path d="M97.357 78.2202C81.5611 78.2202 68.709 65.3664 68.709 49.5683C68.709 39.3769 74.1991 29.8749 83.0305 24.7616C83.7501 24.3438 84.676 24.5904 85.0937 25.3101C85.5113 26.0298 85.2648 26.9559 84.5452 27.3736C76.6397 31.9484 71.7283 40.4539 71.7283 49.5683C71.7283 63.7005 83.2267 75.2005 97.357 75.2005C111.487 75.2005 122.986 63.7005 122.986 49.5683C122.986 37.3738 114.361 26.9257 102.606 24.4797L103.089 24.8421C103.411 25.0837 103.622 25.436 103.677 25.8386C103.733 26.2412 103.632 26.6338 103.391 26.9559C102.892 27.6202 101.941 27.7561 101.277 27.2578L96.4613 23.6443C96.421 23.6141 96.3757 23.5788 96.3355 23.5386C96.3003 23.5084 96.265 23.4732 96.2298 23.4329C96.0084 23.1813 95.8776 22.8692 95.8524 22.5421L95.7115 22.1898L95.8826 22.1042C95.9379 21.8526 96.0537 21.6211 96.2298 21.4248C96.2701 21.3845 96.3053 21.3443 96.3456 21.309C96.3858 21.2738 96.4261 21.2386 96.4714 21.2084L101.282 17.5999C101.951 17.1016 102.897 17.2375 103.396 17.9018C103.637 18.2239 103.738 18.6215 103.682 19.0191C103.627 19.4167 103.416 19.774 103.094 20.0156L101.498 21.2134C115.558 23.2366 126.01 35.2147 126.01 49.5683C126 65.3664 113.153 78.2202 97.357 78.2202ZM83.7853 25.5618C83.6998 25.5618 83.6142 25.5819 83.5337 25.6272C75.0092 30.5594 69.7104 39.7342 69.7104 49.5633C69.7104 64.8077 82.1096 77.2086 97.352 77.2086C112.594 77.2086 124.994 64.8077 124.994 49.5633C124.994 35.3053 114.305 23.4832 100.135 22.0589L98.8516 21.9281L102.48 19.2053C102.585 19.1248 102.656 19.009 102.676 18.8732C102.696 18.7423 102.661 18.6064 102.58 18.5007C102.414 18.2793 102.097 18.234 101.876 18.4001L97.0601 22.0136C97.04 22.0287 97.0299 22.0388 97.0148 22.0489C96.9997 22.064 96.9846 22.0791 96.9746 22.0942C96.9092 22.1697 96.8689 22.2602 96.8538 22.3609L96.9544 22.683L96.9293 22.6981C96.9444 22.7182 96.9595 22.7384 96.9746 22.7585C96.9846 22.7686 96.9947 22.7837 97.0098 22.7937C97.0249 22.8088 97.04 22.8189 97.0501 22.829L101.871 26.4476C102.092 26.6136 102.409 26.5683 102.575 26.3469C102.656 26.2412 102.691 26.1053 102.671 25.9745C102.651 25.8436 102.58 25.7228 102.475 25.6423L98.8214 22.8994L100.708 23.136C113.978 24.8119 123.982 36.176 123.982 49.5633C123.982 64.2491 112.036 76.202 97.3469 76.202C82.6581 76.202 70.7118 64.2541 70.7118 49.5633C70.7118 40.0915 75.8144 31.2539 84.0319 26.4979C84.2734 26.357 84.3539 26.05 84.2181 25.8084C84.1325 25.6524 83.9614 25.5618 83.7853 25.5618Z" fill="#2D2D82"/>
<path d="M94.7503 52.0595H97.2413V54.0172C97.2413 54.1984 97.1809 54.3595 97.0651 54.4903C96.9494 54.6212 96.7733 54.6866 96.5468 54.6866H94.7554V59.5181H91.8015V54.6866H83.4582C83.2317 54.6866 83.0305 54.6161 82.8543 54.4752C82.6832 54.3343 82.5725 54.1582 82.5272 53.9468L82.1851 52.2356L91.5549 39.719H94.7554V52.0595H94.7503ZM91.7965 45.5873C91.7965 45.2954 91.8065 44.9783 91.8216 44.6411C91.8418 44.3039 91.8719 43.9516 91.9172 43.5892L85.773 52.0595H91.7914V45.5873H91.7965Z" fill="#2D2D82"/>
<path d="M95.2536 60.0215H91.2933V55.1899H83.4532C83.106 55.1899 82.799 55.0792 82.5323 54.8628C82.2706 54.6514 82.0995 54.3746 82.0291 54.0525L81.6416 52.1149L91.2983 39.2158H95.2536V51.5562H97.7445V54.0173C97.7445 54.3243 97.6388 54.6011 97.4375 54.8276C97.2866 54.9937 97.0098 55.195 96.5418 55.195H95.2536V60.0215ZM92.2997 59.0149H94.2471V54.1834H96.5418C96.6123 54.1834 96.6676 54.1733 96.6877 54.1532C96.7179 54.1179 96.7381 54.0827 96.7381 54.0173V52.5628H94.2471V40.2223H91.8015L82.7185 52.3615L83.0154 53.8512C83.0355 53.9418 83.0808 54.0173 83.1663 54.0878C83.2519 54.1582 83.3374 54.1884 83.4481 54.1884H92.2947V59.0149H92.2997ZM92.2997 52.5628H84.7917L92.662 41.712L92.4205 43.6547C92.3752 44.007 92.345 44.3492 92.3299 44.6713C92.3098 44.9985 92.3047 45.3055 92.3047 45.5873V52.5628H92.2997ZM86.7643 51.5562H91.2933V45.5873C91.2933 45.4967 91.2933 45.4011 91.2933 45.3055L86.7643 51.5562Z" fill="#2D2D82"/>
<path d="M105.665 59.7347C104.644 59.7347 103.713 59.5988 102.867 59.322C102.022 59.0502 101.302 58.6627 100.699 58.1594C100.095 57.6561 99.6267 57.0522 99.2946 56.3375C98.9625 55.6229 98.7964 54.8327 98.7964 53.957C98.7964 52.7894 99.0832 51.8029 99.6569 50.9927C100.231 50.1874 101.126 49.5885 102.339 49.1959C101.373 48.7933 100.648 48.2246 100.17 47.4848C99.6921 46.745 99.4506 45.8592 99.4506 44.8174C99.4506 44.0675 99.6015 43.373 99.9085 42.7237C100.215 42.0745 100.638 41.5108 101.187 41.0327C101.735 40.5546 102.389 40.1822 103.149 39.9104C103.909 39.6436 104.749 39.5078 105.66 39.5078C106.571 39.5078 107.406 39.6436 108.171 39.9104C108.931 40.1771 109.585 40.5546 110.134 41.0327C110.682 41.5108 111.105 42.0745 111.412 42.7237C111.719 43.373 111.87 44.0675 111.87 44.8174C111.87 45.8592 111.628 46.745 111.145 47.4848C110.662 48.2246 109.943 48.7933 108.981 49.1959C110.194 49.5885 111.09 50.1874 111.664 50.9927C112.237 51.7979 112.524 52.7894 112.524 53.957C112.524 54.8327 112.358 55.6279 112.026 56.3375C111.694 57.0471 111.226 57.6561 110.622 58.1594C110.018 58.6627 109.298 59.0502 108.453 59.322C107.618 59.5988 106.687 59.7347 105.665 59.7347ZM105.665 57.0975C106.224 57.0975 106.712 57.0169 107.13 56.8559C107.547 56.6948 107.905 56.4734 108.191 56.1916C108.478 55.9097 108.695 55.5725 108.841 55.18C108.986 54.7874 109.062 54.3646 109.062 53.9067C109.062 52.8196 108.76 51.9992 108.161 51.4456C107.557 50.887 106.732 50.6102 105.67 50.6102C104.609 50.6102 103.783 50.887 103.179 51.4456C102.576 52.0043 102.279 52.8246 102.279 53.9067C102.279 54.3646 102.349 54.7874 102.495 55.18C102.641 55.5725 102.857 55.9097 103.144 56.1916C103.431 56.4734 103.783 56.6948 104.206 56.8559C104.624 57.0169 105.112 57.0975 105.665 57.0975ZM105.665 47.9579C106.214 47.9579 106.672 47.8723 107.049 47.6962C107.421 47.525 107.723 47.2935 107.95 47.0067C108.176 46.7198 108.337 46.3927 108.433 46.0202C108.529 45.6528 108.579 45.2703 108.579 44.8778C108.579 44.5053 108.519 44.148 108.403 43.8108C108.282 43.4736 108.106 43.1767 107.869 42.915C107.633 42.6533 107.331 42.4469 106.969 42.2909C106.601 42.1349 106.168 42.0594 105.67 42.0594C105.172 42.0594 104.734 42.1349 104.372 42.2909C104.005 42.4469 103.703 42.6533 103.461 42.915C103.22 43.1767 103.044 43.4736 102.928 43.8108C102.812 44.148 102.757 44.5053 102.757 44.8778C102.757 45.2703 102.802 45.6528 102.903 46.0202C102.998 46.3876 103.159 46.7198 103.386 47.0067C103.612 47.2935 103.914 47.525 104.286 47.6962C104.659 47.8673 105.117 47.9579 105.665 47.9579Z" fill="#2D2D82"/>
<path d="M105.665 60.2381C104.598 60.2381 103.602 60.0921 102.711 59.8052C101.81 59.5133 101.025 59.0906 100.376 58.5521C99.7221 58.0035 99.2038 57.3341 98.8415 56.5591C98.4792 55.784 98.293 54.9083 98.293 53.9672C98.293 52.6989 98.615 51.6017 99.2491 50.7109C99.702 50.0718 100.341 49.5483 101.146 49.1457C100.567 48.7683 100.1 48.3052 99.7523 47.7667C99.2239 46.9464 98.9522 45.9599 98.9522 44.8276C98.9522 44.0072 99.1233 43.2322 99.4604 42.5175C99.7925 41.8079 100.266 41.1888 100.864 40.6654C101.458 40.147 102.173 39.7343 102.993 39.4475C103.803 39.1606 104.704 39.0146 105.67 39.0146C106.636 39.0146 107.537 39.1606 108.347 39.4475C109.167 39.7343 109.882 40.147 110.476 40.6654C111.075 41.1888 111.543 41.8129 111.88 42.5175C112.217 43.2322 112.388 44.0072 112.388 44.8276C112.388 45.9599 112.116 46.9514 111.583 47.7718C111.231 48.3103 110.763 48.7683 110.189 49.1457C110.999 49.5483 111.633 50.0718 112.091 50.7109C112.725 51.6017 113.047 52.6939 113.047 53.9672C113.047 54.9133 112.861 55.784 112.499 56.5591C112.136 57.3341 111.618 58.0035 110.964 58.5521C110.315 59.0906 109.53 59.5133 108.629 59.8052C107.728 60.0921 106.737 60.2381 105.665 60.2381ZM105.665 40.0162C104.815 40.0162 104.025 40.142 103.32 40.3886C102.621 40.6352 102.017 40.9825 101.519 41.4153C101.025 41.8481 100.638 42.3615 100.361 42.9403C100.089 43.519 99.9485 44.1481 99.9485 44.8175C99.9485 45.7536 100.165 46.5588 100.588 47.2131C101.005 47.8623 101.659 48.3707 102.525 48.733L103.788 49.2564L102.49 49.6792C101.388 50.0365 100.573 50.5801 100.064 51.2897C99.556 52.0044 99.2944 52.9052 99.2944 53.9621C99.2944 54.7573 99.4453 55.4871 99.7473 56.1313C100.044 56.7704 100.472 57.3241 101.015 57.777C101.564 58.235 102.238 58.5974 103.018 58.849C103.808 59.1057 104.694 59.2365 105.66 59.2365C106.626 59.2365 107.512 59.1057 108.302 58.849C109.082 58.5974 109.751 58.235 110.305 57.777C110.848 57.3241 111.271 56.7704 111.573 56.1313C111.875 55.4921 112.026 54.7623 112.026 53.9621C112.026 52.9052 111.769 52.0094 111.256 51.2897C110.748 50.575 109.932 50.0365 108.83 49.6792L107.537 49.2615L108.79 48.7381C109.651 48.3807 110.3 47.8674 110.722 47.2181C111.15 46.5639 111.366 45.7637 111.366 44.8276C111.366 44.1582 111.231 43.5241 110.954 42.9503C110.677 42.3665 110.29 41.8532 109.796 41.4254C109.298 40.9925 108.694 40.6453 107.995 40.3987C107.301 40.142 106.515 40.0162 105.665 40.0162ZM105.665 57.6009C105.051 57.6009 104.498 57.5103 104.025 57.3291C103.541 57.1479 103.129 56.8862 102.792 56.554C102.455 56.2219 102.193 55.8192 102.022 55.3562C101.856 54.9083 101.77 54.4251 101.77 53.9068C101.77 52.6788 102.127 51.7276 102.837 51.0733C103.531 50.4291 104.483 50.107 105.67 50.107C106.853 50.107 107.809 50.4341 108.503 51.0733C109.208 51.7276 109.57 52.6788 109.57 53.9068C109.57 54.4201 109.484 54.9083 109.318 55.3562C109.147 55.8142 108.891 56.2168 108.548 56.554C108.211 56.8862 107.799 57.1429 107.316 57.3291C106.833 57.5052 106.279 57.6009 105.665 57.6009ZM105.665 51.1136C104.729 51.1136 104.03 51.3451 103.516 51.8131C103.018 52.2761 102.777 52.9606 102.777 53.9068C102.777 54.2993 102.837 54.6718 102.963 55.0039C103.084 55.3311 103.255 55.6028 103.491 55.8343C103.728 56.0658 104.025 56.2521 104.377 56.3879C104.739 56.5238 105.167 56.5943 105.66 56.5943C106.153 56.5943 106.586 56.5238 106.943 56.3879C107.295 56.2521 107.592 56.0709 107.829 55.8343C108.065 55.6028 108.236 55.3311 108.357 55.0039C108.483 54.6718 108.543 54.2993 108.543 53.9068C108.543 52.9606 108.302 52.2761 107.804 51.8131C107.301 51.3451 106.601 51.1136 105.665 51.1136ZM105.665 48.4613C105.046 48.4613 104.513 48.3556 104.07 48.1543C103.627 47.9479 103.26 47.6661 102.983 47.3188C102.711 46.9766 102.52 46.584 102.404 46.1462C102.299 45.7385 102.243 45.3107 102.243 44.8779C102.243 44.4501 102.309 44.0374 102.439 43.6499C102.575 43.2473 102.792 42.8849 103.084 42.5729C103.37 42.2608 103.733 42.0142 104.165 41.828C104.593 41.6468 105.096 41.5562 105.66 41.5562C106.224 41.5562 106.732 41.6468 107.155 41.828C107.587 42.0092 107.95 42.2608 108.231 42.5729C108.513 42.8799 108.73 43.2422 108.866 43.6398C109.001 44.0324 109.072 44.4451 109.072 44.8729C109.072 45.3057 109.016 45.7335 108.911 46.1411C108.8 46.579 108.604 46.9715 108.332 47.3138C108.055 47.661 107.693 47.9429 107.245 48.1492C106.817 48.3556 106.284 48.4613 105.665 48.4613ZM105.665 42.5628C105.232 42.5628 104.865 42.6282 104.563 42.754C104.266 42.8799 104.02 43.051 103.828 43.2573C103.632 43.4687 103.496 43.7002 103.401 43.972C103.305 44.2538 103.255 44.5608 103.255 44.8779C103.255 45.2252 103.295 45.5674 103.38 45.8945C103.461 46.1965 103.587 46.4582 103.773 46.6947C103.949 46.9162 104.191 47.1024 104.493 47.2433C104.8 47.3842 105.192 47.4547 105.665 47.4547C106.138 47.4547 106.531 47.3842 106.838 47.2433C107.139 47.1024 107.381 46.9212 107.557 46.6947C107.743 46.4632 107.869 46.2015 107.95 45.8945C108.035 45.5674 108.075 45.2252 108.075 44.8779C108.075 44.5608 108.025 44.2588 107.925 43.977C107.829 43.7052 107.683 43.4637 107.492 43.2523C107.306 43.0459 107.059 42.8799 106.762 42.754C106.465 42.6282 106.098 42.5628 105.665 42.5628Z" fill="#2D2D82"/>
</g>
<defs>
<clipPath id="clip0_1_293">
<rect width="126" height="115" fill="white"/>
</clipPath>
</defs>
</svg>
