<svg width="52" height="52" viewBox="0 0 52 52" fill="none" xmlns="http://www.w3.org/2000/svg">
    <path d="M26.0018 52C11.6619 52 0 40.3381 0 26.0018C0 11.6619 11.6619 0 26.0018 0C40.3417 0 52.0036 11.6619 52.0036 26.0018C52 40.3381 40.3381 52 26.0018 52ZM26.0018 1.42261C12.4478 1.42261 1.42261 12.4478 1.42261 26.0018C1.42261 39.5521 12.4478 50.5774 26.0018 50.5774C39.5557 50.5774 50.5809 39.5521 50.5809 26.0018C50.5774 12.4478 39.5521 1.42261 26.0018 1.42261Z"
          fill="#2D2D82"/>
    <svg width="16" height="24" viewBox="-14 01 14 0" fill="none" xmlns="http://www.w3.org/2000/svg">
        <path d="M14.2433 19.9811C14.7127 19.9811 15.0791 20.1127 15.3458 20.3723C15.6125 20.6319 15.7441 20.9769 15.7441 21.4037V23.9395H0.00292969V22.5311C0.00292969 22.2608 0.059834 21.9656 0.173643 21.6456C0.287452 21.329 0.483061 21.0374 0.753357 20.7778L7.48231 14.0346C8.05491 13.462 8.56349 12.9107 9.00095 12.3844C9.4384 11.858 9.80472 11.3423 10.0964 10.8337C10.388 10.3287 10.6085 9.81299 10.7543 9.29373C10.9001 8.77092 10.9748 8.22322 10.9748 7.65062C10.9748 6.64056 10.7152 5.8688 10.1924 5.34243C9.66957 4.81607 8.93337 4.55288 7.98734 4.55288C7.57122 4.55288 7.18712 4.61334 6.83858 4.73427C6.49004 4.85519 6.17706 5.01879 5.89965 5.22862C5.62224 5.43846 5.38751 5.68386 5.18835 5.96482C4.98918 6.24579 4.84337 6.55521 4.7509 6.88952C4.5624 7.41233 4.30989 7.75731 3.99336 7.93158C3.67327 8.1023 3.22514 8.14142 2.63832 8.04895L0.355027 7.6435C0.522183 6.53742 0.835158 5.56649 1.29395 4.73427C1.75274 3.89848 2.32534 3.20496 3.01531 2.6537C3.70528 2.10243 4.49127 1.68632 5.37685 1.40891C6.26242 1.1315 7.21913 0.992798 8.23985 0.992798C9.31392 0.992798 10.292 1.15284 11.174 1.46937C12.056 1.78946 12.81 2.23047 13.4359 2.79951C14.0619 3.36856 14.5456 4.05497 14.8906 4.85874C15.2355 5.66252 15.4063 6.54809 15.4063 7.51903C15.4063 8.35481 15.2853 9.12658 15.047 9.83433C14.8052 10.5456 14.4816 11.2178 14.069 11.8615C13.6564 12.5017 13.1799 13.1277 12.6357 13.7323C12.0916 14.3369 11.519 14.9486 10.9144 15.5639L6.09171 20.4826C6.62519 20.3261 7.15155 20.2052 7.67081 20.1162C8.19362 20.0273 8.68086 19.9847 9.14321 19.9847H14.2433V19.9811Z"
              fill="#2D2D82"/>
    </svg>
</svg>
